  0
SECTION
  2
HEADER
  9
$ACADVER
  1
AC1015
  9
$ACADMAINTVER
 70
     6
  9
$DWGCODEPAGE
  3
ANSI_936
  9
$INSBASE
 10
0.0
 20
0.0
 30
0.0
  9
$EXTMIN
 10
-268.7868310761
 20
-231.8259897928
 30
0.0
  9
$EXTMAX
 10
237.131134076
 20
276.1050350735
 30
0.0
  9
$LIMMIN
 10
0.0
 20
0.0
  9
$LIMMAX
 10
420.0
 20
297.0
  9
$ORTHOMODE
 70
     0
  9
$REGENMODE
 70
     1
  9
$FILLMODE
 70
     1
  9
$QTEXTMODE
 70
     0
  9
$MIRRTEXT
 70
     1
  9
$LTSCALE
 40
1.0
  9
$ATTMODE
 70
     1
  9
$TEXTSIZE
 40
5.0
  9
$TRACEWID
 40
1.0
  9
$TEXTSTYLE
  7
Standard
  9
$CLAYER
  8
0
  9
$CELTYPE
  6
ByLayer
  9
$CECOLOR
 62
   256
  9
$CELTSCALE
 40
1.0
  9
$DISPSILH
 70
     0
  9
$DIMSCALE
 40
1.0
  9
$DIMASZ
 40
4.08
  9
$DIMEXO
 40
0.0
  9
$DIMDLI
 40
3.75
  9
$DIMRND
 40
0.0
  9
$DIMDLE
 40
0.0
  9
$DIMEXE
 40
2.0
  9
$DIMTP
 40
0.0
  9
$DIMTM
 40
0.0
  9
$DIMTXT
 40
3.5
  9
$DIMCEN
 40
2.5
  9
$DIMTSZ
 40
0.0
  9
$DIMTOL
 70
     0
  9
$DIMLIM
 70
     0
  9
$DIMTIH
 70
     1
  9
$DIMTOH
 70
     1
  9
$DIMSE1
 70
     0
  9
$DIMSE2
 70
     0
  9
$DIMTAD
 70
     1
  9
$DIMZIN
 70
     1
  9
$DIMBLK
  1

  9
$DIMASO
 70
     1
  9
$DIMSHO
 70
     1
  9
$DIMPOST
  1

  9
$DIMAPOST
  1

  9
$DIMALT
 70
     0
  9
$DIMALTD
 70
     3
  9
$DIMALTF
 40
0.0393700787
  9
$DIMLFAC
 40
1.0
  9
$DIMTOFL
 70
     1
  9
$DIMTVP
 40
0.0
  9
$DIMTIX
 70
     0
  9
$DIMSOXD
 70
     0
  9
$DIMSAH
 70
     0
  9
$DIMBLK1
  1

  9
$DIMBLK2
  1

  9
$DIMSTYLE
  2
ISO-25
  9
$DIMCLRD
 70
     0
  9
$DIMCLRE
 70
     0
  9
$DIMCLRT
 70
     0
  9
$DIMTFAC
 40
1.0
  9
$DIMGAP
 40
1.524
  9
$DIMJUST
 70
     0
  9
$DIMSD1
 70
     0
  9
$DIMSD2
 70
     0
  9
$DIMTOLJ
 70
     0
  9
$DIMTZIN
 70
     1
  9
$DIMALTZ
 70
     0
  9
$DIMALTTZ
 70
     0
  9
$DIMUPT
 70
     0
  9
$DIMDEC
 70
     2
  9
$DIMTDEC
 70
     2
  9
$DIMALTU
 70
     2
  9
$DIMALTTD
 70
     3
  9
$DIMTXSTY
  7
Standard
  9
$DIMAUNIT
 70
     0
  9
$DIMADEC
 70
     2
  9
$DIMALTRND
 40
0.0
  9
$DIMAZIN
 70
     0
  9
$DIMDSEP
 70
    44
  9
$DIMATFIT
 70
     3
  9
$DIMFRAC
 70
     0
  9
$DIMLDRBLK
  1

  9
$DIMLUNIT
 70
     2
  9
$DIMLWD
 70
    -2
  9
$DIMLWE
 70
    -2
  9
$DIMTMOVE
 70
     0
  9
$LUNITS
 70
     2
  9
$LUPREC
 70
     2
  9
$SKETCHINC
 40
1.0
  9
$FILLETRAD
 40
10.0
  9
$AUNITS
 70
     0
  9
$AUPREC
 70
     2
  9
$MENU
  1
.
  9
$ELEVATION
 40
0.0
  9
$PELEVATION
 40
0.0
  9
$THICKNESS
 40
0.0
  9
$LIMCHECK
 70
     0
  9
$CHAMFERA
 40
0.0
  9
$CHAMFERB
 40
0.0
  9
$CHAMFERC
 40
0.0
  9
$CHAMFERD
 40
0.0
  9
$SKPOLY
 70
     0
  9
$TDCREATE
 40
2460681.702907037
  9
$TDUCREATE
 40
2460681.369573704
  9
$TDUPDATE
 40
2460681.70314522
  9
$TDUUPDATE
 40
2460681.369811886
  9
$TDINDWG
 40
0.0000000116
  9
$TDUSRTIMER
 40
0.0000000116
  9
$USRTIMER
 70
     1
  9
$ANGBASE
 50
0.0
  9
$ANGDIR
 70
     0
  9
$PDMODE
 70
     0
  9
$PDSIZE
 40
-1.0
  9
$PLINEWID
 40
0.0
  9
$SPLFRAME
 70
     0
  9
$SPLINETYPE
 70
     6
  9
$SPLINESEGS
 70
     8
  9
$HANDSEED
  5
345
  9
$SURFTAB1
 70
     6
  9
$SURFTAB2
 70
     6
  9
$SURFTYPE
 70
     6
  9
$SURFU
 70
     6
  9
$SURFV
 70
     6
  9
$UCSBASE
  2

  9
$UCSNAME
  2

  9
$UCSORG
 10
0.0
 20
0.0
 30
0.0
  9
$UCSXDIR
 10
1.0
 20
0.0
 30
0.0
  9
$UCSYDIR
 10
0.0
 20
1.0
 30
0.0
  9
$UCSORTHOREF
  2

  9
$UCSORTHOVIEW
 70
     0
  9
$UCSORGTOP
 10
0.0
 20
0.0
 30
0.0
  9
$UCSORGBOTTOM
 10
0.0
 20
0.0
 30
0.0
  9
$UCSORGLEFT
 10
0.0
 20
0.0
 30
0.0
  9
$UCSORGRIGHT
 10
0.0
 20
0.0
 30
0.0
  9
$UCSORGFRONT
 10
0.0
 20
0.0
 30
0.0
  9
$UCSORGBACK
 10
0.0
 20
0.0
 30
0.0
  9
$PUCSBASE
  2

  9
$PUCSNAME
  2

  9
$PUCSORG
 10
0.0
 20
0.0
 30
0.0
  9
$PUCSXDIR
 10
1.0
 20
0.0
 30
0.0
  9
$PUCSYDIR
 10
0.0
 20
1.0
 30
0.0
  9
$PUCSORTHOREF
  2

  9
$PUCSORTHOVIEW
 70
     0
  9
$PUCSORGTOP
 10
0.0
 20
0.0
 30
0.0
  9
$PUCSORGBOTTOM
 10
0.0
 20
0.0
 30
0.0
  9
$PUCSORGLEFT
 10
0.0
 20
0.0
 30
0.0
  9
$PUCSORGRIGHT
 10
0.0
 20
0.0
 30
0.0
  9
$PUCSORGFRONT
 10
0.0
 20
0.0
 30
0.0
  9
$PUCSORGBACK
 10
0.0
 20
0.0
 30
0.0
  9
$USERI1
 70
     0
  9
$USERI2
 70
     0
  9
$USERI3
 70
     0
  9
$USERI4
 70
     0
  9
$USERI5
 70
     0
  9
$USERR1
 40
0.0
  9
$USERR2
 40
0.0
  9
$USERR3
 40
0.0
  9
$USERR4
 40
0.0
  9
$USERR5
 40
0.0
  9
$WORLDVIEW
 70
     1
  9
$SHADEDGE
 70
     3
  9
$SHADEDIF
 70
    70
  9
$TILEMODE
 70
     1
  9
$MAXACTVP
 70
    64
  9
$PINSBASE
 10
0.0
 20
0.0
 30
0.0
  9
$PLIMCHECK
 70
     0
  9
$PEXTMIN
 10
1.0000000000E+20
 20
1.0000000000E+20
 30
1.0000000000E+20
  9
$PEXTMAX
 10
-1.0000000000E+20
 20
-1.0000000000E+20
 30
-1.0000000000E+20
  9
$PLIMMIN
 10
0.0
 20
0.0
  9
$PLIMMAX
 10
420.0
 20
297.0
  9
$UNITMODE
 70
     0
  9
$VISRETAIN
 70
     1
  9
$PLINEGEN
 70
     0
  9
$PSLTSCALE
 70
     1
  9
$TREEDEPTH
 70
  3020
  9
$CMLSTYLE
  2
Standard
  9
$CMLJUST
 70
     0
  9
$CMLSCALE
 40
20.0
  9
$PROXYGRAPHICS
 70
     1
  9
$MEASUREMENT
 70
     1
  9
$CELWEIGHT
370
    -1
  9
$ENDCAPS
280
     0
  9
$JOINSTYLE
280
     0
  9
$LWDISPLAY
290
     1
  9
$INSUNITS
 70
     4
  9
$HYPERLINKBASE
  1

  9
$STYLESHEET
  1

  9
$XEDIT
290
     1
  9
$CEPSNTYPE
380
     0
  9
$PSTYLEMODE
290
     1
  9
$FINGERPRINTGUID
  2
{e5a98be3-5099-4dd3-b941-a69accc34771}
  9
$VERSIONGUID
  2
{FAEB1C32-E019-11D5-929B-00C0DF256EC4}
  9
$EXTNAMES
290
     1
  9
$PSVPSCALE
 40
0.0
  9
$OLESTARTUP
290
     0
  0
ENDSEC
  0
SECTION
  2
CLASSES
  0
CLASS
  1
ACDBDICTIONARYWDFLT
  2
AcDbDictionaryWithDefault
  3
ObjectDBX Classes
 90
        0
280
     0
281
     0
  0
CLASS
  1
VISUALSTYLE
  2
AcDbVisualStyle
  3
ObjectDBX Classes
 90
     4095
280
     0
281
     0
  0
CLASS
  1
MATERIAL
  2
AcDbMaterial
  3
ObjectDBX Classes
 90
     1153
280
     0
281
     0
  0
CLASS
  1
SCALE
  2
AcDbScale
  3
ObjectDBX Classes
 90
     1153
280
     0
281
     0
  0
CLASS
  1
TABLESTYLE
  2
AcDbTableStyle
  3
ObjectDBX Classes
 90
     4095
280
     0
281
     0
  0
CLASS
  1
MLEADERSTYLE
  2
AcDbMLeaderStyle
  3
ACDB_MLEADERSTYLE_CLASS
 90
     4095
280
     0
281
     0
  0
CLASS
  1
SUN
  2
AcDbSun
  3
SCENEOE
 90
     1153
280
     0
281
     0
  0
CLASS
  1
ACDBPLACEHOLDER
  2
AcDbPlaceHolder
  3
ObjectDBX Classes
 90
        0
280
     0
281
     0
  0
CLASS
  1
LAYOUT
  2
AcDbLayout
  3
ObjectDBX Classes
 90
        0
280
     0
281
     0
  0
ENDSEC
  0
SECTION
  2
TABLES
  0
TABLE
  2
VPORT
  5
8
330
0
100
AcDbSymbolTable
 70
     1
  0
VPORT
  5
29
330
8
100
AcDbSymbolTableRecord
100
AcDbViewportTableRecord
  2
*Active
 70
     0
 10
0.0
 20
0.0
 11
1.0
 21
1.0
 12
-15.8278485
 22
22.1395226403
 13
0.0
 23
0.0
 14
10.0
 24
10.0
 15
10.0
 25
10.0
 16
0.0
 26
0.0
 36
1.0
 17
0.0
 27
0.0
 37
0.0
 40
518.0896453637
 41
0.9960367459
 42
50.0
 43
0.0
 44
0.0
 50
0.0
 51
0.0
 71
     0
 72
   100
 73
     1
 74
     3
 75
     0
 76
     0
 77
     0
 78
     0
281
     0
 65
     1
110
0.0
120
0.0
130
0.0
111
1.0
121
0.0
131
0.0
112
0.0
122
1.0
132
0.0
 79
     0
146
0.0
  0
ENDTAB
  0
TABLE
  2
LTYPE
  5
5
330
0
100
AcDbSymbolTable
 70
     6
  0
LTYPE
  5
14
330
5
100
AcDbSymbolTableRecord
100
AcDbLinetypeTableRecord
  2
ByBlock
 70
     0
  3

 72
    65
 73
     0
 40
0.0
  0
LTYPE
  5
15
330
5
100
AcDbSymbolTableRecord
100
AcDbLinetypeTableRecord
  2
ByLayer
 70
     0
  3

 72
    65
 73
     0
 40
0.0
  0
LTYPE
  5
16
330
5
100
AcDbSymbolTableRecord
100
AcDbLinetypeTableRecord
  2
Continuous
 70
     0
  3
Solid line
 72
    65
 73
     0
 40
0.0
  0
LTYPE
  5
6E
330
5
100
AcDbSymbolTableRecord
100
AcDbLinetypeTableRecord
  2
HIDDEN
 70
     0
  3
Hidden __ __ __ __ __ __ __ __ __ __ __ __ __ __
 72
    65
 73
     2
 40
1.905
 49
1.27
 74
     0
 49
-0.635
 74
     0
  0
LTYPE
  5
6F
330
5
100
AcDbSymbolTableRecord
100
AcDbLinetypeTableRecord
  2
PHANTOM
 70
     0
  3
Phantom ______  __  __  ______  __  __  ______
 72
    65
 73
     6
 40
12.7
 49
6.35
 74
     0
 49
-1.27
 74
     0
 49
1.27
 74
     0
 49
-1.27
 74
     0
 49
1.27
 74
     0
 49
-1.27
 74
     0
  0
LTYPE
  5
70
330
5
100
AcDbSymbolTableRecord
100
AcDbLinetypeTableRecord
  2
CENTER
 70
     0
  3
Center ____ _ ____ _ ____ _ ____ _ ____ _ ____
 72
    65
 73
     4
 40
10.16
 49
6.35
 74
     0
 49
-1.27
 74
     0
 49
1.27
 74
     0
 49
-1.27
 74
     0
  0
LTYPE
  5
71
330
5
100
AcDbSymbolTableRecord
100
AcDbLinetypeTableRecord
  2
CENTERX2
 70
     0
  3
Center (2x) ________  __  ________  __  _____
 72
    65
 73
     4
 40
20.32
 49
12.7
 74
     0
 49
-2.54
 74
     0
 49
2.54
 74
     0
 49
-2.54
 74
     0
  0
LTYPE
  5
72
330
5
100
AcDbSymbolTableRecord
100
AcDbLinetypeTableRecord
  2
DOT2
 70
     0
  3
Dot (.5x) ........................................
 72
    65
 73
     2
 40
0.635
 49
0.0
 74
     0
 49
-0.635
 74
     0
  0
ENDTAB
  0
TABLE
  2
LAYER
  5
2
330
0
100
AcDbSymbolTable
 70
     1
  0
LAYER
  5
10
330
2
100
AcDbSymbolTableRecord
100
AcDbLayerTableRecord
  2
0
 70
     0
 62
     7
  6
Continuous
370
    -3
390
F
  0
ENDTAB
  0
TABLE
  2
STYLE
  5
3
330
0
100
AcDbSymbolTable
 70
     1
  0
STYLE
  5
11
330
3
100
AcDbSymbolTableRecord
100
AcDbTextStyleTableRecord
  2
Standard
 70
     0
 40
0.0
 41
1.0
 50
0.0
 71
     0
 42
5.0
  3
txt
  4

  0
ENDTAB
  0
TABLE
  2
VIEW
  5
6
330
0
100
AcDbSymbolTable
 70
     0
  0
ENDTAB
  0
TABLE
  2
UCS
  5
7
330
0
100
AcDbSymbolTable
 70
     0
  0
ENDTAB
  0
TABLE
  2
APPID
  5
9
330
0
100
AcDbSymbolTable
 70
     1
  0
APPID
  5
12
330
9
100
AcDbSymbolTableRecord
100
AcDbRegAppTableRecord
  2
ACAD
 70
     0
  0
ENDTAB
  0
TABLE
  2
DIMSTYLE
  5
A
330
0
100
AcDbSymbolTable
 70
     1
100
AcDbDimStyleTable
  0
DIMSTYLE
105
27
330
A
100
AcDbSymbolTableRecord
100
AcDbDimStyleTableRecord
  2
ISO-25
 70
     0
 41
2.5
 42
0.625
 43
3.75
 44
1.25
 73
     0
 74
     0
 77
     1
 78
     8
140
2.5
141
2.5
143
0.0393700787
147
0.625
171
     3
172
     1
178
     0
271
     2
272
     2
274
     3
278
    44
283
     0
284
     8
340
11
  0
ENDTAB
  0
TABLE
  2
BLOCK_RECORD
  5
1
330
0
100
AcDbSymbolTable
 70
     1
  0
BLOCK_RECORD
  5
1F
330
1
100
AcDbSymbolTableRecord
100
AcDbBlockTableRecord
  2
*Model_Space
340
22
  0
BLOCK_RECORD
  5
1B
330
1
100
AcDbSymbolTableRecord
100
AcDbBlockTableRecord
  2
*Paper_Space
340
1E
  0
BLOCK_RECORD
  5
23
330
1
100
AcDbSymbolTableRecord
100
AcDbBlockTableRecord
  2
*Paper_Space0
340
26
  0
ENDTAB
  0
ENDSEC
  0
SECTION
  2
BLOCKS
  0
BLOCK
  5
20
330
1F
100
AcDbEntity
  8
0
100
AcDbBlockBegin
  2
*Model_Space
 70
     0
 10
0.0
 20
0.0
 30
0.0
  3
*Model_Space
  1

  0
ENDBLK
  5
21
330
1F
100
AcDbEntity
  8
0
100
AcDbBlockEnd
  0
BLOCK
  5
1C
330
1B
100
AcDbEntity
 67
     1
  8
0
100
AcDbBlockBegin
  2
*Paper_Space
 70
     0
 10
0.0
 20
0.0
 30
0.0
  3
*Paper_Space
  1

  0
ENDBLK
  5
1D
330
1B
100
AcDbEntity
 67
     1
  8
0
100
AcDbBlockEnd
  0
BLOCK
  5
24
330
23
100
AcDbEntity
  8
0
100
AcDbBlockBegin
  2
*Paper_Space0
 70
     0
 10
0.0
 20
0.0
 30
0.0
  3
*Paper_Space0
  1

  0
ENDBLK
  5
25
330
23
100
AcDbEntity
  8
0
100
AcDbBlockEnd
  0
ENDSEC
  0
SECTION
  2
ENTITIES
  0
LWPOLYLINE
  5
8E
330
1F
100
AcDbEntity
  8
0
  6
Continuous
 62
     7
370
    25
100
AcDbPolyline
 90
       72
 70
   128
 43
0.0
 10
28.7517567592
 20
24.4124528253
 10
28.685760897
 20
20.4648816528
 10
28.26935496
 20
16.533219443
 10
27.5057978893
 20
12.6482367834
 10
26.4010655542
 20
8.8403389307
 10
24.9638039831
 20
5.1393278487
 10
23.2052616965
 20
1.574168967
 10
21.1392016721
 20
-1.8272355123
 10
18.7817936309
 20
-5.0382649873
 10
16.1514874871
 20
-8.0337887988
 10
13.2688689525
 20
-10.7903629113
 10
10.1564984256
 20
-13.2864133951
 10
6.8387344257
 20
-15.5024052707
 10
3.3415429545
 20
-17.4209953973
 10
-0.3077057232
 20
-19.0271682057
 10
-4.0804512885
 20
-20.308353216
 10
-7.9471668922
 20
-21.2545234183
 10
-11.8775902419
 20
-21.8582737481
 10
-15.8409604459
 20
-22.1148790403
 10
-19.8062587586
 20
-22.0223310107
 10
-23.7424513443
 20
-21.581353973
 10
-27.6187321593
 20
-20.7953991704
 10
-31.4047640504
 20
-19.670617765
 10
-35.0709161848
 20
-18.2158126963
 10
-38.5884959513
 20
-16.4423697864
 10
-41.9299735189
 20
-14.3641686306
 10
-45.0691972951
 20
-11.9974739707
 10
-47.9815985976
 20
-9.3608084013
 10
-50.6443839374
 20
-6.4748074054
 10
-53.0367134088
 20
-3.3620578537
 10
-55.1398637901
 20
-0.046921232
 10
-56.937375078
 20
3.4446570209
 10
-58.4151793096
 20
7.0853505711
 10
-59.561710663
 20
10.8466660553
 10
-60.3679959758
 20
14.6991660801
 10
-60.8277249723
 20
18.6126996093
 10
-60.9372996499
 20
22.556637937
 10
-60.6958624379
 20
26.5001143983
 10
-60.1053029101
 20
30.4122659432
 10
-59.1702429953
 20
34.2624746816
 10
-57.8980008053
 20
38.0206075096
 10
-56.2985333602
 20
41.6572519426
 10
-54.3843586612
 20
45.1439463071
 10
-52.1704577209
 20
48.4534024922
 10
-49.6741573157
 20
51.5597195162
 10
-46.914994381
 20
54.4385862366
 10
-43.9145631078
 20
57.067471618
 10
-40.6963459387
 20
59.4258010681
 10
-37.2855297868
 20
61.4951174612
 10
-33.7088089128
 20
63.2592255909
 10
-29.9941760071
 20
64.7043189193
 10
-26.1707031088
 20
65.8190876316
 10
-22.2683140772
 20
66.5948071514
 10
-18.3175503976
 20
67.0254064215
 10
-14.3493321525
 20
67.1075154189
 10
-10.3947160299
 20
66.8404915294
 10
-6.4846522628
 20
66.2264245768
 10
-2.6497424017
 20
65.2701204677
 10
1.0800001842
 20
63.9790635784
 10
4.6753852021
 20
62.3633581795
 10
8.1082738896
 20
60.4356493564
 10
11.3517992381
 20
58.2110240443
 10
14.3805762641
 20
55.7068929525
 10
17.1709006808
 20
52.9428543021
 10
19.7009344163
 20
49.9405404431
 10
21.9508765263
 20
46.7234485522
 10
23.9031181633
 20
43.3167567353
 10
25.5423803894
 20
39.7471269748
 10
26.8558337552
 20
36.0424964636
 10
27.8331987072
 20
32.2318589581
 10
28.4668260395
 20
28.3450378637
 10
28.7517567592
 20
24.4124528253
  0
CIRCLE
  5
137
330
1F
100
AcDbEntity
  8
0
  6
Continuous
 62
     7
370
    25
100
AcDbCircle
 10
-84.4469723347
 20
-50.3726477651
 30
0.0
 40
2.235116318150843
  0
CIRCLE
  5
138
330
1F
100
AcDbEntity
  8
0
  6
Continuous
 62
     7
370
    25
100
AcDbCircle
 10
-115.5377890671
 20
18.2643708936
 30
0.0
 40
2.238454083890831
  0
CIRCLE
  5
139
330
1F
100
AcDbEntity
  8
0
  6
Continuous
 62
     7
370
    25
100
AcDbCircle
 10
-88.3604795013
 20
89.3936518948
 30
0.0
 40
2.229301227694331
  0
CIRCLE
  5
13A
330
1F
100
AcDbEntity
  8
0
  6
Continuous
 62
     7
370
    25
100
AcDbCircle
 10
-18.8456856996
 20
121.3190889225
 30
0.0
 40
2.225995096785928
  0
CIRCLE
  5
13B
330
1F
100
AcDbEntity
  8
0
  6
Continuous
 62
     7
370
    25
100
AcDbCircle
 10
52.2723294822
 20
95.3678951796
 30
0.0
 40
2.235116318150771
  0
CIRCLE
  5
13C
330
1F
100
AcDbEntity
  8
0
  6
Continuous
 62
     7
370
    25
100
AcDbCircle
 10
83.3631462146
 20
26.7308765209
 30
0.0
 40
2.238454083890788
  0
CIRCLE
  5
13D
330
1F
100
AcDbEntity
  8
0
  6
Continuous
 62
     7
370
    25
100
AcDbCircle
 10
56.1858366488
 20
-44.3984044803
 30
0.0
 40
2.229301227694295
  0
CIRCLE
  5
13E
330
1F
100
AcDbEntity
  8
0
  6
Continuous
 62
     7
370
    25
100
AcDbCircle
 10
-13.337720814
 20
-76.3168889239
 30
0.0
 40
2.234556813057377
  0
LWPOLYLINE
  5
19C
330
1F
100
AcDbEntity
  8
0
  6
Continuous
 62
     7
370
    25
100
AcDbPolyline
 90
       38
 70
   128
 43
0.0
 10
20.8559036106
 20
48.3661207963
 10
20.2198802687
 20
49.2148106461
 10
17.6898465332
 20
52.2171245051
 10
14.8995221166
 20
54.9811631555
 10
11.8707450906
 20
57.4852942473
 10
8.6272197421
 20
59.7099195594
 10
5.1943310546
 20
61.6376283825
 10
1.5989460366
 20
63.2533337814
 10
-2.1307965492
 20
64.5443906707
 10
-5.9657064103
 20
65.5006947798
 10
-9.8757701774
 20
66.1147617324
 10
-13.8303863
 20
66.3817856219
 10
-17.7986045451
 20
66.2996766245
 10
-21.7493682247
 20
65.8690773544
 10
-25.6517572563
 20
65.0933578346
 10
-29.4752301547
 20
63.9785891223
 10
-33.1898630603
 20
62.5334957939
 10
-36.7665839343
 20
60.7693876642
 10
-40.1774000863
 20
58.7000712711
 10
-43.3956172553
 20
56.341741821
 10
-46.3960485286
 20
53.7128564396
 10
-49.1552114633
 20
50.8339897192
 10
-51.6515118684
 20
47.7276726952
 10
-53.8654128088
 20
44.4182165101
 10
-55.7795875077
 20
40.9315221456
 10
-57.3790549529
 20
37.2948777126
 10
-58.6512971429
 20
33.5367448846
 10
-59.5863570576
 20
29.6865361462
 10
-60.1769165855
 20
25.7743846013
 10
-60.4183537974
 20
21.83090814
 10
-60.3087791199
 20
17.8869698123
 10
-59.8490501233
 20
13.973436283
 10
-59.0427648105
 20
10.1209362583
 10
-57.8962334571
 20
6.3596207741
 10
-56.4184292256
 20
2.7189272239
 10
-54.6209179377
 20
-0.772651029
 10
-52.5177675563
 20
-4.0877876507
 10
-52.5116006107
 20
-4.0966031787
  0
LWPOLYLINE
  5
1A3
330
1F
100
AcDbEntity
  8
0
  6
Continuous
 62
     7
370
    25
100
AcDbPolyline
 90
        3
 70
   128
 43
0.0
 10
85.3868432851
 20
27.6624132908
 10
84.6526039685
 20
28.1090369971
 10
83.7918392702
 20
28.241780605
  0
LINE
  5
1E1
330
1F
100
AcDbEntity
  8
0
  6
Continuous
 62
     7
370
    25
100
AcDbLine
 10
-242.4440597515
 20
-190.311776871
 30
0.0
 11
-241.925113899
 21
-191.037506668
 31
0.0
  0
LINE
  5
1E2
330
1F
100
AcDbEntity
  8
0
  6
Continuous
 62
     7
370
    25
100
AcDbLine
 10
171.5211114554
 20
155.5535213602
 30
0.0
 11
171.0021656029
 21
156.2792511572
 31
0.0
  0
LINE
  5
1E3
330
1F
100
AcDbEntity
  8
0
  6
Continuous
 62
     7
370
    25
100
AcDbLine
 10
159.3196231708
 20
146.8286326135
 30
0.0
 11
158.8006773184
 21
147.5543624105
 31
0.0
  0
LINE
  5
1E4
330
1F
100
AcDbEntity
  8
0
  6
Continuous
 62
     7
370
    25
100
AcDbLine
 10
147.1181348863
 20
138.1037438667
 30
0.0
 11
146.5991890339
 21
138.8294736638
 31
0.0
  0
LINE
  5
1E5
330
1F
100
AcDbEntity
  8
0
  6
Continuous
 62
     7
370
    25
100
AcDbLine
 10
134.9166466018
 20
129.37885512
 30
0.0
 11
134.3977007494
 21
130.104584917
 31
0.0
  0
LINE
  5
1E6
330
1F
100
AcDbEntity
  8
0
  6
Continuous
 62
     7
370
    25
100
AcDbLine
 10
-203.1768084554
 20
-111.2840037428
 30
0.0
 11
-202.657862603
 21
-112.0097335398
 31
0.0
  0
LINE
  5
1E7
330
1F
100
AcDbEntity
  8
0
  6
Continuous
 62
     7
370
    25
100
AcDbLine
 10
-190.9753201709
 20
-102.559114996
 30
0.0
 11
-190.4563743184
 21
-103.284844793
 31
0.0
  0
LINE
  5
1E8
330
1F
100
AcDbEntity
  8
0
  6
Continuous
 62
     7
370
    25
100
AcDbLine
 10
122.7151583173
 20
120.6539663733
 30
0.0
 11
122.1962124649
 21
121.3796961703
 31
0.0
  0
LINE
  5
1E9
330
1F
100
AcDbEntity
  8
0
  6
Continuous
 62
     7
370
    25
100
AcDbLine
 10
-178.7738318864
 20
-93.8342262493
 30
0.0
 11
-178.2548860339
 21
-94.5599560463
 31
0.0
  0
LINE
  5
1EA
330
1F
100
AcDbEntity
  8
0
  6
Continuous
 62
     7
370
    25
100
AcDbLine
 10
106.4465072713
 20
109.0207813776
 30
0.0
 11
105.9275614188
 21
109.7465111746
 31
0.0
  0
LINE
  5
1EB
330
1F
100
AcDbEntity
  8
0
  6
Continuous
 62
     7
370
    25
100
AcDbLine
 10
-166.5723436019
 20
-85.1093375025
 30
0.0
 11
-166.0533977494
 21
-85.8350672995
 31
0.0
  0
LINE
  5
1EC
330
1F
100
AcDbEntity
  8
0
  6
Continuous
 62
     7
370
    25
100
AcDbLine
 10
-154.3708553174
 20
-76.3844487558
 30
0.0
 11
-153.8519094649
 21
-77.1101785528
 31
0.0
  0
LINE
  5
1ED
330
1F
100
AcDbEntity
  8
0
  6
Continuous
 62
     7
370
    25
100
AcDbLine
 10
94.2450189868
 20
100.2958926309
 30
0.0
 11
93.7260731343
 21
101.0216224279
 31
0.0
  0
LINE
  5
1EE
330
1F
100
AcDbEntity
  8
0
  6
Continuous
 62
     7
370
    25
100
AcDbLine
 10
-138.1022042714
 20
-64.7512637601
 30
0.0
 11
-137.5832584189
 21
-65.4769935572
 31
0.0
  0
LINE
  5
1EF
330
1F
100
AcDbEntity
  8
0
  6
Continuous
 62
     7
370
    25
100
AcDbLine
 10
-125.9007159869
 20
-56.0263750134
 30
0.0
 11
-125.3817701344
 21
-56.7521048104
 31
0.0
  0
LINE
  5
1F0
330
1F
100
AcDbEntity
  8
0
  6
Continuous
 62
     7
370
    25
100
AcDbLine
 10
210.7883627514
 20
234.5812944885
 30
0.0
 11
210.269416899
 21
235.3070242855
 31
0.0
  0
LINE
  5
1F1
330
1F
100
AcDbEntity
  8
0
  6
Continuous
 62
     7
370
    25
100
AcDbLine
 10
140.4305170243
 20
-218.9841750635
 30
0.0
 11
139.9115711718
 21
-218.2584452665
 31
0.0
  0
LINE
  5
1F2
330
1F
100
AcDbEntity
  8
0
  6
Continuous
 62
     7
370
    25
100
AcDbLine
 10
237.106172421
 20
-115.8885246635
 30
0.0
 11
236.5872265686
 21
-115.1627948665
 31
0.0
  0
LINE
  5
1F3
330
1F
100
AcDbEntity
  8
0
  6
Continuous
 62
     7
370
    25
100
AcDbLine
 10
236.5872265686
 20
-115.1627948665
 30
0.0
 11
228.3481694414
 21
181.3868635638
 31
0.0
  0
LINE
  5
1F4
330
1F
100
AcDbEntity
  8
0
  6
Continuous
 62
     7
370
    25
100
AcDbLine
 10
-158.3544521457
 20
-230.9957380362
 30
0.0
 11
139.9115711718
 21
-218.2584452665
 31
0.0
  0
LINE
  5
1F5
330
1F
100
AcDbEntity
  8
0
  6
Continuous
 62
     7
370
    25
100
AcDbLine
 10
-268.7618694211
 20
160.158042281
 30
0.0
 11
-260.5228122939
 21
-136.3916161493
 31
0.0
  0
LINE
  5
1F6
330
1F
100
AcDbEntity
  8
0
  6
Continuous
 62
     7
370
    25
100
AcDbLine
 10
126.1798092932
 20
275.9909854507
 30
0.0
 11
-172.0862140243
 21
263.253692681
 31
0.0
  0
LINE
  5
1F7
330
1F
100
AcDbEntity
  8
0
  6
Continuous
 62
     7
370
    25
100
AcDbLine
 10
186.2062340941
 20
50.9298965343
 30
0.0
 11
181.2107055097
 21
50.7165651283
 31
0.0
  0
LINE
  5
1F8
330
1F
100
AcDbEntity
  8
0
  6
Continuous
 62
     7
370
    25
100
AcDbLine
 10
95.5983814206
 20
187.9273141963
 30
0.0
 11
97.976640786
 21
192.335339227
 31
0.0
  0
LINE
  5
1F9
330
1F
100
AcDbEntity
  8
0
  6
Continuous
 62
     7
370
    25
100
AcDbLine
 10
121.1265831806
 20
48.1507044634
 30
0.0
 11
116.1020281743
 21
47.9361334994
 31
0.0
  0
LINE
  5
1FA
330
1F
100
AcDbEntity
  8
0
  6
Continuous
 62
     7
370
    25
100
AcDbLine
 10
64.6015971914
 20
130.4758003951
 30
0.0
 11
66.9936753867
 21
134.9094381697
 31
0.0
  0
LINE
  5
1FB
330
1F
100
AcDbEntity
  8
0
  6
Continuous
 62
     7
370
    25
100
AcDbLine
 10
171.2157602195
 20
50.2897362761
 30
0.0
 11
166.2161309846
 21
50.076229754
 31
0.0
  0
LINE
  5
1FC
330
1F
100
AcDbEntity
  8
0
  6
Continuous
 62
     7
370
    25
100
AcDbLine
 10
88.4598000489
 20
174.6961898588
 30
0.0
 11
90.8400116422
 21
179.1078332794
 31
0.0
  0
LINE
  5
1FD
330
1F
100
AcDbEntity
  8
0
  6
Continuous
 62
     7
370
    25
100
AcDbLine
 10
201.1861135764
 20
51.5696043646
 30
0.0
 11
196.1938594495
 21
51.3564127926
 31
0.0
  0
LINE
  5
1FE
330
1F
100
AcDbEntity
  8
0
  6
Continuous
 62
     7
370
    25
100
AcDbLine
 10
102.7315257072
 20
201.1483610765
 30
0.0
 11
105.1082261766
 21
205.5534967451
 31
0.0
  0
LINE
  5
1FF
330
1F
100
AcDbEntity
  8
0
  6
Continuous
 62
     7
370
    25
100
AcDbLine
 10
71.7726687914
 20
143.7671442956
 30
0.0
 11
74.1599231512
 21
148.1918412508
 31
0.0
  0
LINE
  5
200
330
1F
100
AcDbEntity
  8
0
  6
Continuous
 62
     7
370
    25
100
AcDbLine
 10
136.1792709032
 20
48.7935215311
 30
0.0
 11
131.1648483528
 21
48.5793832682
 31
0.0
  0
LINE
  5
201
330
1F
100
AcDbEntity
  8
0
  6
Continuous
 62
     7
370
    25
100
AcDbLine
 10
156.2119355445
 20
49.6490058791
 30
0.0
 11
151.2070750751
 21
49.4352759599
 31
0.0
  0
LINE
  5
202
330
1F
100
AcDbEntity
  8
0
  6
Continuous
 62
     7
370
    25
100
AcDbLine
 10
81.3143244141
 20
161.452287233
 30
0.0
 11
83.6970264811
 21
165.8685466641
 31
0.0
  0
LINE
  5
203
330
1F
100
AcDbEntity
  8
0
  6
Continuous
 62
     7
370
    25
100
AcDbLine
 10
216.1574438659
 20
52.2089471061
 30
0.0
 11
211.1678462796
 21
51.9958689803
 31
0.0
  0
LINE
  5
204
330
1F
100
AcDbEntity
  8
0
  6
Continuous
 62
     7
370
    25
100
AcDbLine
 10
109.860305738
 20
214.3613189529
 30
0.0
 11
112.2357414879
 21
218.7641105058
 31
0.0
  0
LINE
  5
205
330
1F
100
AcDbEntity
  8
0
  6
Continuous
 62
     7
370
    25
100
AcDbLine
 10
62.9865765403
 20
210.6345405738
 30
0.0
 11
60.6083171749
 21
206.2265155431
 31
0.0
  0
LINE
  5
206
330
1F
100
AcDbEntity
  8
0
  6
Continuous
 62
     7
370
    25
100
AcDbLine
 10
-102.7981864657
 20
199.2483272326
 30
0.0
 11
-105.4154556847
 21
203.4430208573
 31
0.0
  0
LINE
  5
207
330
1F
100
AcDbEntity
  8
0
  6
Continuous
 62
     7
370
    25
100
AcDbLine
 10
32.003611141
 20
153.2086395165
 30
0.0
 11
29.6115329458
 21
148.775001742
 31
0.0
  0
LINE
  5
208
330
1F
100
AcDbEntity
  8
0
  6
Continuous
 62
     7
370
    25
100
AcDbLine
 10
-68.6862933595
 20
144.5772450604
 30
0.0
 11
-71.3187701705
 21
148.7963118709
 31
0.0
  0
LINE
  5
209
330
1F
100
AcDbEntity
  8
0
  6
Continuous
 62
     7
370
    25
100
AcDbLine
 10
55.8499473966
 20
197.4070346263
 30
0.0
 11
53.4697358032
 21
192.9953912057
 31
0.0
  0
LINE
  5
20A
330
1F
100
AcDbEntity
  8
0
  6
Continuous
 62
     7
370
    25
100
AcDbLine
 10
-94.9421933123
 20
186.6575382694
 30
0.0
 11
-97.5616109539
 21
190.8556751679
 31
0.0
  0
LINE
  5
20B
330
1F
100
AcDbEntity
  8
0
  6
Continuous
 62
     7
370
    25
100
AcDbLine
 10
70.118161931
 20
223.852698092
 30
0.0
 11
67.7414614616
 21
219.4475624233
 31
0.0
  0
LINE
  5
20C
330
1F
100
AcDbEntity
  8
0
  6
Continuous
 62
     7
370
    25
100
AcDbLine
 10
-110.6481961189
 20
211.8295264485
 30
0.0
 11
-113.2637497763
 21
216.0214705451
 31
0.0
  0
LINE
  5
20D
330
1F
100
AcDbEntity
  8
0
  6
Continuous
 62
     7
370
    25
100
AcDbLine
 10
-76.5780419379
 20
157.225339192
 30
0.0
 11
-79.2052101286
 21
161.4358978843
 31
0.0
  0
LINE
  5
20E
330
1F
100
AcDbEntity
  8
0
  6
Continuous
 62
     7
370
    25
100
AcDbLine
 10
39.1698589056
 20
166.4910425976
 30
0.0
 11
36.7826045458
 21
162.0663456424
 31
0.0
  0
LINE
  5
20F
330
1F
100
AcDbEntity
  8
0
  6
Continuous
 62
     7
370
    25
100
AcDbLine
 10
48.7069622355
 20
184.1677480109
 30
0.0
 11
46.3242601685
 21
179.7514885798
 31
0.0
  0
LINE
  5
210
330
1F
100
AcDbEntity
  8
0
  6
Continuous
 62
     7
370
    25
100
AcDbLine
 10
-87.0786130375
 20
174.0545894377
 30
0.0
 11
-89.7007714399
 21
178.2571189496
 31
0.0
  0
LINE
  5
211
330
1F
100
AcDbEntity
  8
0
  6
Continuous
 62
     7
370
    25
100
AcDbLine
 10
77.2456772423
 20
237.0633118526
 30
0.0
 11
74.8702414924
 21
232.6605202998
 31
0.0
  0
LINE
  5
212
330
1F
100
AcDbEntity
  8
0
  6
Continuous
 62
     7
370
    25
100
AcDbLine
 10
-118.4934029181
 20
224.4030281373
 30
0.0
 11
-121.1075647545
 21
228.5927415643
 31
0.0
  0
LINE
  5
213
330
1F
100
AcDbEntity
  8
0
  6
Continuous
 62
     7
370
    25
100
AcDbLine
 10
-139.3069789801
 20
182.2022677467
 30
0.0
 11
-136.689709761
 21
178.007574122
 31
0.0
  0
LINE
  5
214
330
1F
100
AcDbEntity
  8
0
  6
Continuous
 62
     7
370
    25
100
AcDbLine
 10
-214.4838893125
 20
33.8186367435
 30
0.0
 11
-219.4794178969
 21
33.6053053375
 31
0.0
  0
LINE
  5
215
330
1F
100
AcDbEntity
  8
0
  6
Continuous
 62
     7
370
    25
100
AcDbLine
 10
-105.2102934658
 20
127.5555587604
 30
0.0
 11
-102.5778166548
 21
123.3364919498
 31
0.0
  0
LINE
  5
216
330
1F
100
AcDbEntity
  8
0
  6
Continuous
 62
     7
370
    25
100
AcDbLine
 10
-149.3752119771
 20
36.5990683725
 30
0.0
 11
-154.3997669834
 21
36.3844974085
 31
0.0
  0
LINE
  5
217
330
1F
100
AcDbEntity
  8
0
  6
Continuous
 62
     7
370
    25
100
AcDbLine
 10
-131.4531342492
 20
169.6149220574
 30
0.0
 11
-128.8337166077
 21
165.4167851589
 31
0.0
  0
LINE
  5
218
330
1F
100
AcDbEntity
  8
0
  6
Continuous
 62
     7
370
    25
100
AcDbLine
 10
-199.4893147874
 20
34.4589721178
 30
0.0
 11
-204.4889440223
 21
34.2454655957
 31
0.0
  0
LINE
  5
219
330
1F
100
AcDbEntity
  8
0
  6
Continuous
 62
     7
370
    25
100
AcDbLine
 10
-147.1552730717
 20
194.7807174346
 30
0.0
 11
-144.5397194143
 21
190.588773338
 31
0.0
  0
LINE
  5
21A
330
1F
100
AcDbEntity
  8
0
  6
Continuous
 62
     7
370
    25
100
AcDbLine
 10
-229.4670432524
 20
33.1787890793
 30
0.0
 11
-234.4592973792
 21
32.9655975073
 31
0.0
  0
LINE
  5
21B
330
1F
100
AcDbEntity
  8
0
  6
Continuous
 62
     7
370
    25
100
AcDbLine
 10
-164.4380321556
 20
35.9558186036
 30
0.0
 11
-169.452454706
 21
35.7416803408
 31
0.0
  0
LINE
  5
21C
330
1F
100
AcDbEntity
  8
0
  6
Continuous
 62
     7
370
    25
100
AcDbLine
 10
-113.0967334239
 20
140.1951447738
 30
0.0
 11
-110.4695652333
 21
135.9845860814
 31
0.0
  0
LINE
  5
21D
330
1F
100
AcDbEntity
  8
0
  6
Continuous
 62
     7
370
    25
100
AcDbLine
 10
-123.5922947353
 20
157.0163658391
 30
0.0
 11
-120.9701363329
 21
152.8138363272
 31
0.0
  0
LINE
  5
21E
330
1F
100
AcDbEntity
  8
0
  6
Continuous
 62
     7
370
    25
100
AcDbLine
 10
-184.4802588779
 20
35.099925912
 30
0.0
 11
-189.4851193473
 21
34.8861959928
 31
0.0
  0
LINE
  5
21F
330
1F
100
AcDbEntity
  8
0
  6
Continuous
 62
     7
370
    25
100
AcDbLine
 10
-154.9990880498
 20
207.3519884538
 30
0.0
 11
-152.3849262135
 21
203.1622750268
 31
0.0
  0
LINE
  5
220
330
1F
100
AcDbEntity
  8
0
  6
Continuous
 62
     7
370
    25
100
AcDbLine
 10
-244.4410300824
 20
32.5393328916
 30
0.0
 11
-249.4306276687
 21
32.3262547657
 31
0.0
  0
LINE
  5
221
330
1F
100
AcDbEntity
  8
0
  6
Continuous
 62
     7
370
    25
100
AcDbLine
 10
-218.3808769466
 20
-5.9346491199
 30
0.0
 11
-213.3853483622
 21
-5.7213177138
 31
0.0
  0
LINE
  5
222
330
1F
100
AcDbEntity
  8
0
  6
Continuous
 62
     7
370
    25
100
AcDbLine
 10
-127.7730242731
 20
-142.9320667818
 30
0.0
 11
-130.1512836385
 21
-147.3400918125
 31
0.0
  0
LINE
  5
223
330
1F
100
AcDbEntity
  8
0
  6
Continuous
 62
     7
370
    25
100
AcDbLine
 10
-153.3012260331
 20
-3.1554570489
 30
0.0
 11
-148.2766710268
 21
-2.9408860849
 31
0.0
  0
LINE
  5
224
330
1F
100
AcDbEntity
  8
0
  6
Continuous
 62
     7
370
    25
100
AcDbLine
 10
-96.7762400439
 20
-85.4805529806
 30
0.0
 11
-99.1683182392
 21
-89.9141907552
 31
0.0
  0
LINE
  5
225
330
1F
100
AcDbEntity
  8
0
  6
Continuous
 62
     7
370
    25
100
AcDbLine
 10
-203.390403072
 20
-5.2944888617
 30
0.0
 11
-198.3907738371
 21
-5.0809823395
 31
0.0
  0
LINE
  5
226
330
1F
100
AcDbEntity
  8
0
  6
Continuous
 62
     7
370
    25
100
AcDbLine
 10
-120.6344429014
 20
-129.7009424444
 30
0.0
 11
-123.0146544947
 21
-134.112585865
 31
0.0
  0
LINE
  5
227
330
1F
100
AcDbEntity
  8
0
  6
Continuous
 62
     7
370
    25
100
AcDbLine
 10
-233.3607564289
 20
-6.5743569501
 30
0.0
 11
-228.3685023021
 21
-6.3611653781
 31
0.0
  0
LINE
  5
228
330
1F
100
AcDbEntity
  8
0
  6
Continuous
 62
     7
370
    25
100
AcDbLine
 10
-134.9061685597
 20
-156.153113662
 30
0.0
 11
-137.2828690291
 21
-160.5582493306
 31
0.0
  0
LINE
  5
229
330
1F
100
AcDbEntity
  8
0
  6
Continuous
 62
     7
370
    25
100
AcDbLine
 10
-103.947311644
 20
-98.7718968811
 30
0.0
 11
-106.3345660038
 21
-103.1965938363
 31
0.0
  0
LINE
  5
22A
330
1F
100
AcDbEntity
  8
0
  6
Continuous
 62
     7
370
    25
100
AcDbLine
 10
-168.3539137558
 20
-3.7982741166
 30
0.0
 11
-163.3394912053
 21
-3.5841358537
 31
0.0
  0
LINE
  5
22B
330
1F
100
AcDbEntity
  8
0
  6
Continuous
 62
     7
370
    25
100
AcDbLine
 10
-188.386578397
 20
-4.6537584646
 30
0.0
 11
-183.3817179276
 21
-4.4400285454
 31
0.0
  0
LINE
  5
22C
330
1F
100
AcDbEntity
  8
0
  6
Continuous
 62
     7
370
    25
100
AcDbLine
 10
-113.4889672666
 20
-116.4570398185
 30
0.0
 11
-115.8716693336
 21
-120.8732992496
 31
0.0
  0
LINE
  5
22D
330
1F
100
AcDbEntity
  8
0
  6
Continuous
 62
     7
370
    25
100
AcDbLine
 10
-248.3320867184
 20
-7.2136996916
 30
0.0
 11
-243.3424891321
 21
-7.0006215658
 31
0.0
  0
LINE
  5
22E
330
1F
100
AcDbEntity
  8
0
  6
Continuous
 62
     7
370
    25
100
AcDbLine
 10
-142.0349485905
 20
-169.3660715385
 30
0.0
 11
-144.4103843404
 21
-173.7688630913
 31
0.0
  0
LINE
  5
22F
330
1F
100
AcDbEntity
  8
0
  6
Continuous
 62
     7
370
    25
100
AcDbLine
 10
-95.1612193928
 20
-165.6392931594
 30
0.0
 11
-92.7829600274
 21
-161.2312681286
 31
0.0
  0
LINE
  5
230
330
1F
100
AcDbEntity
  8
0
  6
Continuous
 62
     7
370
    25
100
AcDbLine
 10
70.6235436132
 20
-154.2530798181
 30
0.0
 11
73.2408128322
 21
-158.4477734428
 31
0.0
  0
LINE
  5
231
330
1F
100
AcDbEntity
  8
0
  6
Continuous
 62
     7
370
    25
100
AcDbLine
 10
-64.1782539936
 20
-108.213392102
 30
0.0
 11
-61.7861757983
 21
-103.7797543275
 31
0.0
  0
LINE
  5
232
330
1F
100
AcDbEntity
  8
0
  6
Continuous
 62
     7
370
    25
100
AcDbLine
 10
36.5116505069
 20
-99.5819976459
 30
0.0
 11
39.1441273179
 21
-103.8010644564
 31
0.0
  0
LINE
  5
233
330
1F
100
AcDbEntity
  8
0
  6
Continuous
 62
     7
370
    25
100
AcDbLine
 10
-88.0245902491
 20
-152.4117872118
 30
0.0
 11
-85.6443786557
 21
-148.0001437912
 31
0.0
  0
LINE
  5
234
330
1F
100
AcDbEntity
  8
0
  6
Continuous
 62
     7
370
    25
100
AcDbLine
 10
62.7675504598
 20
-141.662290855
 30
0.0
 11
65.3869681014
 21
-145.8604277534
 31
0.0
  0
LINE
  5
235
330
1F
100
AcDbEntity
  8
0
  6
Continuous
 62
     7
370
    25
100
AcDbLine
 10
-102.2928047835
 20
-178.8574506775
 30
0.0
 11
-99.9161043141
 21
-174.4523150088
 31
0.0
  0
LINE
  5
236
330
1F
100
AcDbEntity
  8
0
  6
Continuous
 62
     7
370
    25
100
AcDbLine
 10
78.4735532664
 20
-166.8342790341
 30
0.0
 11
81.0891069238
 21
-171.0262231307
 31
0.0
  0
LINE
  5
237
330
1F
100
AcDbEntity
  8
0
  6
Continuous
 62
     7
370
    25
100
AcDbLine
 10
44.4033990854
 20
-112.2300917775
 30
0.0
 11
47.030567276
 21
-116.4406504698
 31
0.0
  0
LINE
  5
238
330
1F
100
AcDbEntity
  8
0
  6
Continuous
 62
     7
370
    25
100
AcDbLine
 10
-71.3445017581
 20
-121.4957951831
 30
0.0
 11
-68.9572473983
 21
-117.0710982279
 31
0.0
  0
LINE
  5
239
330
1F
100
AcDbEntity
  8
0
  6
Continuous
 62
     7
370
    25
100
AcDbLine
 10
-80.881605088
 20
-139.1725005964
 30
0.0
 11
-78.498903021
 21
-134.7562411653
 31
0.0
  0
LINE
  5
23A
330
1F
100
AcDbEntity
  8
0
  6
Continuous
 62
     7
370
    25
100
AcDbLine
 10
54.903970185
 20
-129.0593420233
 30
0.0
 11
57.5261285874
 21
-133.2618715352
 31
0.0
  0
LINE
  5
23B
330
1F
100
AcDbEntity
  8
0
  6
Continuous
 62
     7
370
    25
100
AcDbLine
 10
-109.4203200948
 20
-192.0680644382
 30
0.0
 11
-107.0448843449
 21
-187.6652728853
 31
0.0
  0
LINE
  5
23C
330
1F
100
AcDbEntity
  8
0
  6
Continuous
 62
     7
370
    25
100
AcDbLine
 10
86.3187600656
 20
-179.4077807228
 30
0.0
 11
88.932921902
 21
-183.5974941498
 31
0.0
  0
LINE
  5
23D
330
1F
100
AcDbEntity
  8
0
  6
Continuous
 62
     7
370
    25
100
AcDbLine
 10
107.1323361275
 20
-137.2070203323
 30
0.0
 11
104.5150669085
 21
-133.0123267075
 31
0.0
  0
LINE
  5
23E
330
1F
100
AcDbEntity
  8
0
  6
Continuous
 62
     7
370
    25
100
AcDbLine
 10
182.30924646
 20
11.1766106709
 30
0.0
 11
187.3047750444
 21
11.389942077
 31
0.0
  0
LINE
  5
23F
330
1F
100
AcDbEntity
  8
0
  6
Continuous
 62
     7
370
    25
100
AcDbLine
 10
73.0356506133
 20
-82.5603113459
 30
0.0
 11
70.4031738023
 21
-78.3412445353
 31
0.0
  0
LINE
  5
240
330
1F
100
AcDbEntity
  8
0
  6
Continuous
 62
     7
370
    25
100
AcDbLine
 10
117.2005691246
 20
8.396179042
 30
0.0
 11
122.2251241309
 21
8.610750006
 31
0.0
  0
LINE
  5
241
330
1F
100
AcDbEntity
  8
0
  6
Continuous
 62
     7
370
    25
100
AcDbLine
 10
99.2784913967
 20
-124.6196746429
 30
0.0
 11
96.6590737551
 21
-120.4215377444
 31
0.0
  0
LINE
  5
242
330
1F
100
AcDbEntity
  8
0
  6
Continuous
 62
     7
370
    25
100
AcDbLine
 10
167.3146719349
 20
10.5362752966
 30
0.0
 11
172.3143011698
 21
10.7497818188
 31
0.0
  0
LINE
  5
243
330
1F
100
AcDbEntity
  8
0
  6
Continuous
 62
     7
370
    25
100
AcDbLine
 10
114.9806302191
 20
-149.7854700201
 30
0.0
 11
112.3650765617
 21
-145.5935259235
 31
0.0
  0
LINE
  5
244
330
1F
100
AcDbEntity
  8
0
  6
Continuous
 62
     7
370
    25
100
AcDbLine
 10
197.2924003998
 20
11.8164583352
 30
0.0
 11
202.2846545267
 21
12.0296499072
 31
0.0
  0
LINE
  5
245
330
1F
100
AcDbEntity
  8
0
  6
Continuous
 62
     7
370
    25
100
AcDbLine
 10
132.2633893031
 20
9.0394288109
 30
0.0
 11
137.2778118535
 21
9.2535670737
 31
0.0
  0
LINE
  5
246
330
1F
100
AcDbEntity
  8
0
  6
Continuous
 62
     7
370
    25
100
AcDbLine
 10
80.9220905714
 20
-95.1998973593
 30
0.0
 11
78.2949223808
 21
-90.989338667
 31
0.0
  0
LINE
  5
247
330
1F
100
AcDbEntity
  8
0
  6
Continuous
 62
     7
370
    25
100
AcDbLine
 10
91.4176518827
 20
-112.0211184246
 30
0.0
 11
88.7954934804
 21
-107.8185889127
 31
0.0
  0
LINE
  5
248
330
1F
100
AcDbEntity
  8
0
  6
Continuous
 62
     7
370
    25
100
AcDbLine
 10
152.3056160254
 20
9.8953215025
 30
0.0
 11
157.3104764948
 21
10.1090514217
 31
0.0
  0
LINE
  5
249
330
1F
100
AcDbEntity
  8
0
  6
Continuous
 62
     7
370
    25
100
AcDbLine
 10
122.8244451973
 20
-162.3567410393
 30
0.0
 11
120.210283361
 21
-158.1670276123
 31
0.0
  0
LINE
  5
24A
330
1F
100
AcDbEntity
  8
0
  6
Continuous
 62
     7
370
    25
100
AcDbLine
 10
212.2663872299
 20
12.4559145229
 30
0.0
 11
217.2559848162
 21
12.6689926487
 31
0.0
  0
LINE
  5
24B
330
1F
100
AcDbEntity
  8
0
  6
Continuous
 62
     7
370
    25
100
AcDbLine
 10
-157.8355062932
 20
-231.7214678332
 30
0.0
 11
-158.3544521457
 21
-230.9957380362
 31
0.0
  0
LINE
  5
24C
330
1F
100
AcDbEntity
  8
0
  6
Continuous
 62
     7
370
    25
100
AcDbLine
 10
140.4305170243
 20
-218.9841750635
 30
0.0
 11
-157.8355062932
 21
-231.7214678332
 31
0.0
  0
LINE
  5
24D
330
1F
100
AcDbEntity
  8
0
  6
Continuous
 62
     7
370
    25
100
AcDbLine
 10
120.210283361
 20
-158.1670276123
 30
0.0
 11
120.7292292134
 21
-158.8927574093
 31
0.0
  0
LINE
  5
24E
330
1F
100
AcDbEntity
  8
0
  6
Continuous
 62
     7
370
    25
100
AcDbLine
 10
212.2663872299
 20
12.4559145229
 30
0.0
 11
212.7853330823
 21
11.7301847259
 31
0.0
  0
LINE
  5
24F
330
1F
100
AcDbEntity
  8
0
  6
Continuous
 62
     7
370
    25
100
AcDbLine
 10
112.3650765617
 20
-145.5935259235
 30
0.0
 11
112.8840224142
 21
-146.3192557205
 31
0.0
  0
LINE
  5
250
330
1F
100
AcDbEntity
  8
0
  6
Continuous
 62
     7
370
    25
100
AcDbLine
 10
197.2924003998
 20
11.8164583352
 30
0.0
 11
197.8113462523
 21
11.0907285382
 31
0.0
  0
LINE
  5
251
330
1F
100
AcDbEntity
  8
0
  6
Continuous
 62
     7
370
    25
100
AcDbLine
 10
228.8671152938
 20
180.6611337668
 30
0.0
 11
228.3481694414
 21
181.3868635638
 31
0.0
  0
LINE
  5
252
330
1F
100
AcDbEntity
  8
0
  6
Continuous
 62
     7
370
    25
100
AcDbLine
 10
228.8671152938
 20
180.6611337668
 30
0.0
 11
237.106172421
 21
-115.8885246635
 31
0.0
  0
LINE
  5
253
330
1F
100
AcDbEntity
  8
0
  6
Continuous
 62
     7
370
    25
100
AcDbLine
 10
-107.0448843449
 20
-187.6652728853
 30
0.0
 11
-106.5259384924
 21
-188.3910026823
 31
0.0
  0
LINE
  5
254
330
1F
100
AcDbEntity
  8
0
  6
Continuous
 62
     7
370
    25
100
AcDbLine
 10
104.5150669085
 20
-133.0123267075
 30
0.0
 11
105.034012761
 21
-133.7380565045
 31
0.0
  0
LINE
  5
255
330
1F
100
AcDbEntity
  8
0
  6
Continuous
 62
     7
370
    25
100
AcDbLine
 10
182.30924646
 20
11.1766106709
 30
0.0
 11
182.8281923124
 21
10.4508808739
 31
0.0
  0
LINE
  5
256
330
1F
100
AcDbEntity
  8
0
  6
Continuous
 62
     7
370
    25
100
AcDbLine
 10
120.7292292134
 20
-158.8927574093
 30
0.0
 11
122.8694839959
 21
-162.3229406805
 31
0.0
  0
LINE
  5
257
330
1F
100
AcDbEntity
  8
0
  6
Continuous
 62
     7
370
    25
100
AcDbLine
 10
-99.9161043141
 20
-174.4523150088
 30
0.0
 11
-99.3971584616
 21
-175.1780448058
 31
0.0
  0
LINE
  5
258
330
1F
100
AcDbEntity
  8
0
  6
Continuous
 62
     7
370
    25
100
AcDbLine
 10
96.6590737551
 20
-120.4215377444
 30
0.0
 11
97.1780196076
 21
-121.1472675414
 31
0.0
  0
LINE
  5
259
330
1F
100
AcDbEntity
  8
0
  6
Continuous
 62
     7
370
    25
100
AcDbLine
 10
167.3146719349
 20
10.5362752966
 30
0.0
 11
167.8336177874
 21
9.8105454996
 31
0.0
  0
LINE
  5
25A
330
1F
100
AcDbEntity
  8
0
  6
Continuous
 62
     7
370
    25
100
AcDbLine
 10
112.8840224142
 20
-146.3192557205
 30
0.0
 11
115.0254971927
 21
-149.7513942776
 31
0.0
  0
LINE
  5
25B
330
1F
100
AcDbEntity
  8
0
  6
Continuous
 62
     7
370
    25
100
AcDbLine
 10
-92.7829600274
 20
-161.2312681286
 30
0.0
 11
-92.264014175
 21
-161.9569979256
 31
0.0
  0
LINE
  5
25C
330
1F
100
AcDbEntity
  8
0
  6
Continuous
 62
     7
370
    25
100
AcDbLine
 10
88.7954934804
 20
-107.8185889127
 30
0.0
 11
89.3144393328
 21
-108.5443187097
 31
0.0
  0
LINE
  5
25D
330
1F
100
AcDbEntity
  8
0
  6
Continuous
 62
     7
370
    25
100
AcDbLine
 10
152.3056160254
 20
9.8953215025
 30
0.0
 11
152.8245618778
 21
9.1695917055
 31
0.0
  0
LINE
  5
25E
330
1F
100
AcDbEntity
  8
0
  6
Continuous
 62
     7
370
    25
100
AcDbLine
 10
105.034012761
 20
-133.7380565045
 30
0.0
 11
107.1770057913
 21
-137.1726283616
 31
0.0
  0
LINE
  5
25F
330
1F
100
AcDbEntity
  8
0
  6
Continuous
 62
     7
370
    25
100
AcDbLine
 10
-85.6443786557
 20
-148.0001437912
 30
0.0
 11
-85.1254328033
 21
-148.7258735882
 31
0.0
  0
LINE
  5
260
330
1F
100
AcDbEntity
  8
0
  6
Continuous
 62
     7
370
    25
100
AcDbLine
 10
97.1780196076
 20
-121.1472675414
 30
0.0
 11
99.3229321082
 21
-124.5849157308
 31
0.0
  0
LINE
  5
261
330
1F
100
AcDbEntity
  8
0
  6
Continuous
 62
     7
370
    25
100
AcDbLine
 10
78.2949223808
 20
-90.989338667
 30
0.0
 11
78.8138682332
 21
-91.715068464
 31
0.0
  0
LINE
  5
262
330
1F
100
AcDbEntity
  8
0
  6
Continuous
 62
     7
370
    25
100
AcDbLine
 10
132.2633893031
 20
9.0394288109
 30
0.0
 11
132.7823351556
 21
8.3136990138
 31
0.0
  0
LINE
  5
263
330
1F
100
AcDbEntity
  8
0
  6
Continuous
 62
     7
370
    25
100
AcDbLine
 10
-78.498903021
 20
-134.7562411653
 30
0.0
 11
-77.9799571685
 21
-135.4819709623
 31
0.0
  0
LINE
  5
264
330
1F
100
AcDbEntity
  8
0
  6
Continuous
 62
     7
370
    25
100
AcDbLine
 10
89.3144393328
 20
-108.5443187097
 30
0.0
 11
91.4618236707
 21
-111.9859285092
 31
0.0
  0
LINE
  5
265
330
1F
100
AcDbEntity
  8
0
  6
Continuous
 62
     7
370
    25
100
AcDbLine
 10
70.4031738023
 20
-78.3412445353
 30
0.0
 11
70.9221196548
 21
-79.0669743323
 31
0.0
  0
LINE
  5
266
330
1F
100
AcDbEntity
  8
0
  6
Continuous
 62
     7
370
    25
100
AcDbLine
 10
117.2005691246
 20
8.396179042
 30
0.0
 11
117.7195149771
 21
7.670449245
 31
0.0
  0
LINE
  5
267
330
1F
100
AcDbEntity
  8
0
  6
Continuous
 62
     7
370
    25
100
AcDbLine
 10
-68.9572473983
 20
-117.0710982279
 30
0.0
 11
-68.4383015459
 21
-117.796828025
 31
0.0
  0
LINE
  5
268
330
1F
100
AcDbEntity
  8
0
  6
Continuous
 62
     7
370
    25
100
AcDbLine
 10
78.8138682332
 20
-91.715068464
 30
0.0
 11
80.965820973
 21
-95.1640000346
 31
0.0
  0
LINE
  5
269
330
1F
100
AcDbEntity
  8
0
  6
Continuous
 62
     7
370
    25
100
AcDbLine
 10
217.2113416046
 20
11.9191950788
 30
0.0
 11
212.7853330823
 21
11.7301847259
 31
0.0
  0
LINE
  5
26A
330
1F
100
AcDbEntity
  8
0
  6
Continuous
 62
     7
370
    25
100
AcDbLine
 10
-61.7861757983
 20
-103.7797543275
 30
0.0
 11
-61.2672299458
 21
-104.5054841245
 31
0.0
  0
LINE
  5
26B
330
1F
100
AcDbEntity
  8
0
  6
Continuous
 62
     7
370
    25
100
AcDbLine
 10
70.9221196548
 20
-79.0669743323
 30
0.0
 11
73.0789648804
 21
-82.523747083
 31
0.0
  0
LINE
  5
26C
330
1F
100
AcDbEntity
  8
0
  6
Continuous
 62
     7
370
    25
100
AcDbLine
 10
202.2355150501
 20
11.2796603267
 30
0.0
 11
197.8113462523
 21
11.0907285382
 31
0.0
  0
LINE
  5
26D
330
1F
100
AcDbEntity
  8
0
  6
Continuous
 62
     7
370
    25
100
AcDbLine
 10
187.2504721056
 20
10.6397319935
 30
0.0
 11
182.8281923124
 21
10.4508808739
 31
0.0
  0
LINE
  5
26E
330
1F
100
AcDbEntity
  8
0
  6
Continuous
 62
     7
370
    25
100
AcDbLine
 10
-106.5259384924
 20
-188.3910026823
 30
0.0
 11
-108.6767019229
 21
-192.3773715261
 31
0.0
  0
LINE
  5
26F
330
1F
100
AcDbEntity
  8
0
  6
Continuous
 62
     7
370
    25
100
AcDbLine
 10
172.2540062487
 20
9.9993158509
 30
0.0
 11
167.8336177874
 21
9.8105454996
 31
0.0
  0
LINE
  5
270
330
1F
100
AcDbEntity
  8
0
  6
Continuous
 62
     7
370
    25
100
AcDbLine
 10
-99.3971584616
 20
-175.1780448058
 30
0.0
 11
-101.5468838688
 21
-179.1624897079
 31
0.0
  0
LINE
  5
271
330
1F
100
AcDbEntity
  8
0
  6
Continuous
 62
     7
370
    25
100
AcDbLine
 10
157.2431428081
 20
9.3582848671
 30
0.0
 11
152.8245618778
 21
9.1695917055
 31
0.0
  0
LINE
  5
272
330
1F
100
AcDbEntity
  8
0
  6
Continuous
 62
     7
370
    25
100
AcDbLine
 10
112.2357414879
 20
218.7641105058
 30
0.0
 11
112.7546873404
 21
218.0383807088
 31
0.0
  0
LINE
  5
273
330
1F
100
AcDbEntity
  8
0
  6
Continuous
 62
     7
370
    25
100
AcDbLine
 10
-92.264014175
 20
-161.9569979256
 30
0.0
 11
-94.4126540199
 21
-165.9394307738
 31
0.0
  0
LINE
  5
274
330
1F
100
AcDbEntity
  8
0
  6
Continuous
 62
     7
370
    25
100
AcDbLine
 10
105.1082261766
 20
205.5534967451
 30
0.0
 11
105.6271720291
 21
204.8277669481
 31
0.0
  0
LINE
  5
275
330
1F
100
AcDbEntity
  8
0
  6
Continuous
 62
     7
370
    25
100
AcDbLine
 10
-85.1254328033
 20
-148.7258735882
 30
0.0
 11
-87.2729560734
 21
-152.706236902
 31
0.0
  0
LINE
  5
276
330
1F
100
AcDbEntity
  8
0
  6
Continuous
 62
     7
370
    25
100
AcDbLine
 10
137.1989236252
 20
8.5023070885
 30
0.0
 11
132.7823351556
 21
8.3136990138
 31
0.0
  0
LINE
  5
277
330
1F
100
AcDbEntity
  8
0
  6
Continuous
 62
     7
370
    25
100
AcDbLine
 10
-77.9799571685
 20
-135.4819709623
 30
0.0
 11
-80.1263659695
 21
-139.4602686444
 31
0.0
  0
LINE
  5
278
330
1F
100
AcDbEntity
  8
0
  6
Continuous
 62
     7
370
    25
100
AcDbLine
 10
97.976640786
 20
192.335339227
 30
0.0
 11
98.4955866384
 21
191.60960943
 31
0.0
  0
LINE
  5
279
330
1F
100
AcDbEntity
  8
0
  6
Continuous
 62
     7
370
    25
100
AcDbLine
 10
122.1353401782
 20
7.8590247246
 30
0.0
 11
117.7195149771
 21
7.670449245
 31
0.0
  0
LINE
  5
27A
330
1F
100
AcDbEntity
  8
0
  6
Continuous
 62
     7
370
    25
100
AcDbLine
 10
-68.4383015459
 20
-117.796828025
 30
0.0
 11
-70.5833448433
 21
-121.7725947915
 31
0.0
  0
LINE
  5
27B
330
1F
100
AcDbEntity
  8
0
  6
Continuous
 62
     7
370
    25
100
AcDbLine
 10
90.8400116422
 20
179.1078332794
 30
0.0
 11
91.3589574947
 21
178.3821034824
 31
0.0
  0
LINE
  5
27C
330
1F
100
AcDbEntity
  8
0
  6
Continuous
 62
     7
370
    25
100
AcDbLine
 10
-248.3320867184
 20
-7.2136996916
 30
0.0
 11
-247.8131408659
 21
-7.9394294886
 31
0.0
  0
LINE
  5
27D
330
1F
100
AcDbEntity
  8
0
  6
Continuous
 62
     7
370
    25
100
AcDbLine
 10
-61.2672299458
 20
-104.5054841245
 30
0.0
 11
-63.4115166106
 21
-108.4798484973
 31
0.0
  0
LINE
  5
27E
330
1F
100
AcDbEntity
  8
0
  6
Continuous
 62
     7
370
    25
100
AcDbLine
 10
-233.3607564289
 20
-6.5743569501
 30
0.0
 11
-232.8418105765
 21
-7.3000867471
 31
0.0
  0
LINE
  5
27F
330
1F
100
AcDbEntity
  8
0
  6
Continuous
 62
     7
370
    25
100
AcDbLine
 10
83.6970264811
 20
165.8685466641
 30
0.0
 11
84.2159723336
 21
165.1428168671
 31
0.0
  0
LINE
  5
280
330
1F
100
AcDbEntity
  8
0
  6
Continuous
 62
     7
370
    25
100
AcDbLine
 10
-218.3808769466
 20
-5.9346491199
 30
0.0
 11
-217.8619310942
 21
-6.6603789169
 31
0.0
  0
LINE
  5
281
330
1F
100
AcDbEntity
  8
0
  6
Continuous
 62
     7
370
    25
100
AcDbLine
 10
74.1599231512
 20
148.1918412508
 30
0.0
 11
74.6788690037
 21
147.4661114537
 31
0.0
  0
LINE
  5
282
330
1F
100
AcDbEntity
  8
0
  6
Continuous
 62
     7
370
    25
100
AcDbLine
 10
-203.390403072
 20
-5.2944888617
 30
0.0
 11
-202.8714572196
 21
-6.0202186587
 31
0.0
  0
LINE
  5
283
330
1F
100
AcDbEntity
  8
0
  6
Continuous
 62
     7
370
    25
100
AcDbLine
 10
66.9936753867
 20
134.9094381697
 30
0.0
 11
67.5126212391
 21
134.1837083727
 31
0.0
  0
LINE
  5
284
330
1F
100
AcDbEntity
  8
0
  6
Continuous
 62
     7
370
    25
100
AcDbLine
 10
-188.386578397
 20
-4.6537584646
 30
0.0
 11
-187.8676325445
 21
-5.3794882616
 31
0.0
  0
LINE
  5
285
330
1F
100
AcDbEntity
  8
0
  6
Continuous
 62
     7
370
    25
100
AcDbLine
 10
83.2728934178
 20
28.967510402
 30
0.0
 11
83.7918392702
 21
28.241780605
 31
0.0
  0
LINE
  5
286
330
1F
100
AcDbEntity
  8
0
  6
Continuous
 62
     7
370
    25
100
AcDbLine
 10
-168.3539137558
 20
-3.7982741166
 30
0.0
 11
-167.8349679033
 21
-4.5240039136
 31
0.0
  0
LINE
  5
287
330
1F
100
AcDbEntity
  8
0
  6
Continuous
 62
     7
370
    25
100
AcDbLine
 10
-153.3012260331
 20
-3.1554570489
 30
0.0
 11
-152.7822801806
 21
-3.8811868459
 31
0.0
  0
LINE
  5
288
330
1F
100
AcDbEntity
  8
0
  6
Continuous
 62
     7
370
    25
100
AcDbLine
 10
50.6472014241
 20
96.9023995785
 30
0.0
 11
51.1661472765
 21
96.1766697815
 31
0.0
  0
LINE
  5
289
330
1F
100
AcDbEntity
  8
0
  6
Continuous
 62
     7
370
    25
100
AcDbLine
 10
67.5126212391
 20
134.1837083727
 30
0.0
 11
65.2529669785
 21
129.9955139786
 31
0.0
  0
LINE
  5
28A
330
1F
100
AcDbEntity
  8
0
  6
Continuous
 62
     7
370
    25
100
AcDbLine
 10
74.6788690037
 20
147.4661114537
 30
0.0
 11
72.4300313242
 21
143.297965235
 31
0.0
  0
LINE
  5
28B
330
1F
100
AcDbEntity
  8
0
  6
Continuous
 62
     7
370
    25
100
AcDbLine
 10
84.2159723336
 20
165.1428168671
 30
0.0
 11
81.9779913535
 21
160.9947931814
 31
0.0
  0
LINE
  5
28C
330
1F
100
AcDbEntity
  8
0
  6
Continuous
 62
     7
370
    25
100
AcDbLine
 10
-148.1411911646
 20
-3.6829915942
 30
0.0
 11
-152.7822801806
 21
-3.8811868459
 31
0.0
  0
LINE
  5
28D
330
1F
100
AcDbEntity
  8
0
  6
Continuous
 62
     7
370
    25
100
AcDbLine
 10
91.3589574947
 20
178.3821034824
 30
0.0
 11
89.1272824303
 21
174.2457676028
 31
0.0
  0
LINE
  5
28E
330
1F
100
AcDbEntity
  8
0
  6
Continuous
 62
     7
370
    25
100
AcDbLine
 10
-163.215711958
 20
-4.3267410316
 30
0.0
 11
-167.8349679033
 21
-4.5240039136
 31
0.0
  0
LINE
  5
28F
330
1F
100
AcDbEntity
  8
0
  6
Continuous
 62
     7
370
    25
100
AcDbLine
 10
98.4955866384
 20
191.60960943
 30
0.0
 11
96.269097113
 21
187.4828847752
 31
0.0
  0
LINE
  5
290
330
1F
100
AcDbEntity
  8
0
  6
Continuous
 62
     7
370
    25
100
AcDbLine
 10
105.6271720291
 20
204.8277669481
 30
0.0
 11
103.4050169078
 21
200.7090759679
 31
0.0
  0
LINE
  5
291
330
1F
100
AcDbEntity
  8
0
  6
Continuous
 62
     7
370
    25
100
AcDbLine
 10
-183.2702480287
 20
-5.1831593875
 30
0.0
 11
-187.8676325445
 21
-5.3794882616
 31
0.0
  0
LINE
  5
292
330
1F
100
AcDbEntity
  8
0
  6
Continuous
 62
     7
370
    25
100
AcDbLine
 10
-71.3187701705
 20
148.7963118709
 30
0.0
 11
-70.799824318
 21
148.0705820739
 31
0.0
  0
LINE
  5
293
330
1F
100
AcDbEntity
  8
0
  6
Continuous
 62
     7
370
    25
100
AcDbLine
 10
-21.0706689769
 20
121.2519801549
 30
0.0
 11
-20.5517231244
 21
120.5262503579
 31
0.0
  0
LINE
  5
294
330
1F
100
AcDbEntity
  8
0
  6
Continuous
 62
     7
370
    25
100
AcDbLine
 10
-20.5517231244
 20
120.5262503579
 30
0.0
 11
-20.3668848884
 21
119.7027547267
 31
0.0
  0
LINE
  5
295
330
1F
100
AcDbEntity
  8
0
  6
Continuous
 62
     7
370
    25
100
AcDbLine
 10
112.7546873404
 20
218.0383807088
 30
0.0
 11
110.5362057967
 21
213.9264985831
 31
0.0
  0
LINE
  5
296
330
1F
100
AcDbEntity
  8
0
  6
Continuous
 62
     7
370
    25
100
AcDbLine
 10
-198.2867536871
 20
-5.8244313192
 30
0.0
 11
-202.8714572196
 21
-6.0202186587
 31
0.0
  0
LINE
  5
297
330
1F
100
AcDbEntity
  8
0
  6
Continuous
 62
     7
370
    25
100
AcDbLine
 10
-79.2052101286
 20
161.4358978843
 30
0.0
 11
-78.6862642761
 21
160.7101680873
 31
0.0
  0
LINE
  5
298
330
1F
100
AcDbEntity
  8
0
  6
Continuous
 62
     7
370
    25
100
AcDbLine
 10
-213.2876413893
 20
-6.4650362944
 30
0.0
 11
-217.8619310942
 21
-6.6603789169
 31
0.0
  0
LINE
  5
299
330
1F
100
AcDbEntity
  8
0
  6
Continuous
 62
     7
370
    25
100
AcDbLine
 10
-89.7007714399
 20
178.2571189496
 30
0.0
 11
-89.1818255875
 21
177.5313891526
 31
0.0
  0
LINE
  5
29A
330
1F
100
AcDbEntity
  8
0
  6
Continuous
 62
     7
370
    25
100
AcDbLine
 10
-228.2762146636
 20
-7.1051153885
 30
0.0
 11
-232.8418105765
 21
-7.3000867471
 31
0.0
  0
LINE
  5
29B
330
1F
100
AcDbEntity
  8
0
  6
Continuous
 62
     7
370
    25
100
AcDbLine
 10
-97.5616109539
 20
190.8556751679
 30
0.0
 11
-97.0426651014
 21
190.1299453709
 31
0.0
  0
LINE
  5
29C
330
1F
100
AcDbEntity
  8
0
  6
Continuous
 62
     7
370
    25
100
AcDbLine
 10
-105.4154556847
 20
203.4430208573
 30
0.0
 11
-104.8965098323
 21
202.7172910603
 31
0.0
  0
LINE
  5
29D
330
1F
100
AcDbEntity
  8
0
  6
Continuous
 62
     7
370
    25
100
AcDbLine
 10
-243.2549049487
 20
-7.7447724347
 30
0.0
 11
-247.8131408659
 21
-7.9394294886
 31
0.0
  0
LINE
  5
29E
330
1F
100
AcDbEntity
  8
0
  6
Continuous
 62
     7
370
    25
100
AcDbLine
 10
-113.2637497763
 20
216.0214705451
 30
0.0
 11
-112.7448039239
 21
215.2957407481
 31
0.0
  0
LINE
  5
29F
330
1F
100
AcDbEntity
  8
0
  6
Continuous
 62
     7
370
    25
100
AcDbLine
 10
-121.1075647545
 20
228.5927415643
 30
0.0
 11
-120.588618902
 21
227.8670117673
 31
0.0
  0
LINE
  5
2A0
330
1F
100
AcDbEntity
  8
0
  6
Continuous
 62
     7
370
    25
100
AcDbLine
 10
-70.799824318
 20
148.0705820739
 30
0.0
 11
-68.6343703505
 21
144.6000121049
 31
0.0
  0
LINE
  5
2A1
330
1F
100
AcDbEntity
  8
0
  6
Continuous
 62
     7
370
    25
100
AcDbLine
 10
-78.6862642761
 20
160.7101680873
 30
0.0
 11
-76.5265657711
 21
157.2488223898
 31
0.0
  0
LINE
  5
2A2
330
1F
100
AcDbEntity
  8
0
  6
Continuous
 62
     7
370
    25
100
AcDbLine
 10
-89.1818255875
 20
177.5313891526
 30
0.0
 11
-87.0276070661
 21
174.0788262172
 31
0.0
  0
LINE
  5
2A3
330
1F
100
AcDbEntity
  8
0
  6
Continuous
 62
     7
370
    25
100
AcDbLine
 10
-97.0426651014
 20
190.1299453709
 30
0.0
 11
-94.8914719556
 21
186.6822312005
 31
0.0
  0
LINE
  5
2A4
330
1F
100
AcDbEntity
  8
0
  6
Continuous
 62
     7
370
    25
100
AcDbLine
 10
-104.8965098323
 20
202.7172910603
 30
0.0
 11
-102.7477063269
 21
199.2734067631
 31
0.0
  0
LINE
  5
2A5
330
1F
100
AcDbEntity
  8
0
  6
Continuous
 62
     7
370
    25
100
AcDbLine
 10
-112.7448039239
 20
215.2957407481
 30
0.0
 11
-110.5979230625
 21
211.8549378699
 31
0.0
  0
LINE
  5
2A6
330
1F
100
AcDbEntity
  8
0
  6
Continuous
 62
     7
370
    25
100
AcDbLine
 10
-120.588618902
 20
227.8670117673
 30
0.0
 11
-118.4433096011
 21
224.4287276267
 31
0.0
  0
LINE
  5
2A7
330
1F
100
AcDbEntity
  8
0
  6
Continuous
 62
     8
370
    25
100
AcDbLine
 10
57.6947191162
 20
-42.7573506532
 30
0.0
 11
58.2060857688
 21
-43.4724811727
 31
0.0
  0
ARC
  5
2A8
330
1F
100
AcDbEntity
  8
0
  6
Continuous
 62
     7
370
    25
100
AcDbCircle
 10
135.6721633657
 20
-117.4074857284
 30
0.0
 40
100.9400248579024
100
AcDbArc
 50
272.4070891819
 51
1.2742409707
  0
ARC
  5
2A9
330
1F
100
AcDbEntity
  8
0
  6
Continuous
 62
     7
370
    25
100
AcDbCircle
 10
136.1911092181
 20
-118.1332155254
 30
0.0
 40
100.9400248579024
100
AcDbArc
 50
272.4070891819
 51
1.2742409707
  0
ARC
  5
2AA
330
1F
100
AcDbEntity
  8
0
  6
Continuous
 62
     7
370
    25
100
AcDbCircle
 10
-163.0688120165
 20
-133.6162767
 30
0.0
 40
97.4935109590863
100
AcDbArc
 50
181.6312544309
 51
272.7716542155
  0
ARC
  5
2AB
330
1F
100
AcDbEntity
  8
0
  6
Continuous
 62
     7
370
    25
100
AcDbCircle
 10
-167.8468062182
 20
162.4027331428
 30
0.0
 40
100.9400248579025
100
AcDbArc
 50
92.4070891819
 51
181.2742409707
  0
ARC
  5
2AC
330
1F
100
AcDbEntity
  8
0
  6
Continuous
 62
     7
370
    25
100
AcDbCircle
 10
130.894169164
 20
178.6115241144
 30
0.0
 40
97.49351095908638
100
AcDbArc
 50
1.6312544309
 51
92.7716542155
  0
ARC
  5
2AD
330
1F
100
AcDbEntity
  8
0
  6
Continuous
 62
     7
370
    25
100
AcDbCircle
 10
-11.195982062
 20
25.9790436987
 30
0.0
 40
193.9904079813799
100
AcDbArc
 50
7.3262656793
 51
56.5977428
  0
ARC
  5
2AE
330
1F
100
AcDbEntity
  8
0
  6
Continuous
 62
     7
370
    25
100
AcDbCircle
 10
-11.0767267731
 20
26.0637021519
 30
0.0
 40
198.8438942276069
100
AcDbArc
 50
7.18386552
 51
56.7401429593
  0
ARC
  5
2AF
330
1F
100
AcDbEntity
  8
0
  6
Continuous
 62
     7
370
    25
100
AcDbCircle
 10
-12.7548855455
 20
24.8727851488
 30
0.0
 40
130.9046303632913
100
AcDbArc
 50
10.1475878283
 51
53.776420651
  0
ARC
  5
2B0
330
1F
100
AcDbEntity
  8
0
  6
Continuous
 62
     7
370
    25
100
AcDbCircle
 10
-12.6383431861
 20
24.95581043
 30
0.0
 40
135.7610350398938
100
AcDbArc
 50
9.8372954311
 51
54.0867130481
  0
ARC
  5
2B1
330
1F
100
AcDbEntity
  8
0
  6
Continuous
 62
     7
370
    25
100
AcDbCircle
 10
-11.5516156192
 20
25.726382398
 30
0.0
 40
179.4276645304273
100
AcDbArc
 50
7.7995871741
 51
56.1244213051
  0
ARC
  5
2B2
330
1F
100
AcDbEntity
  8
0
  6
Continuous
 62
     7
370
    25
100
AcDbCircle
 10
-11.4459907878
 20
25.8025445727
 30
0.0
 40
184.2957889876149
100
AcDbArc
 50
7.6354107619
 51
56.2885977174
  0
ARC
  5
2B3
330
1F
100
AcDbEntity
  8
0
  6
Continuous
 62
     7
370
    25
100
AcDbCircle
 10
-10.8403148869
 20
26.2317025435
 30
0.0
 40
208.5531117204608
100
AcDbArc
 50
6.9193160764
 51
57.0046924029
  0
ARC
  5
2B4
330
1F
100
AcDbEntity
  8
0
  6
Continuous
 62
     7
370
    25
100
AcDbCircle
 10
-10.7262222961
 20
26.3131330251
 30
0.0
 40
213.4121070591916
100
AcDbArc
 50
6.7966557154
 51
57.1273527639
  0
ARC
  5
2B5
330
1F
100
AcDbEntity
  8
0
  6
Continuous
 62
     7
370
    25
100
AcDbCircle
 10
-12.389697455
 20
25.1315479987
 30
0.0
 40
145.4568960238912
100
AcDbArc
 50
9.2766286576
 51
54.6473798217
  0
ARC
  5
2B6
330
1F
100
AcDbEntity
  8
0
  6
Continuous
 62
     7
370
    25
100
AcDbCircle
 10
-12.2701997281
 20
25.2163964856
 30
0.0
 40
150.3100999804344
100
AcDbArc
 50
9.0244864832
 51
54.8995219961
  0
ARC
  5
2B7
330
1F
100
AcDbEntity
  8
0
  6
Continuous
 62
     7
370
    25
100
AcDbCircle
 10
-11.9136224285
 20
25.4697148099
 30
0.0
 40
164.8717989084416
100
AcDbArc
 50
8.3580550492
 51
55.5659534301
  0
ARC
  5
2B8
330
1F
100
AcDbEntity
  8
0
  6
Continuous
 62
     7
370
    25
100
AcDbCircle
 10
-11.8001425436
 20
25.5507888597
 30
0.0
 40
169.731501044981
100
AcDbArc
 50
8.1623473742
 51
55.7616611051
  0
ARC
  5
2B9
330
1F
100
AcDbEntity
  8
0
  6
Continuous
 62
     7
370
    25
100
AcDbCircle
 10
-10.4898812347
 20
26.4810771357
 30
0.0
 40
223.1213857290685
100
AcDbArc
 50
6.5663581327
 51
57.3576503466
  0
ARC
  5
2BA
330
1F
100
AcDbEntity
  8
0
  6
Continuous
 62
     7
370
    25
100
AcDbCircle
 10
-10.370982345
 20
26.5655010458
 30
0.0
 40
227.9752491114212
100
AcDbArc
 50
6.4584963667
 51
57.4655121126
  0
ARC
  5
2BB
330
1F
100
AcDbEntity
  8
0
  6
Continuous
 62
     7
370
    25
100
AcDbCircle
 10
-13.2996518096
 20
20.1972180566
 30
0.0
 40
200.1731435601376
100
AcDbArc
 50
68.3324666874
 51
116.5581337265
  0
ARC
  5
2BC
330
1F
100
AcDbEntity
  8
0
  6
Continuous
 62
     7
370
    25
100
AcDbCircle
 10
-13.2330746866
 20
20.1411402111
 30
0.0
 40
205.1759508687862
100
AcDbArc
 50
68.1928109064
 51
116.6977895075
  0
ARC
  5
2BD
330
1F
100
AcDbEntity
  8
0
  6
Continuous
 62
     7
370
    25
100
AcDbCircle
 10
-14.1674692928
 20
20.9302523701
 30
0.0
 40
135.1328271699563
100
AcDbArc
 50
71.0968065065
 51
113.7937939074
  0
ARC
  5
2BE
330
1F
100
AcDbEntity
  8
0
  6
Continuous
 62
     7
370
    25
100
AcDbCircle
 10
-14.1026715937
 20
20.924575667
 30
0.0
 40
140.0887677729689
100
AcDbArc
 50
70.7845123596
 51
114.1060880542
  0
ARC
  5
2BF
330
1F
100
AcDbEntity
  8
0
  6
Continuous
 62
     7
370
    25
100
AcDbCircle
 10
-13.4970578729
 20
20.3085970063
 30
0.0
 40
185.2168468204174
100
AcDbArc
 50
68.8040375855
 51
116.0865628283
  0
ARC
  5
2C0
330
1F
100
AcDbEntity
  8
0
  6
Continuous
 62
     7
370
    25
100
AcDbCircle
 10
-13.4355516099
 20
20.3724959415
 30
0.0
 40
190.1097268945278
100
AcDbArc
 50
68.6262583852
 51
116.2643420286
  0
ARC
  5
2C1
330
1F
100
AcDbEntity
  8
0
  6
Continuous
 62
     7
370
    25
100
AcDbCircle
 10
-13.0991258244
 20
20.0093447012
 30
0.0
 40
215.1994499084479
100
AcDbArc
 50
67.9352449434
 51
116.9553554704
  0
ARC
  5
2C2
330
1F
100
AcDbEntity
  8
0
  6
Continuous
 62
     7
370
    25
100
AcDbCircle
 10
-13.0344798436
 20
19.9975027873
 30
0.0
 40
220.1619914671213
100
AcDbArc
 50
67.8094266327
 51
117.0811737811
  0
ARC
  5
2C3
330
1F
100
AcDbEntity
  8
0
  6
Continuous
 62
     7
370
    25
100
AcDbCircle
 10
-13.9666101748
 20
20.75854631
 30
0.0
 40
150.1445202027847
100
AcDbArc
 50
70.2447812155
 51
114.6458191983
  0
ARC
  5
2C4
330
1F
100
AcDbEntity
  8
0
  6
Continuous
 62
     7
370
    25
100
AcDbCircle
 10
-13.8997854064
 20
20.7023538047
 30
0.0
 40
155.1474425421235
100
AcDbArc
 50
69.9976051293
 51
114.8929952845
  0
ARC
  5
2C5
330
1F
100
AcDbEntity
  8
0
  6
Continuous
 62
     7
370
    25
100
AcDbCircle
 10
-13.6987374379
 20
20.5156906533
 30
0.0
 40
170.1728520738681
100
AcDbArc
 50
69.3463604169
 51
115.544239997
  0
ARC
  5
2C6
330
1F
100
AcDbEntity
  8
0
  6
Continuous
 62
     7
370
    25
100
AcDbCircle
 10
-13.6329661907
 20
20.4812913665
 30
0.0
 40
175.1557100553377
100
AcDbArc
 50
69.1506826276
 51
115.7399177862
  0
ARC
  5
2C7
330
1F
100
AcDbEntity
  8
0
  6
Continuous
 62
     7
370
    25
100
AcDbCircle
 10
-12.900583199
 20
19.8651571979
 30
0.0
 40
230.1859774718545
100
AcDbArc
 50
67.5855236623
 51
117.3050767515
  0
ARC
  5
2C8
330
1F
100
AcDbEntity
  8
0
  6
Continuous
 62
     7
370
    25
100
AcDbCircle
 10
-12.8340894052
 20
19.8092462663
 30
0.0
 40
235.1886335966516
100
AcDbArc
 50
67.4797016026
 51
117.4108988112
  0
ARC
  5
2C9
330
1F
100
AcDbEntity
  8
0
  6
Continuous
 62
     7
370
    25
100
AcDbCircle
 10
-13.9160983
 20
18.6869992634
 30
0.0
 40
201.1377767711647
100
AcDbArc
 50
127.6181120299
 51
175.6855501805
  0
ARC
  5
2CA
330
1F
100
AcDbEntity
  8
0
  6
Continuous
 62
     7
370
    25
100
AcDbCircle
 10
-13.8626699639
 20
18.5951898666
 30
0.0
 40
206.1638925637066
100
AcDbArc
 50
127.4788738449
 51
175.8247883655
  0
ARC
  5
2CB
330
1F
100
AcDbEntity
  8
0
  6
Continuous
 62
     7
370
    25
100
AcDbCircle
 10
-14.6153904557
 20
19.8851731169
 30
0.0
 40
135.7923554221593
100
AcDbArc
 50
130.3737971589
 51
172.9298650515
  0
ARC
  5
2CC
330
1F
100
AcDbEntity
  8
0
  6
Continuous
 62
     7
370
    25
100
AcDbCircle
 10
-14.5204695585
 20
19.7706112982
 30
0.0
 40
140.8624827971114
100
AcDbArc
 50
130.0771225872
 51
173.2265396232
  0
ARC
  5
2CD
330
1F
100
AcDbEntity
  8
0
  6
Continuous
 62
     7
370
    25
100
AcDbCircle
 10
-14.1242748715
 20
18.9883670847
 30
0.0
 40
186.0095095502468
100
AcDbArc
 50
128.07452315
 51
175.2291390604
  0
ARC
  5
2CE
330
1F
100
AcDbEntity
  8
0
  6
Continuous
 62
     7
370
    25
100
AcDbCircle
 10
-13.9793217927
 20
18.8471256923
 30
0.0
 40
191.1309107231255
100
AcDbArc
 50
127.9246682256
 51
175.3789939848
  0
ARC
  5
2CF
330
1F
100
AcDbEntity
  8
0
  6
Continuous
 62
     7
370
    25
100
AcDbCircle
 10
-13.7753333833
 20
18.4221460057
 30
0.0
 40
216.1959116658607
100
AcDbArc
 50
127.2174793046
 51
176.0861829058
  0
ARC
  5
2D0
330
1F
100
AcDbEntity
  8
0
  6
Continuous
 62
     7
370
    25
100
AcDbCircle
 10
-13.6882820923
 20
18.3122373183
 30
0.0
 40
221.2567787789274
100
AcDbArc
 50
127.10101776
 51
176.2026444504
  0
ARC
  5
2D1
330
1F
100
AcDbEntity
  8
0
  6
Continuous
 62
     7
370
    25
100
AcDbCircle
 10
-14.4507118589
 20
19.6064132985
 30
0.0
 40
150.8757744093409
100
AcDbArc
 50
129.5246410315
 51
173.7790211789
  0
ARC
  5
2D2
330
1F
100
AcDbEntity
  8
0
  6
Continuous
 62
     7
370
    25
100
AcDbCircle
 10
-14.3972146858
 20
19.5143285485
 30
0.0
 40
155.9020667083409
100
AcDbArc
 50
129.278219656
 51
174.0254425544
  0
ARC
  5
2D3
330
1F
100
AcDbEntity
  8
0
  6
Continuous
 62
     7
370
    25
100
AcDbCircle
 10
-14.2546257755
 20
19.2479282458
 30
0.0
 40
170.9621361445763
100
AcDbArc
 50
128.6238990926
 51
174.6797631178
  0
ARC
  5
2D4
330
1F
100
AcDbEntity
  8
0
  6
Continuous
 62
     7
370
    25
100
AcDbCircle
 10
-14.1881793944
 20
19.1489775746
 30
0.0
 40
176.0019238541645
100
AcDbArc
 50
128.4336176739
 51
174.8700445365
  0
ARC
  5
2D5
330
1F
100
AcDbEntity
  8
0
  6
Continuous
 62
     7
370
    25
100
AcDbCircle
 10
-13.6014788919
 20
18.1395555258
 30
0.0
 40
231.2882443661803
100
AcDbArc
 50
126.8731493173
 51
176.4305128931
  0
ARC
  5
2D6
330
1F
100
AcDbEntity
  8
0
  6
Continuous
 62
     7
370
    25
100
AcDbCircle
 10
-13.5482511911
 20
18.0479291552
 30
0.0
 40
236.3141259319255
100
AcDbArc
 50
126.7676378687
 51
176.5360243417
  0
ARC
  5
2D7
330
1F
100
AcDbEntity
  8
0
  6
Continuous
 62
     7
370
    25
100
AcDbCircle
 10
-20.9786607905
 20
19.0162037157
 30
0.0
 40
193.9904079813798
100
AcDbArc
 50
187.3262656793
 51
236.5977428
  0
ARC
  5
2D8
330
1F
100
AcDbEntity
  8
0
  6
Continuous
 62
     7
370
    25
100
AcDbCircle
 10
-21.0979160794
 20
18.9315452626
 30
0.0
 40
198.8438942276041
100
AcDbArc
 50
187.18386552
 51
236.7401429593
  0
ARC
  5
2D9
330
1F
100
AcDbEntity
  8
0
  6
Continuous
 62
     7
370
    25
100
AcDbCircle
 10
-19.419757307
 20
20.1224622657
 30
0.0
 40
130.9046303632917
100
AcDbArc
 50
190.1475878283
 51
233.776420651
  0
ARC
  5
2DA
330
1F
100
AcDbEntity
  8
0
  6
Continuous
 62
     7
370
    25
100
AcDbCircle
 10
-19.5362996664
 20
20.0394369845
 30
0.0
 40
135.7610350398943
100
AcDbArc
 50
189.8372954311
 51
234.0867130481
  0
ARC
  5
2DB
330
1F
100
AcDbEntity
  8
0
  6
Continuous
 62
     7
370
    25
100
AcDbCircle
 10
-20.6230272334
 20
19.2688650165
 30
0.0
 40
179.4276645304275
100
AcDbArc
 50
187.7995871741
 51
236.1244213051
  0
ARC
  5
2DC
330
1F
100
AcDbEntity
  8
0
  6
Continuous
 62
     7
370
    25
100
AcDbCircle
 10
-20.7286520648
 20
19.1927028418
 30
0.0
 40
184.2957889876149
100
AcDbArc
 50
187.6354107619
 51
236.2885977174
  0
ARC
  5
2DD
330
1F
100
AcDbEntity
  8
0
  6
Continuous
 62
     7
370
    25
100
AcDbCircle
 10
-21.3343279656
 20
18.763544871
 30
0.0
 40
208.5531117204555
100
AcDbArc
 50
186.9193160764
 51
237.0046924029
  0
ARC
  5
2DE
330
1F
100
AcDbEntity
  8
0
  6
Continuous
 62
     7
370
    25
100
AcDbCircle
 10
-21.4484205565
 20
18.6821143893
 30
0.0
 40
213.4121070591917
100
AcDbArc
 50
186.7966557154
 51
237.1273527639
  0
ARC
  5
2DF
330
1F
100
AcDbEntity
  8
0
  6
Continuous
 62
     7
370
    25
100
AcDbCircle
 10
-19.7849453976
 20
19.8636994157
 30
0.0
 40
145.456896023892
100
AcDbArc
 50
189.2766286576
 51
234.6473798217
  0
ARC
  5
2E0
330
1F
100
AcDbEntity
  8
0
  6
Continuous
 62
     7
370
    25
100
AcDbCircle
 10
-19.9044431244
 20
19.7788509289
 30
0.0
 40
150.3100999804344
100
AcDbArc
 50
189.0244864832
 51
234.8995219961
  0
ARC
  5
2E1
330
1F
100
AcDbEntity
  8
0
  6
Continuous
 62
     7
370
    25
100
AcDbCircle
 10
-20.261020424
 20
19.5255326046
 30
0.0
 40
164.871798908436
100
AcDbArc
 50
188.3580550492
 51
235.5659534301
  0
ARC
  5
2E2
330
1F
100
AcDbEntity
  8
0
  6
Continuous
 62
     7
370
    25
100
AcDbCircle
 10
-20.3745003089
 20
19.4444585548
 30
0.0
 40
169.731501044981
100
AcDbArc
 50
188.1623473742
 51
235.7616611051
  0
ARC
  5
2E3
330
1F
100
AcDbEntity
  8
0
  6
Continuous
 62
     7
370
    25
100
AcDbCircle
 10
-21.6847616178
 20
18.5141702788
 30
0.0
 40
223.1213857290684
100
AcDbArc
 50
186.5663581327
 51
237.3576503466
  0
ARC
  5
2E4
330
1F
100
AcDbEntity
  8
0
  6
Continuous
 62
     7
370
    25
100
AcDbCircle
 10
-21.8036605075
 20
18.4297463687
 30
0.0
 40
227.975249111421
100
AcDbArc
 50
186.4584963667
 51
237.4655121126
  0
ARC
  5
2E5
330
1F
100
AcDbEntity
  8
0
  6
Continuous
 62
     7
370
    25
100
AcDbCircle
 10
-18.8749910429
 20
24.7980293579
 30
0.0
 40
200.1731435601371
100
AcDbArc
 50
248.3324666874
 51
296.5581337265
  0
ARC
  5
2E6
330
1F
100
AcDbEntity
  8
0
  6
Continuous
 62
     7
370
    25
100
AcDbCircle
 10
-18.9415681659
 20
24.8541072034
 30
0.0
 40
205.1759508687869
100
AcDbArc
 50
248.1928109064
 51
296.6977895075
  0
ARC
  5
2E7
330
1F
100
AcDbEntity
  8
0
  6
Continuous
 62
     7
370
    25
100
AcDbCircle
 10
-18.0071735597
 20
24.0649950443
 30
0.0
 40
135.1328271699565
100
AcDbArc
 50
251.0968065065
 51
293.7937939074
  0
ARC
  5
2E8
330
1F
100
AcDbEntity
  8
0
  6
Continuous
 62
     7
370
    25
100
AcDbCircle
 10
-18.0719712589
 20
24.0706717475
 30
0.0
 40
140.0887677729689
100
AcDbArc
 50
250.7845123596
 51
294.1060880542
  0
ARC
  5
2E9
330
1F
100
AcDbEntity
  8
0
  6
Continuous
 62
     7
370
    25
100
AcDbCircle
 10
-18.6775849796
 20
24.6866504081
 30
0.0
 40
185.2168468204165
100
AcDbArc
 50
248.8040375855
 51
296.0865628283
  0
ARC
  5
2EA
330
1F
100
AcDbEntity
  8
0
  6
Continuous
 62
     7
370
    25
100
AcDbCircle
 10
-18.7390912426
 20
24.622751473
 30
0.0
 40
190.1097268945284
100
AcDbArc
 50
248.6262583852
 51
296.2643420286
  0
ARC
  5
2EB
330
1F
100
AcDbEntity
  8
0
  6
Continuous
 62
     7
370
    25
100
AcDbCircle
 10
-19.0755170281
 20
24.9859027133
 30
0.0
 40
215.199449908448
100
AcDbArc
 50
247.9352449434
 51
296.9553554704
  0
ARC
  5
2EC
330
1F
100
AcDbEntity
  8
0
  6
Continuous
 62
     7
370
    25
100
AcDbCircle
 10
-19.140163009
 20
24.9977446272
 30
0.0
 40
220.1619914671219
100
AcDbArc
 50
247.8094266327
 51
297.0811737811
  0
ARC
  5
2ED
330
1F
100
AcDbEntity
  8
0
  6
Continuous
 62
     7
370
    25
100
AcDbCircle
 10
-18.2080326777
 20
24.2367011045
 30
0.0
 40
150.1445202027848
100
AcDbArc
 50
250.2447812155
 51
294.6458191983
  0
ARC
  5
2EE
330
1F
100
AcDbEntity
  8
0
  6
Continuous
 62
     7
370
    25
100
AcDbCircle
 10
-18.2748574461
 20
24.2928936098
 30
0.0
 40
155.147442542124
100
AcDbArc
 50
249.9976051293
 51
294.8929952845
  0
ARC
  5
2EF
330
1F
100
AcDbEntity
  8
0
  6
Continuous
 62
     7
370
    25
100
AcDbCircle
 10
-18.4759054146
 20
24.4795567612
 30
0.0
 40
170.1728520738677
100
AcDbArc
 50
249.3463604169
 51
295.544239997
  0
ARC
  5
2F0
330
1F
100
AcDbEntity
  8
0
  6
Continuous
 62
     7
370
    25
100
AcDbCircle
 10
-18.5416766619
 20
24.513956048
 30
0.0
 40
175.155710055325
100
AcDbArc
 50
249.1506826276
 51
295.7399177862
  0
ARC
  5
2F1
330
1F
100
AcDbEntity
  8
0
  6
Continuous
 62
     7
370
    25
100
AcDbCircle
 10
-19.2740596535
 20
25.1300902166
 30
0.0
 40
230.1859774718542
100
AcDbArc
 50
247.5855236623
 51
297.3050767515
  0
ARC
  5
2F2
330
1F
100
AcDbEntity
  8
0
  6
Continuous
 62
     7
370
    25
100
AcDbCircle
 10
-19.3405534473
 20
25.1860011482
 30
0.0
 40
235.1886335966516
100
AcDbArc
 50
247.4797016026
 51
297.4108988112
  0
ARC
  5
2F3
330
1F
100
AcDbEntity
  8
0
  6
Continuous
 62
     7
370
    25
100
AcDbCircle
 10
-18.2585445525
 20
26.3082481511
 30
0.0
 40
201.1377767711648
100
AcDbArc
 50
307.6181120299
 51
355.6855501805
  0
ARC
  5
2F4
330
1F
100
AcDbEntity
  8
0
  6
Continuous
 62
     7
370
    25
100
AcDbCircle
 10
-18.3119728887
 20
26.4000575479
 30
0.0
 40
206.1638925637067
100
AcDbArc
 50
307.4788738449
 51
355.8247883655
  0
ARC
  5
2F5
330
1F
100
AcDbEntity
  8
0
  6
Continuous
 62
     7
370
    25
100
AcDbCircle
 10
-17.5592523968
 20
25.1100742976
 30
0.0
 40
135.792355422159
100
AcDbArc
 50
310.3737971589
 51
352.9298650515
  0
ARC
  5
2F6
330
1F
100
AcDbEntity
  8
0
  6
Continuous
 62
     7
370
    25
100
AcDbCircle
 10
-17.654173294
 20
25.2246361163
 30
0.0
 40
140.862482797111
100
AcDbArc
 50
310.0771225872
 51
353.2265396232
  0
ARC
  5
2F7
330
1F
100
AcDbEntity
  8
0
  6
Continuous
 62
     7
370
    25
100
AcDbCircle
 10
-18.050367981
 20
26.0068803298
 30
0.0
 40
186.0095095502469
100
AcDbArc
 50
308.07452315
 51
355.2291390604
  0
ARC
  5
2F8
330
1F
100
AcDbEntity
  8
0
  6
Continuous
 62
     7
370
    25
100
AcDbCircle
 10
-18.1953210598
 20
26.1481217222
 30
0.0
 40
191.1309107231256
100
AcDbArc
 50
307.9246682256
 51
355.3789939848
  0
ARC
  5
2F9
330
1F
100
AcDbEntity
  8
0
  6
Continuous
 62
     7
370
    25
100
AcDbCircle
 10
-18.3993094692
 20
26.5731014088
 30
0.0
 40
216.1959116658607
100
AcDbArc
 50
307.2174793046
 51
356.0861829059
  0
ARC
  5
2FA
330
1F
100
AcDbEntity
  8
0
  6
Continuous
 62
     7
370
    25
100
AcDbCircle
 10
-18.4863607602
 20
26.6830100962
 30
0.0
 40
221.2567787789276
100
AcDbArc
 50
307.10101776
 51
356.2026444504
  0
ARC
  5
2FB
330
1F
100
AcDbEntity
  8
0
  6
Continuous
 62
     7
370
    25
100
AcDbCircle
 10
-17.7239309936
 20
25.388834116
 30
0.0
 40
150.8757744093407
100
AcDbArc
 50
309.5246410315
 51
353.7790211789
  0
ARC
  5
2FC
330
1F
100
AcDbEntity
  8
0
  6
Continuous
 62
     7
370
    25
100
AcDbCircle
 10
-17.7774281667
 20
25.480918866
 30
0.0
 40
155.9020667083408
100
AcDbArc
 50
309.278219656
 51
354.0254425544
  0
ARC
  5
2FD
330
1F
100
AcDbEntity
  8
0
  6
Continuous
 62
     7
370
    25
100
AcDbCircle
 10
-17.920017077
 20
25.7473191687
 30
0.0
 40
170.9621361445762
100
AcDbArc
 50
308.6238990926
 51
354.6797631178
  0
ARC
  5
2FE
330
1F
100
AcDbEntity
  8
0
  6
Continuous
 62
     7
370
    25
100
AcDbCircle
 10
-17.9864634581
 20
25.8462698399
 30
0.0
 40
176.0019238541646
100
AcDbArc
 50
308.4336176739
 51
354.8700445365
  0
ARC
  5
2FF
330
1F
100
AcDbEntity
  8
0
  6
Continuous
 62
     7
370
    25
100
AcDbCircle
 10
-18.5731639606
 20
26.8556918887
 30
0.0
 40
231.2882443661803
100
AcDbArc
 50
306.8731493173
 51
356.4305128931
  0
ARC
  5
300
330
1F
100
AcDbEntity
  8
0
  6
Continuous
 62
     7
370
    25
100
AcDbCircle
 10
-18.6263916615
 20
26.9473182593
 30
0.0
 40
236.3141259319256
100
AcDbArc
 50
306.7676378687
 51
356.5360243417
  0
ARC
  5
301
330
1F
100
AcDbEntity
  8
0
  6
Continuous
 62
     7
370
    25
100
AcDbCircle
 10
-18.0542181081
 20
26.1299620917
 30
0.0
 40
231.2882443661787
100
AcDbArc
 50
306.8731493173
 51
356.4305128931
  0
ARC
  5
302
330
1F
100
AcDbEntity
  8
0
  6
Continuous
 62
     7
370
    25
100
AcDbCircle
 10
-17.9136236723
 20
25.8653163917
 30
0.0
 40
216.230319555846
100
AcDbArc
 50
307.2216215995
 51
356.0820406109
  0
ARC
  5
303
330
1F
100
AcDbEntity
  8
0
  6
Continuous
 62
     7
370
    25
100
AcDbCircle
 10
-18.755113801
 20
24.4043604196
 30
0.0
 40
230.1859774718546
100
AcDbArc
 50
247.5855236623
 51
297.3050767515
  0
ARC
  5
304
330
1F
100
AcDbEntity
  8
0
  6
Continuous
 62
     7
370
    25
100
AcDbCircle
 10
-17.7395987
 20
25.5825183541
 30
0.0
 40
201.1377767711679
100
AcDbArc
 50
307.6181120299
 51
355.6855501805
  0
ARC
  5
305
330
1F
100
AcDbEntity
  8
0
  6
Continuous
 62
     7
370
    25
100
AcDbCircle
 10
-18.5547122512
 20
24.2166429431
 30
0.0
 40
215.1598071475309
100
AcDbArc
 50
247.9304316793
 51
296.9601687345
  0
ARC
  5
306
330
1F
100
AcDbEntity
  8
0
  6
Continuous
 62
     7
370
    25
100
AcDbCircle
 10
-17.6215215654
 20
25.3297618333
 30
0.0
 40
186.1033443760356
100
AcDbArc
 50
308.0871302155
 51
355.2165319949
  0
ARC
  5
307
330
1F
100
AcDbEntity
  8
0
  6
Continuous
 62
     7
370
    25
100
AcDbCircle
 10
-18.3560451905
 20
24.0722995609
 30
0.0
 40
200.1731435601365
100
AcDbArc
 50
248.3324666874
 51
296.5581337265
  0
ARC
  5
308
330
1F
100
AcDbEntity
  8
0
  6
Continuous
 62
     7
370
    25
100
AcDbCircle
 10
-17.4316881556
 20
25.0381081079
 30
0.0
 40
170.9941533744572
100
AcDbArc
 50
308.6284590217
 51
354.6752031887
  0
ARC
  5
309
330
1F
100
AcDbEntity
  8
0
  6
Continuous
 62
     7
370
    25
100
AcDbCircle
 10
-18.1536034155
 20
23.8430006017
 30
0.0
 40
185.1087309413261
100
AcDbArc
 50
248.7893877464
 51
296.1012126674
  0
ARC
  5
30A
330
1F
100
AcDbEntity
  8
0
  6
Continuous
 62
     7
370
    25
100
AcDbCircle
 10
-17.2049851411
 20
24.663104319
 30
0.0
 40
150.8757744093367
100
AcDbArc
 50
309.5246410315
 51
353.7790211789
  0
ARC
  5
30B
330
1F
100
AcDbEntity
  8
0
  6
Continuous
 62
     7
370
    25
100
AcDbCircle
 10
-17.9552483635
 20
23.7137562499
 30
0.0
 40
170.1359610128011
100
AcDbArc
 50
249.3410614671
 51
295.5495389467
  0
ARC
  5
30C
330
1F
100
AcDbEntity
  8
0
  6
Continuous
 62
     7
370
    25
100
AcDbCircle
 10
-17.0403065443
 20
24.3843445006
 30
0.0
 40
135.7923554221601
100
AcDbArc
 50
310.3737971589
 51
352.9298650515
  0
ARC
  5
30D
330
1F
100
AcDbEntity
  8
0
  6
Continuous
 62
     7
370
    25
100
AcDbCircle
 10
-17.6890868253
 20
23.5109713075
 30
0.0
 40
150.1445202027846
100
AcDbArc
 50
250.2447812155
 51
294.6458191983
  0
ARC
  5
30E
330
1F
100
AcDbEntity
  8
0
  6
Continuous
 62
     7
370
    25
100
AcDbCircle
 10
-17.4882277073
 20
23.3392652473
 30
0.0
 40
135.1328271699564
100
AcDbArc
 50
251.0968065065
 51
293.7937939074
  0
ARC
  5
30F
330
1F
100
AcDbEntity
  8
0
  6
Continuous
 62
     7
370
    25
100
AcDbCircle
 10
-162.3603948099
 20
-133.8296404938
 30
0.0
 40
97.9963492990113
100
AcDbArc
 50
215.7165305479
 51
272.64651928
  0
ARC
  5
310
330
1F
100
AcDbEntity
  8
0
  6
Continuous
 62
     7
370
    25
100
AcDbCircle
 10
-9.8323958738
 20
25.8266179507
 30
0.0
 40
227.9757765938081
100
AcDbArc
 50
35.6890294749
 51
57.4714514795
  0
ARC
  5
311
330
1F
100
AcDbEntity
  8
0
  6
Continuous
 62
     7
370
    25
100
AcDbCircle
 10
-10.2943115721
 20
25.6498218896
 30
0.0
 40
223.4542888083023
100
AcDbArc
 50
6.7758806627
 51
35.5450932087
  0
ARC
  5
312
330
1F
100
AcDbEntity
  8
0
  6
Continuous
 62
     7
370
    25
100
AcDbCircle
 10
-10.2021260686
 20
25.5627708647
 30
0.0
 40
213.4300005120624
100
AcDbArc
 50
35.6972066634
 51
57.1321031587
  0
ARC
  5
313
330
1F
100
AcDbEntity
  8
0
  6
Continuous
 62
     7
370
    25
100
AcDbCircle
 10
-10.6072764967
 20
25.4106010053
 30
0.0
 40
208.8480060480465
100
AcDbArc
 50
7.1415015863
 51
35.5469813055
  0
ARC
  5
314
330
1F
100
AcDbEntity
  8
0
  6
Continuous
 62
     7
370
    25
100
AcDbCircle
 10
56.6964801237
 20
-45.1526262319
 30
0.0
 40
2.255932838239282
100
AcDbArc
 50
47.7372869194
 51
203.2280444506
  0
ARC
  5
315
330
1F
100
AcDbEntity
  8
0
  6
Continuous
 62
     7
370
    25
100
AcDbCircle
 10
-10.5509825922
 20
25.3208715775
 30
0.0
 40
198.8544658728154
100
AcDbArc
 50
35.7049553036
 51
56.7444831669
  0
ARC
  5
316
330
1F
100
AcDbEntity
  8
0
  6
Continuous
 62
     7
370
    25
100
AcDbCircle
 10
-10.9358962231
 20
25.1653507575
 30
0.0
 40
194.2579660864415
100
AcDbArc
 50
7.563504463
 51
35.547915724
  0
ARC
  5
317
330
1F
100
AcDbEntity
  8
0
  6
Continuous
 62
     7
370
    25
100
AcDbCircle
 10
-10.9009881901
 20
25.0776450697
 30
0.0
 40
184.2806377802204
100
AcDbArc
 50
35.7140560112
 51
56.295193586
  0
ARC
  5
318
330
1F
100
AcDbEntity
  8
0
  6
Continuous
 62
     7
370
    25
100
AcDbCircle
 10
-12.801055901
 20
-77.1073143527
 30
0.0
 40
2.255973380919557
100
AcDbArc
 50
47.907557973
 51
203.2271025239
  0
ARC
  5
319
330
1F
100
AcDbEntity
  8
0
  6
Continuous
 62
     7
370
    25
100
AcDbCircle
 10
-20.9651333812
 20
17.807703464
 30
0.0
 40
228.3044751095852
100
AcDbArc
 50
186.4753312195
 51
215.4339141609
  0
ARC
  5
31A
330
1F
100
AcDbEntity
  8
0
  6
Continuous
 62
     7
370
    25
100
AcDbCircle
 10
-11.3064465721
 20
24.9033676992
 30
0.0
 40
179.7117704803427
100
AcDbArc
 50
8.0578066532
 51
35.5455700249
  0
ARC
  5
31B
330
1F
100
AcDbEntity
  8
0
  6
Continuous
 62
     7
370
    25
100
AcDbCircle
 10
-21.1911403153
 20
17.795090708
 30
0.0
 40
223.1131186098967
100
AcDbArc
 50
215.5764908562
 51
237.157660191
  0
ARC
  5
31C
330
1F
100
AcDbEntity
  8
0
  6
Continuous
 62
     7
370
    25
100
AcDbCircle
 10
-20.6155221914
 20
18.0611003535
 30
0.0
 40
213.7362563835497
100
AcDbArc
 50
186.8145692934
 51
215.425561977
  0
ARC
  5
31D
330
1F
100
AcDbEntity
  8
0
  6
Continuous
 62
     7
370
    25
100
AcDbCircle
 10
-11.2589219678
 20
24.8261288569
 30
0.0
 40
169.7180849998047
100
AcDbArc
 50
35.72542916
 51
55.7676745641
  0
ARC
  5
31E
330
1F
100
AcDbEntity
  8
0
  6
Continuous
 62
     7
370
    25
100
AcDbCircle
 10
-20.8334137928
 20
18.0463430667
 30
0.0
 40
208.550247865936
100
AcDbArc
 50
215.5761145421
 51
236.7892123823
  0
ARC
  5
31F
330
1F
100
AcDbEntity
  8
0
  6
Continuous
 62
     7
370
    25
100
AcDbCircle
 10
-11.6072058187
 20
24.6692719231
 30
0.0
 40
165.0925772885624
100
AcDbArc
 50
8.6337780771
 51
35.5490160959
  0
ARC
  5
320
330
1F
100
AcDbEntity
  8
0
  6
Continuous
 62
     7
370
    25
100
AcDbCircle
 10
-20.3025792182
 20
18.3003265237
 30
0.0
 40
199.1299433278465
100
AcDbArc
 50
187.2009007209
 51
215.4187795487
  0
ARC
  5
321
330
1F
100
AcDbEntity
  8
0
  6
Continuous
 62
     7
370
    25
100
AcDbCircle
 10
-20.4832534566
 20
18.2897776503
 30
0.0
 40
193.9766749934172
100
AcDbArc
 50
215.5751037588
 51
236.3657761755
  0
ARC
  5
322
330
1F
100
AcDbEntity
  8
0
  6
Continuous
 62
     7
370
    25
100
AcDbCircle
 10
-11.7520401138
 20
24.4746811944
 30
0.0
 40
150.3236307707773
100
AcDbArc
 50
35.7454655717
 51
54.9027802891
  0
ARC
  5
323
330
1F
100
AcDbEntity
  8
0
  6
Continuous
 62
     7
370
    25
100
AcDbCircle
 10
-19.9871601687
 20
18.5403685428
 30
0.0
 40
184.526118886908
100
AcDbArc
 50
187.648816785
 51
215.4106842778
  0
ARC
  5
324
330
1F
100
AcDbEntity
  8
0
  6
Continuous
 62
     7
370
    25
100
AcDbCircle
 10
-12.035769065
 20
24.3463655259
 30
0.0
 40
145.6290029686958
100
AcDbArc
 50
9.5854466163
 51
35.5518344467
  0
ARC
  5
325
330
1F
100
AcDbEntity
  8
0
  6
Continuous
 62
     7
370
    25
100
AcDbCircle
 10
-20.131834845
 20
18.5346510064
 30
0.0
 40
179.4049626397011
100
AcDbArc
 50
215.5740687159
 51
235.8731035837
  0
ARC
  5
326
330
1F
100
AcDbEntity
  8
0
  6
Continuous
 62
     7
370
    25
100
AcDbCircle
 10
-12.1027957007
 20
24.2304674532
 30
0.0
 40
135.7509845386094
100
AcDbArc
 50
35.7623221521
 51
54.0922922714
  0
ARC
  5
327
330
1F
100
AcDbEntity
  8
0
  6
Continuous
 62
     7
370
    25
100
AcDbCircle
 10
-19.6689659618
 20
18.7813400628
 30
0.0
 40
169.925092512917
100
AcDbArc
 50
188.1743124629
 51
215.4009106724
  0
ARC
  5
328
330
1F
100
AcDbEntity
  8
0
  6
Continuous
 62
     7
370
    25
100
AcDbCircle
 10
83.8760384162
 20
25.9867003914
 30
0.0
 40
2.256651560627451
100
AcDbArc
 50
92.1382901272
 51
203.1745315311
  0
ARC
  5
329
330
1F
100
AcDbEntity
  8
0
  6
Continuous
 62
     7
370
    25
100
AcDbCircle
 10
-19.7699058847
 20
18.7903579447
 30
0.0
 40
164.8481015498192
100
AcDbArc
 50
215.5737882396
 51
235.2919106658
  0
ARC
  5
32A
330
1F
100
AcDbEntity
  8
0
  6
Continuous
 62
     7
370
    25
100
AcDbCircle
 10
-12.3694057662
 20
24.09925671
 30
0.0
 40
131.0441257403972
100
AcDbArc
 50
10.4877083708
 51
35.5531456678
  0
ARC
  5
32B
330
1F
100
AcDbEntity
  8
0
  6
Continuous
 62
     7
370
    25
100
AcDbCircle
 10
-19.2038958063
 20
19.1189751698
 30
0.0
 40
150.4997875501398
100
AcDbArc
 50
189.0384025155
 51
215.3810032838
  0
ARC
  5
32C
330
1F
100
AcDbEntity
  8
0
  6
Continuous
 62
     7
370
    25
100
AcDbCircle
 10
-19.2972837266
 20
19.1212982464
 30
0.0
 40
145.4250418084725
100
AcDbArc
 50
215.5724021095
 51
234.3354379564
  0
ARC
  5
32D
330
1F
100
AcDbEntity
  8
0
  6
Continuous
 62
     7
370
    25
100
AcDbCircle
 10
-18.8732151697
 20
19.3648949043
 30
0.0
 40
135.9118023161919
100
AcDbArc
 50
189.8481755756
 51
215.3642481685
  0
ARC
  5
32E
330
1F
100
AcDbEntity
  8
0
  6
Continuous
 62
     7
370
    25
100
AcDbCircle
 10
-18.924402031
 20
19.3878177934
 30
0.0
 40
130.8833795316323
100
AcDbArc
 50
215.5729242833
 51
233.4281666723
  0
ARC
  5
32F
330
1F
100
AcDbEntity
  8
0
  6
Continuous
 62
     7
370
    25
100
AcDbCircle
 10
-83.9074197834
 20
-51.1570617179
 30
0.0
 40
2.255973380919594
100
AcDbArc
 50
47.9075579731
 51
203.2271025238
  0
ARC
  5
330
330
1F
100
AcDbEntity
  8
0
  6
Continuous
 62
     7
370
    25
100
AcDbCircle
 10
131.6257625674
 20
178.0481994195
 30
0.0
 40
97.2764519602111
100
AcDbArc
 50
1.5392020981
 51
35.532108771
  0
ARC
  5
331
330
1F
100
AcDbEntity
  8
0
  6
Continuous
 62
     7
370
    25
100
AcDbCircle
 10
52.7869127251
 20
94.6417732347
 30
0.0
 40
2.232215950241358
100
AcDbArc
 50
136.5586941515
 51
203.4769701051
  0
ARC
  5
332
330
1F
100
AcDbEntity
  8
0
  6
Continuous
 62
     7
370
    25
100
AcDbCircle
 10
52.8161157674
 20
94.6487496147
 30
0.0
 40
2.248763228309761
100
AcDbArc
 50
47.8621977094
 51
137.1993907139
  0
ARC
  5
333
330
1F
100
AcDbEntity
  8
0
  6
Continuous
 62
     7
370
    25
100
AcDbCircle
 10
-114.9694160492
 20
17.4968075342
 30
0.0
 40
2.255973380919687
100
AcDbArc
 50
47.9075579733
 51
203.2271025236
  0
ARC
  5
334
330
1F
100
AcDbEntity
  8
0
  6
Continuous
 62
     7
370
    25
100
AcDbCircle
 10
-14.0720948176
 20
19.0808061362
 30
0.0
 40
140.7895624592371
100
AcDbArc
 50
130.0645594882
 51
172.9295721719
  0
ARC
  5
335
330
1F
100
AcDbEntity
  8
0
  6
Continuous
 62
     7
370
    25
100
AcDbCircle
 10
-13.8697544101
 20
18.7816230162
 30
0.0
 40
155.9128568748529
100
AcDbArc
 50
129.2790187937
 51
173.7456221802
  0
ARC
  5
336
330
1F
100
AcDbEntity
  8
0
  6
Continuous
 62
     7
370
    25
100
AcDbCircle
 10
-13.6607659054
 20
18.4162196784
 30
0.0
 40
176.0126927281124
100
AcDbArc
 50
128.4343547261
 51
174.6226405999
  0
ARC
  5
337
330
1F
100
AcDbEntity
  8
0
  6
Continuous
 62
     7
370
    25
100
AcDbCircle
 10
-13.5449598782
 20
18.1646288125
 30
0.0
 40
191.0448245797816
100
AcDbArc
 50
127.9126271077
 51
175.1640778933
  0
ARC
  5
338
330
1F
100
AcDbEntity
  8
0
  6
Continuous
 62
     7
370
    25
100
AcDbCircle
 10
-13.5762221497
 20
20.0826685051
 30
0.0
 40
140.1978839526813
100
AcDbArc
 50
71.1347675305
 51
114.089495397
  0
ARC
  5
339
330
1F
100
AcDbEntity
  8
0
  6
Continuous
 62
     7
370
    25
100
AcDbCircle
 10
-18.2932396164
 20
120.5874900982
 30
0.0
 40
2.259313626247043
100
AcDbArc
 50
48.001813492
 51
181.5532188242
  0
ARC
  5
33A
330
1F
100
AcDbEntity
  8
0
  6
Continuous
 62
     7
370
    25
100
AcDbCircle
 10
-13.3352907225
 20
17.8623331245
 30
0.0
 40
206.1746798168002
100
AcDbArc
 50
127.4795285825
 51
175.6139550118
  0
ARC
  5
33B
330
1F
100
AcDbEntity
  8
0
  6
Continuous
 62
     7
370
    25
100
AcDbCircle
 10
-13.3778249228
 20
19.9641241794
 30
0.0
 40
155.160050033811
100
AcDbArc
 50
70.299311406
 51
114.8920621675
  0
ARC
  5
33C
330
1F
100
AcDbEntity
  8
0
  6
Continuous
 62
     7
370
    25
100
AcDbCircle
 10
-13.1950873583
 20
17.5978269547
 30
0.0
 40
221.2322174817305
100
AcDbArc
 50
127.0974670088
 51
176.0104752365
  0
ARC
  5
33D
330
1F
100
AcDbEntity
  8
0
  6
Continuous
 62
     7
370
    25
100
AcDbCircle
 10
-13.0209110052
 20
17.3150284497
 30
0.0
 40
236.3248949475674
100
AcDbArc
 50
126.7682275302
 51
176.3523051336
  0
ARC
  5
33E
330
1F
100
AcDbEntity
  8
0
  6
Continuous
 62
     7
370
    25
100
AcDbCircle
 10
-87.7913485602
 20
88.6377879052
 30
0.0
 40
2.255973380919535
100
AcDbArc
 50
47.9075579729
 51
203.2271025239
  0
ARC
  5
33F
330
1F
100
AcDbEntity
  8
0
  6
Continuous
 62
     7
370
    25
100
AcDbCircle
 10
-13.1109260141
 20
19.7431126037
 30
0.0
 40
175.1682676120309
100
AcDbArc
 50
69.4174346684
 51
115.7390610944
  0
ARC
  5
340
330
1F
100
AcDbEntity
  8
0
  6
Continuous
 62
     7
370
    25
100
AcDbCircle
 10
-12.9081189538
 20
19.5124721035
 30
0.0
 40
190.2339192668058
100
AcDbArc
 50
68.8865133677
 51
116.2487357061
  0
ARC
  5
341
330
1F
100
AcDbEntity
  8
0
  6
Continuous
 62
     7
370
    25
100
AcDbCircle
 10
-12.7109245302
 20
19.4029761551
 30
0.0
 40
205.1884991578344
100
AcDbArc
 50
68.4201332446
 51
116.6970289189
  0
ARC
  5
342
330
1F
100
AcDbEntity
  8
0
  6
Continuous
 62
     7
370
    25
100
AcDbCircle
 10
-12.510341981
 20
19.2146180327
 30
0.0
 40
220.2152448090957
100
AcDbArc
 50
68.0259695259
 51
117.0756066509
  0
ARC
  5
343
330
1F
100
AcDbEntity
  8
0
  6
Continuous
 62
     7
370
    25
100
AcDbCircle
 10
-12.311872508
 20
19.0711245487
 30
0.0
 40
235.201140152629
100
AcDbArc
 50
67.6777876806
 51
117.4102164651
  0
ENDSEC
  0
SECTION
  2
OBJECTS
  0
DICTIONARY
  5
C
330
0
100
AcDbDictionary
281
     1
  3
ACAD_GROUP
350
D
  3
ACAD_LAYOUT
350
1A
  3
ACAD_MLINESTYLE
350
17
  3
ACAD_PLOTSETTINGS
350
19
  3
ACAD_PLOTSTYLENAME
350
E
  3
ACAD_SCALELIST
350
47
  3
DWGPROPS
350
344
  0
DICTIONARY
  5
D
102
{ACAD_REACTORS
330
C
102
}
330
C
100
AcDbDictionary
281
     1
  0
DICTIONARY
  5
1A
102
{ACAD_REACTORS
330
C
102
}
330
C
100
AcDbDictionary
281
     1
  3
Layout1
350
1E
  3
Layout2
350
26
  3
Model
350
22
  0
DICTIONARY
  5
17
102
{ACAD_REACTORS
330
C
102
}
330
C
100
AcDbDictionary
281
     1
  3
Standard
350
18
  0
DICTIONARY
  5
19
102
{ACAD_REACTORS
330
C
102
}
330
C
100
AcDbDictionary
281
     1
  0
ACDBDICTIONARYWDFLT
  5
E
102
{ACAD_REACTORS
330
C
102
}
330
C
100
AcDbDictionary
281
     1
  3
Normal
350
F
100
AcDbDictionaryWithDefault
340
F
  0
DICTIONARY
  5
47
102
{ACAD_REACTORS
330
C
102
}
330
C
100
AcDbDictionary
281
     1
  3
A0
350
48
  3
A1
350
49
  3
A2
350
4A
  3
A3
350
4B
  3
A4
350
4C
  3
A5
350
4D
  3
A6
350
4E
  3
A7
350
4F
  3
A8
350
50
  3
A9
350
51
  3
B0
350
52
  3
B1
350
53
  3
B2
350
54
  3
B3
350
55
  3
B4
350
56
  3
B5
350
57
  3
B6
350
58
  3
B7
350
59
  3
B8
350
5A
  3
B9
350
5B
  3
C0
350
5C
  3
C1
350
5D
  3
C2
350
5E
  3
C3
350
5F
  3
C4
350
60
  3
C5
350
61
  3
C6
350
62
  3
C7
350
63
  3
C8
350
64
  3
C9
350
65
  3
D0
350
66
  3
D1
350
67
  3
D2
350
68
  0
XRECORD
  5
344
102
{ACAD_REACTORS
330
C
102
}
330
C
100
AcDbXrecord
280
     1
  1
DWGPROPS COOKIE
  2

  3

  4

  6

  7

  8
35516
  9

300
=
301
=
302
=
303
=
304
=
305
=
306
=
307
=
308
=
309
=
 40
0.0
 41
2460681.369573704
 42
2460681.369811886
  1

 90
        0
  0
LAYOUT
  5
1E
102
{ACAD_REACTORS
330
1A
102
}
330
1A
100
AcDbPlotSettings
  1

  2
none_device
  4

  6

 40
0.0
 41
0.0
 42
0.0
 43
0.0
 44
0.0
 45
0.0
 46
0.0
 47
0.0
 48
0.0
 49
0.0
140
0.0
141
0.0
142
1.0
143
1.0
 70
   688
 72
     1
 73
     0
 74
     5
  7

 75
    16
147
1.0
148
0.0
149
0.0
100
AcDbLayout
  1
Layout1
 70
     1
 71
     1
 10
0.0
 20
0.0
 11
420.0
 21
297.0
 12
0.0
 22
0.0
 32
0.0
 14
1.0000000000E+20
 24
1.0000000000E+20
 34
1.0000000000E+20
 15
-1.0000000000E+20
 25
-1.0000000000E+20
 35
-1.0000000000E+20
146
0.0
 13
0.0
 23
0.0
 33
0.0
 16
1.0
 26
0.0
 36
0.0
 17
0.0
 27
1.0
 37
0.0
 76
     0
330
1B
  0
LAYOUT
  5
26
102
{ACAD_REACTORS
330
1A
102
}
330
1A
100
AcDbPlotSettings
  1

  2
none_device
  4

  6

 40
0.0
 41
0.0
 42
0.0
 43
0.0
 44
0.0
 45
0.0
 46
0.0
 47
0.0
 48
0.0
 49
0.0
140
0.0
141
0.0
142
1.0
143
1.0
 70
   688
 72
     1
 73
     0
 74
     5
  7

 75
    16
147
1.0
148
0.0
149
0.0
100
AcDbLayout
  1
Layout2
 70
     1
 71
     2
 10
0.0
 20
0.0
 11
0.0
 21
0.0
 12
0.0
 22
0.0
 32
0.0
 14
0.0
 24
0.0
 34
0.0
 15
0.0
 25
0.0
 35
0.0
146
0.0
 13
0.0
 23
0.0
 33
0.0
 16
1.0
 26
0.0
 36
0.0
 17
0.0
 27
1.0
 37
0.0
 76
     0
330
23
  0
LAYOUT
  5
22
102
{ACAD_REACTORS
330
1A
102
}
330
1A
100
AcDbPlotSettings
  1

  2
none_device
  4
ANSI_A_(11.00_x_8.50_Inches)
  6

 40
6.35
 41
19.05
 42
6.35000508
 43
19.05000254
 44
279.4
 45
215.9
 46
140.0104690607
 47
79.5835296092
 48
0.0
 49
0.0
140
0.0
141
0.0
142
0.0165672101
143
1.0
 70
  1696
 72
     0
 73
     0
 74
     0
  7

 75
     0
147
0.0179189148
148
-1300.4909072572
149
0.0
100
AcDbLayout
  1
Model
 70
     1
 71
     0
 10
0.0
 20
0.0
 11
420.0
 21
297.0
 12
0.0
 22
0.0
 32
0.0
 14
-268.7868310761
 24
-231.8259897928
 34
0.0
 15
237.131134076
 25
276.1050350735
 35
0.0
146
0.0
 13
0.0
 23
0.0
 33
0.0
 16
1.0
 26
0.0
 36
0.0
 17
0.0
 27
1.0
 37
0.0
 76
     0
330
1F
331
29
  0
MLINESTYLE
  5
18
102
{ACAD_REACTORS
330
17
102
}
330
17
100
AcDbMlineStyle
  2
Standard
 70
     0
  3

 62
   256
 51
90.0
 52
90.0
 71
     2
 49
0.5
 62
   256
  6
BYLAYER
 49
-0.5
 62
   256
  6
BYLAYER
  0
ACDBPLACEHOLDER
  5
F
102
{ACAD_REACTORS
330
E
102
}
330
E
  0
SCALE
  5
48
102
{ACAD_REACTORS
330
47
102
}
330
47
100
AcDbScale
 70
     0
300
1:1
140
1.0
141
1.0
290
     1
  0
SCALE
  5
49
102
{ACAD_REACTORS
330
47
102
}
330
47
100
AcDbScale
 70
     0
300
1:2
140
1.0
141
2.0
290
     0
  0
SCALE
  5
4A
102
{ACAD_REACTORS
330
47
102
}
330
47
100
AcDbScale
 70
     0
300
1:4
140
1.0
141
4.0
290
     0
  0
SCALE
  5
4B
102
{ACAD_REACTORS
330
47
102
}
330
47
100
AcDbScale
 70
     0
300
1:5
140
1.0
141
5.0
290
     0
  0
SCALE
  5
4C
102
{ACAD_REACTORS
330
47
102
}
330
47
100
AcDbScale
 70
     0
300
1:8
140
1.0
141
8.0
290
     0
  0
SCALE
  5
4D
102
{ACAD_REACTORS
330
47
102
}
330
47
100
AcDbScale
 70
     0
300
1:10
140
1.0
141
10.0
290
     0
  0
SCALE
  5
4E
102
{ACAD_REACTORS
330
47
102
}
330
47
100
AcDbScale
 70
     0
300
1:16
140
1.0
141
16.0
290
     0
  0
SCALE
  5
4F
102
{ACAD_REACTORS
330
47
102
}
330
47
100
AcDbScale
 70
     0
300
1:20
140
1.0
141
20.0
290
     0
  0
SCALE
  5
50
102
{ACAD_REACTORS
330
47
102
}
330
47
100
AcDbScale
 70
     0
300
1:30
140
1.0
141
30.0
290
     0
  0
SCALE
  5
51
102
{ACAD_REACTORS
330
47
102
}
330
47
100
AcDbScale
 70
     0
300
1:40
140
1.0
141
40.0
290
     0
  0
SCALE
  5
52
102
{ACAD_REACTORS
330
47
102
}
330
47
100
AcDbScale
 70
     0
300
1:50
140
1.0
141
50.0
290
     0
  0
SCALE
  5
53
102
{ACAD_REACTORS
330
47
102
}
330
47
100
AcDbScale
 70
     0
300
1:100
140
1.0
141
100.0
290
     0
  0
SCALE
  5
54
102
{ACAD_REACTORS
330
47
102
}
330
47
100
AcDbScale
 70
     0
300
2:1
140
2.0
141
1.0
290
     0
  0
SCALE
  5
55
102
{ACAD_REACTORS
330
47
102
}
330
47
100
AcDbScale
 70
     0
300
4:1
140
4.0
141
1.0
290
     0
  0
SCALE
  5
56
102
{ACAD_REACTORS
330
47
102
}
330
47
100
AcDbScale
 70
     0
300
8:1
140
8.0
141
1.0
290
     0
  0
SCALE
  5
57
102
{ACAD_REACTORS
330
47
102
}
330
47
100
AcDbScale
 70
     0
300
10:1
140
10.0
141
1.0
290
     0
  0
SCALE
  5
58
102
{ACAD_REACTORS
330
47
102
}
330
47
100
AcDbScale
 70
     0
300
100:1
140
100.0
141
1.0
290
     0
  0
SCALE
  5
59
102
{ACAD_REACTORS
330
47
102
}
330
47
100
AcDbScale
 70
     0
300
1/128" = 1'-0"
140
0.0078125
141
12.0
290
     0
  0
SCALE
  5
5A
102
{ACAD_REACTORS
330
47
102
}
330
47
100
AcDbScale
 70
     0
300
1/64" = 1'-0"
140
0.015625
141
12.0
290
     0
  0
SCALE
  5
5B
102
{ACAD_REACTORS
330
47
102
}
330
47
100
AcDbScale
 70
     0
300
1/32" = 1'-0"
140
0.03125
141
12.0
290
     0
  0
SCALE
  5
5C
102
{ACAD_REACTORS
330
47
102
}
330
47
100
AcDbScale
 70
     0
300
1/16" = 1'-0"
140
0.0625
141
12.0
290
     0
  0
SCALE
  5
5D
102
{ACAD_REACTORS
330
47
102
}
330
47
100
AcDbScale
 70
     0
300
3/32" = 1'-0"
140
0.09375
141
12.0
290
     0
  0
SCALE
  5
5E
102
{ACAD_REACTORS
330
47
102
}
330
47
100
AcDbScale
 70
     0
300
1/8" = 1'-0"
140
0.125
141
12.0
290
     0
  0
SCALE
  5
5F
102
{ACAD_REACTORS
330
47
102
}
330
47
100
AcDbScale
 70
     0
300
3/16" = 1'-0"
140
0.1875
141
12.0
290
     0
  0
SCALE
  5
60
102
{ACAD_REACTORS
330
47
102
}
330
47
100
AcDbScale
 70
     0
300
1/4" = 1'-0"
140
0.25
141
12.0
290
     0
  0
SCALE
  5
61
102
{ACAD_REACTORS
330
47
102
}
330
47
100
AcDbScale
 70
     0
300
3/8" = 1'-0"
140
0.375
141
12.0
290
     0
  0
SCALE
  5
62
102
{ACAD_REACTORS
330
47
102
}
330
47
100
AcDbScale
 70
     0
300
1/2" = 1'-0"
140
0.5
141
12.0
290
     0
  0
SCALE
  5
63
102
{ACAD_REACTORS
330
47
102
}
330
47
100
AcDbScale
 70
     0
300
3/4" = 1'-0"
140
0.75
141
12.0
290
     0
  0
SCALE
  5
64
102
{ACAD_REACTORS
330
47
102
}
330
47
100
AcDbScale
 70
     0
300
1" = 1'-0"
140
1.0
141
12.0
290
     0
  0
SCALE
  5
65
102
{ACAD_REACTORS
330
47
102
}
330
47
100
AcDbScale
 70
     0
300
1-1/2" = 1'-0"
140
1.5
141
12.0
290
     0
  0
SCALE
  5
66
102
{ACAD_REACTORS
330
47
102
}
330
47
100
AcDbScale
 70
     0
300
3" = 1'-0"
140
3.0
141
12.0
290
     0
  0
SCALE
  5
67
102
{ACAD_REACTORS
330
47
102
}
330
47
100
AcDbScale
 70
     0
300
6" = 1'-0"
140
6.0
141
12.0
290
     0
  0
SCALE
  5
68
102
{ACAD_REACTORS
330
47
102
}
330
47
100
AcDbScale
 70
     0
300
1'-0" = 1'-0"
140
12.0
141
12.0
290
     0
  0
ENDSEC
  0
EOF
