ISO-10303-21;
HEADER;
/* Generated by software containing ST-Developer
 * from STEP Tools, Inc. (www.steptools.com) 
 */

FILE_DESCRIPTION(
/* description */ ('',
'CAx-IF Rec.Pracs.---Representation and Presentation of Product Manufa
cturing Information (PMI)---4.0---2014-10-13'),
/* implementation_level */ '2;1');

FILE_NAME(
/* name */ '',
/* time_stamp */ '2025-01-02T16:57:06+08:00',
/* author */ (''),
/* organization */ (''),
/* preprocessor_version */ 'ST-DEVELOPER v20',
/* originating_system */ 'Autodesk Translation Framework v13.20.0.188',

/* authorisation */ '');

FILE_SCHEMA (('AP242_MANAGED_MODEL_BASED_3D_ENGINEERING_MIM_LF { 1 0 10303 442 1 1 4 }'));
ENDSEC;

DATA;
#10=MECHANICAL_DESIGN_GEOMETRIC_PRESENTATION_REPRESENTATION('',(#13),#1800);
#11=SHAPE_REPRESENTATION_RELATIONSHIP('SRR','None',#1807,#12);
#12=ADVANCED_BREP_SHAPE_REPRESENTATION('',(#14),#1799);
#13=STYLED_ITEM('',(#1816),#14);
#14=MANIFOLD_SOLID_BREP('\X2\5B9E4F53\X0\1',#1092);
#15=CONICAL_SURFACE('',#1158,1.55,0.785398163397451);
#16=CONICAL_SURFACE('',#1167,1.55,0.785398163397446);
#17=CONICAL_SURFACE('',#1171,1.55,0.785398163397451);
#18=CONICAL_SURFACE('',#1175,1.55,0.785398163397448);
#19=CONICAL_SURFACE('',#1178,1.55,0.785398163397448);
#20=CONICAL_SURFACE('',#1181,1.55,0.785398163397448);
#21=(
BOUNDED_CURVE()
B_SPLINE_CURVE(2,(#1585,#1586,#1587),.UNSPECIFIED.,.F.,.F.)
B_SPLINE_CURVE_WITH_KNOTS((3,3),(0.,0.454037443389871),.UNSPECIFIED.)
CURVE()
GEOMETRIC_REPRESENTATION_ITEM()
RATIONAL_B_SPLINE_CURVE((1.,1.,1.))
REPRESENTATION_ITEM('')
);
#22=(
BOUNDED_CURVE()
B_SPLINE_CURVE(2,(#1692,#1693,#1694),.UNSPECIFIED.,.F.,.F.)
B_SPLINE_CURVE_WITH_KNOTS((3,3),(0.,0.454037443389897),.UNSPECIFIED.)
CURVE()
GEOMETRIC_REPRESENTATION_ITEM()
RATIONAL_B_SPLINE_CURVE((1.,1.,1.))
REPRESENTATION_ITEM('')
);
#23=FACE_BOUND('',#138,.T.);
#24=FACE_BOUND('',#145,.T.);
#25=FACE_BOUND('',#148,.T.);
#26=FACE_BOUND('',#149,.T.);
#27=FACE_BOUND('',#151,.T.);
#28=FACE_BOUND('',#152,.T.);
#29=FACE_BOUND('',#153,.T.);
#30=FACE_BOUND('',#167,.T.);
#31=FACE_BOUND('',#168,.T.);
#32=FACE_BOUND('',#184,.T.);
#33=FACE_BOUND('',#185,.T.);
#34=FACE_BOUND('',#186,.T.);
#35=PLANE('',#1110);
#36=PLANE('',#1115);
#37=PLANE('',#1120);
#38=PLANE('',#1125);
#39=PLANE('',#1126);
#40=PLANE('',#1127);
#41=PLANE('',#1128);
#42=PLANE('',#1129);
#43=PLANE('',#1130);
#44=PLANE('',#1131);
#45=PLANE('',#1132);
#46=PLANE('',#1133);
#47=PLANE('',#1134);
#48=PLANE('',#1135);
#49=PLANE('',#1136);
#50=PLANE('',#1137);
#51=PLANE('',#1138);
#52=PLANE('',#1143);
#53=PLANE('',#1147);
#54=PLANE('',#1148);
#55=PLANE('',#1149);
#56=PLANE('',#1150);
#57=PLANE('',#1151);
#58=PLANE('',#1152);
#59=PLANE('',#1153);
#60=PLANE('',#1154);
#61=PLANE('',#1155);
#62=PLANE('',#1156);
#63=PLANE('',#1157);
#64=PLANE('',#1161);
#65=PLANE('',#1184);
#66=PLANE('',#1185);
#67=PLANE('',#1186);
#68=PLANE('',#1187);
#69=PLANE('',#1188);
#70=PLANE('',#1189);
#71=PLANE('',#1190);
#72=FACE_OUTER_BOUND('',#125,.T.);
#73=FACE_OUTER_BOUND('',#126,.T.);
#74=FACE_OUTER_BOUND('',#127,.T.);
#75=FACE_OUTER_BOUND('',#128,.T.);
#76=FACE_OUTER_BOUND('',#129,.T.);
#77=FACE_OUTER_BOUND('',#130,.T.);
#78=FACE_OUTER_BOUND('',#131,.T.);
#79=FACE_OUTER_BOUND('',#132,.T.);
#80=FACE_OUTER_BOUND('',#133,.T.);
#81=FACE_OUTER_BOUND('',#134,.T.);
#82=FACE_OUTER_BOUND('',#135,.T.);
#83=FACE_OUTER_BOUND('',#136,.T.);
#84=FACE_OUTER_BOUND('',#137,.T.);
#85=FACE_OUTER_BOUND('',#139,.T.);
#86=FACE_OUTER_BOUND('',#140,.T.);
#87=FACE_OUTER_BOUND('',#141,.T.);
#88=FACE_OUTER_BOUND('',#142,.T.);
#89=FACE_OUTER_BOUND('',#143,.T.);
#90=FACE_OUTER_BOUND('',#144,.T.);
#91=FACE_OUTER_BOUND('',#146,.T.);
#92=FACE_OUTER_BOUND('',#147,.T.);
#93=FACE_OUTER_BOUND('',#150,.T.);
#94=FACE_OUTER_BOUND('',#154,.T.);
#95=FACE_OUTER_BOUND('',#155,.T.);
#96=FACE_OUTER_BOUND('',#156,.T.);
#97=FACE_OUTER_BOUND('',#157,.T.);
#98=FACE_OUTER_BOUND('',#158,.T.);
#99=FACE_OUTER_BOUND('',#159,.T.);
#100=FACE_OUTER_BOUND('',#160,.T.);
#101=FACE_OUTER_BOUND('',#161,.T.);
#102=FACE_OUTER_BOUND('',#162,.T.);
#103=FACE_OUTER_BOUND('',#163,.T.);
#104=FACE_OUTER_BOUND('',#164,.T.);
#105=FACE_OUTER_BOUND('',#165,.T.);
#106=FACE_OUTER_BOUND('',#166,.T.);
#107=FACE_OUTER_BOUND('',#169,.T.);
#108=FACE_OUTER_BOUND('',#170,.T.);
#109=FACE_OUTER_BOUND('',#171,.T.);
#110=FACE_OUTER_BOUND('',#172,.T.);
#111=FACE_OUTER_BOUND('',#173,.T.);
#112=FACE_OUTER_BOUND('',#174,.T.);
#113=FACE_OUTER_BOUND('',#175,.T.);
#114=FACE_OUTER_BOUND('',#176,.T.);
#115=FACE_OUTER_BOUND('',#177,.T.);
#116=FACE_OUTER_BOUND('',#178,.T.);
#117=FACE_OUTER_BOUND('',#179,.T.);
#118=FACE_OUTER_BOUND('',#180,.T.);
#119=FACE_OUTER_BOUND('',#181,.T.);
#120=FACE_OUTER_BOUND('',#182,.T.);
#121=FACE_OUTER_BOUND('',#183,.T.);
#122=FACE_OUTER_BOUND('',#187,.T.);
#123=FACE_OUTER_BOUND('',#188,.T.);
#124=FACE_OUTER_BOUND('',#189,.T.);
#125=EDGE_LOOP('',(#719,#720,#721,#722,#723));
#126=EDGE_LOOP('',(#724,#725,#726,#727));
#127=EDGE_LOOP('',(#728,#729,#730,#731,#732));
#128=EDGE_LOOP('',(#733,#734,#735,#736));
#129=EDGE_LOOP('',(#737,#738,#739,#740,#741));
#130=EDGE_LOOP('',(#742,#743,#744,#745));
#131=EDGE_LOOP('',(#746,#747,#748,#749,#750));
#132=EDGE_LOOP('',(#751,#752,#753,#754));
#133=EDGE_LOOP('',(#755,#756,#757,#758,#759,#760));
#134=EDGE_LOOP('',(#761,#762,#763,#764,#765,#766));
#135=EDGE_LOOP('',(#767,#768,#769,#770,#771,#772));
#136=EDGE_LOOP('',(#773,#774,#775,#776,#777,#778));
#137=EDGE_LOOP('',(#779,#780,#781,#782));
#138=EDGE_LOOP('',(#783,#784,#785,#786));
#139=EDGE_LOOP('',(#787,#788,#789,#790));
#140=EDGE_LOOP('',(#791,#792,#793,#794,#795,#796,#797));
#141=EDGE_LOOP('',(#798,#799,#800,#801,#802,#803,#804,#805,#806,#807,#808,
#809));
#142=EDGE_LOOP('',(#810,#811,#812,#813));
#143=EDGE_LOOP('',(#814,#815,#816,#817,#818));
#144=EDGE_LOOP('',(#819,#820,#821,#822));
#145=EDGE_LOOP('',(#823,#824,#825,#826,#827,#828,#829,#830));
#146=EDGE_LOOP('',(#831,#832,#833,#834,#835));
#147=EDGE_LOOP('',(#836,#837,#838,#839,#840,#841,#842,#843,#844,#845,#846));
#148=EDGE_LOOP('',(#847));
#149=EDGE_LOOP('',(#848));
#150=EDGE_LOOP('',(#849,#850,#851,#852,#853));
#151=EDGE_LOOP('',(#854));
#152=EDGE_LOOP('',(#855));
#153=EDGE_LOOP('',(#856));
#154=EDGE_LOOP('',(#857,#858,#859,#860));
#155=EDGE_LOOP('',(#861,#862,#863,#864,#865,#866,#867,#868));
#156=EDGE_LOOP('',(#869,#870,#871,#872));
#157=EDGE_LOOP('',(#873,#874,#875,#876,#877,#878));
#158=EDGE_LOOP('',(#879,#880,#881,#882));
#159=EDGE_LOOP('',(#883,#884,#885,#886,#887,#888,#889));
#160=EDGE_LOOP('',(#890,#891,#892,#893,#894,#895));
#161=EDGE_LOOP('',(#896,#897,#898,#899,#900));
#162=EDGE_LOOP('',(#901,#902,#903,#904,#905));
#163=EDGE_LOOP('',(#906,#907,#908,#909,#910,#911,#912,#913));
#164=EDGE_LOOP('',(#914,#915,#916,#917,#918));
#165=EDGE_LOOP('',(#919,#920,#921,#922));
#166=EDGE_LOOP('',(#923,#924,#925,#926,#927,#928,#929,#930,#931,#932,#933));
#167=EDGE_LOOP('',(#934));
#168=EDGE_LOOP('',(#935));
#169=EDGE_LOOP('',(#936,#937,#938,#939));
#170=EDGE_LOOP('',(#940,#941,#942,#943,#944,#945));
#171=EDGE_LOOP('',(#946,#947,#948,#949));
#172=EDGE_LOOP('',(#950,#951,#952,#953));
#173=EDGE_LOOP('',(#954,#955,#956,#957));
#174=EDGE_LOOP('',(#958,#959,#960,#961));
#175=EDGE_LOOP('',(#962,#963,#964,#965));
#176=EDGE_LOOP('',(#966,#967,#968,#969,#970,#971));
#177=EDGE_LOOP('',(#972,#973,#974,#975));
#178=EDGE_LOOP('',(#976,#977,#978,#979));
#179=EDGE_LOOP('',(#980,#981,#982,#983));
#180=EDGE_LOOP('',(#984,#985,#986,#987,#988,#989,#990,#991,#992,#993,#994,
#995));
#181=EDGE_LOOP('',(#996,#997,#998,#999,#1000));
#182=EDGE_LOOP('',(#1001,#1002,#1003,#1004));
#183=EDGE_LOOP('',(#1005,#1006,#1007,#1008,#1009));
#184=EDGE_LOOP('',(#1010));
#185=EDGE_LOOP('',(#1011));
#186=EDGE_LOOP('',(#1012));
#187=EDGE_LOOP('',(#1013,#1014,#1015,#1016));
#188=EDGE_LOOP('',(#1017,#1018,#1019,#1020,#1021,#1022));
#189=EDGE_LOOP('',(#1023,#1024,#1025,#1026,#1027,#1028));
#190=CIRCLE('',#1108,1.);
#191=CIRCLE('',#1113,1.);
#192=CIRCLE('',#1118,1.);
#193=CIRCLE('',#1123,1.);
#194=CIRCLE('',#1139,2.05);
#195=CIRCLE('',#1140,2.05);
#196=CIRCLE('',#1141,2.05);
#197=CIRCLE('',#1142,2.05);
#198=CIRCLE('',#1144,1.05);
#199=CIRCLE('',#1145,1.05);
#200=CIRCLE('',#1146,1.05);
#201=CIRCLE('',#1159,2.05);
#202=CIRCLE('',#1160,1.05);
#203=CIRCLE('',#1162,2.05);
#204=CIRCLE('',#1163,2.05);
#205=CIRCLE('',#1164,2.05);
#206=CIRCLE('',#1166,1.05);
#207=CIRCLE('',#1168,1.05);
#208=CIRCLE('',#1170,1.05);
#209=CIRCLE('',#1172,1.05);
#210=CIRCLE('',#1174,1.05);
#211=CIRCLE('',#1176,1.05);
#212=CIRCLE('',#1179,1.05);
#213=CIRCLE('',#1182,1.05);
#214=LINE('',#1490,#335);
#215=LINE('',#1494,#336);
#216=LINE('',#1498,#337);
#217=LINE('',#1500,#338);
#218=LINE('',#1501,#339);
#219=LINE('',#1507,#340);
#220=LINE('',#1511,#341);
#221=LINE('',#1514,#342);
#222=LINE('',#1515,#343);
#223=LINE('',#1522,#344);
#224=LINE('',#1526,#345);
#225=LINE('',#1528,#346);
#226=LINE('',#1529,#347);
#227=LINE('',#1536,#348);
#228=LINE('',#1539,#349);
#229=LINE('',#1540,#350);
#230=LINE('',#1544,#351);
#231=LINE('',#1545,#352);
#232=LINE('',#1546,#353);
#233=LINE('',#1549,#354);
#234=LINE('',#1551,#355);
#235=LINE('',#1552,#356);
#236=LINE('',#1554,#357);
#237=LINE('',#1556,#358);
#238=LINE('',#1560,#359);
#239=LINE('',#1562,#360);
#240=LINE('',#1564,#361);
#241=LINE('',#1565,#362);
#242=LINE('',#1569,#363);
#243=LINE('',#1571,#364);
#244=LINE('',#1573,#365);
#245=LINE('',#1574,#366);
#246=LINE('',#1577,#367);
#247=LINE('',#1579,#368);
#248=LINE('',#1581,#369);
#249=LINE('',#1583,#370);
#250=LINE('',#1588,#371);
#251=LINE('',#1591,#372);
#252=LINE('',#1593,#373);
#253=LINE('',#1595,#374);
#254=LINE('',#1597,#375);
#255=LINE('',#1599,#376);
#256=LINE('',#1600,#377);
#257=LINE('',#1602,#378);
#258=LINE('',#1604,#379);
#259=LINE('',#1606,#380);
#260=LINE('',#1607,#381);
#261=LINE('',#1610,#382);
#262=LINE('',#1612,#383);
#263=LINE('',#1613,#384);
#264=LINE('',#1616,#385);
#265=LINE('',#1618,#386);
#266=LINE('',#1620,#387);
#267=LINE('',#1621,#388);
#268=LINE('',#1624,#389);
#269=LINE('',#1625,#390);
#270=LINE('',#1628,#391);
#271=LINE('',#1630,#392);
#272=LINE('',#1631,#393);
#273=LINE('',#1637,#394);
#274=LINE('',#1639,#395);
#275=LINE('',#1641,#396);
#276=LINE('',#1643,#397);
#277=LINE('',#1644,#398);
#278=LINE('',#1651,#399);
#279=LINE('',#1653,#400);
#280=LINE('',#1655,#401);
#281=LINE('',#1656,#402);
#282=LINE('',#1665,#403);
#283=LINE('',#1666,#404);
#284=LINE('',#1669,#405);
#285=LINE('',#1670,#406);
#286=LINE('',#1672,#407);
#287=LINE('',#1673,#408);
#288=LINE('',#1676,#409);
#289=LINE('',#1677,#410);
#290=LINE('',#1680,#411);
#291=LINE('',#1682,#412);
#292=LINE('',#1683,#413);
#293=LINE('',#1686,#414);
#294=LINE('',#1687,#415);
#295=LINE('',#1690,#416);
#296=LINE('',#1695,#417);
#297=LINE('',#1698,#418);
#298=LINE('',#1700,#419);
#299=LINE('',#1701,#420);
#300=LINE('',#1704,#421);
#301=LINE('',#1706,#422);
#302=LINE('',#1707,#423);
#303=LINE('',#1710,#424);
#304=LINE('',#1712,#425);
#305=LINE('',#1714,#426);
#306=LINE('',#1715,#427);
#307=LINE('',#1718,#428);
#308=LINE('',#1720,#429);
#309=LINE('',#1721,#430);
#310=LINE('',#1722,#431);
#311=LINE('',#1724,#432);
#312=LINE('',#1729,#433);
#313=LINE('',#1732,#434);
#314=LINE('',#1741,#435);
#315=LINE('',#1744,#436);
#316=LINE('',#1749,#437);
#317=LINE('',#1752,#438);
#318=LINE('',#1757,#439);
#319=LINE('',#1760,#440);
#320=LINE('',#1763,#441);
#321=LINE('',#1766,#442);
#322=LINE('',#1769,#443);
#323=LINE('',#1772,#444);
#324=LINE('',#1775,#445);
#325=LINE('',#1778,#446);
#326=LINE('',#1780,#447);
#327=LINE('',#1782,#448);
#328=LINE('',#1783,#449);
#329=LINE('',#1785,#450);
#330=LINE('',#1786,#451);
#331=LINE('',#1788,#452);
#332=LINE('',#1790,#453);
#333=LINE('',#1792,#454);
#334=LINE('',#1794,#455);
#335=VECTOR('',#1197,10.);
#336=VECTOR('',#1200,10.);
#337=VECTOR('',#1205,10.);
#338=VECTOR('',#1206,10.);
#339=VECTOR('',#1207,10.);
#340=VECTOR('',#1212,10.);
#341=VECTOR('',#1215,10.);
#342=VECTOR('',#1220,10.);
#343=VECTOR('',#1221,10.);
#344=VECTOR('',#1228,10.);
#345=VECTOR('',#1233,10.);
#346=VECTOR('',#1234,10.);
#347=VECTOR('',#1235,10.);
#348=VECTOR('',#1242,10.);
#349=VECTOR('',#1247,10.);
#350=VECTOR('',#1248,10.);
#351=VECTOR('',#1251,10.);
#352=VECTOR('',#1252,10.);
#353=VECTOR('',#1253,10.);
#354=VECTOR('',#1256,10.);
#355=VECTOR('',#1257,10.);
#356=VECTOR('',#1258,10.);
#357=VECTOR('',#1261,10.);
#358=VECTOR('',#1264,10.);
#359=VECTOR('',#1267,10.);
#360=VECTOR('',#1268,10.);
#361=VECTOR('',#1269,10.);
#362=VECTOR('',#1270,10.);
#363=VECTOR('',#1273,10.);
#364=VECTOR('',#1274,10.);
#365=VECTOR('',#1275,10.);
#366=VECTOR('',#1276,10.);
#367=VECTOR('',#1279,10.);
#368=VECTOR('',#1280,10.);
#369=VECTOR('',#1281,10.);
#370=VECTOR('',#1282,10.);
#371=VECTOR('',#1283,10.);
#372=VECTOR('',#1286,10.);
#373=VECTOR('',#1287,10.);
#374=VECTOR('',#1288,10.);
#375=VECTOR('',#1289,10.);
#376=VECTOR('',#1290,10.);
#377=VECTOR('',#1291,10.);
#378=VECTOR('',#1292,10.);
#379=VECTOR('',#1293,10.);
#380=VECTOR('',#1294,10.);
#381=VECTOR('',#1295,10.);
#382=VECTOR('',#1298,10.);
#383=VECTOR('',#1299,10.);
#384=VECTOR('',#1300,10.);
#385=VECTOR('',#1303,10.);
#386=VECTOR('',#1304,10.);
#387=VECTOR('',#1305,10.);
#388=VECTOR('',#1306,10.);
#389=VECTOR('',#1309,10.);
#390=VECTOR('',#1310,10.);
#391=VECTOR('',#1313,10.);
#392=VECTOR('',#1314,10.);
#393=VECTOR('',#1315,10.);
#394=VECTOR('',#1322,10.);
#395=VECTOR('',#1323,10.);
#396=VECTOR('',#1324,10.);
#397=VECTOR('',#1325,10.);
#398=VECTOR('',#1326,10.);
#399=VECTOR('',#1333,10.);
#400=VECTOR('',#1334,10.);
#401=VECTOR('',#1335,10.);
#402=VECTOR('',#1336,10.);
#403=VECTOR('',#1345,10.);
#404=VECTOR('',#1346,10.);
#405=VECTOR('',#1349,10.);
#406=VECTOR('',#1350,10.);
#407=VECTOR('',#1351,10.);
#408=VECTOR('',#1352,10.);
#409=VECTOR('',#1355,10.);
#410=VECTOR('',#1356,10.);
#411=VECTOR('',#1359,10.);
#412=VECTOR('',#1360,10.);
#413=VECTOR('',#1361,10.);
#414=VECTOR('',#1364,10.);
#415=VECTOR('',#1365,10.);
#416=VECTOR('',#1368,10.);
#417=VECTOR('',#1369,10.);
#418=VECTOR('',#1372,10.);
#419=VECTOR('',#1373,10.);
#420=VECTOR('',#1374,10.);
#421=VECTOR('',#1377,10.);
#422=VECTOR('',#1378,10.);
#423=VECTOR('',#1379,10.);
#424=VECTOR('',#1382,10.);
#425=VECTOR('',#1383,10.);
#426=VECTOR('',#1384,10.);
#427=VECTOR('',#1385,10.);
#428=VECTOR('',#1388,10.);
#429=VECTOR('',#1389,10.);
#430=VECTOR('',#1390,10.);
#431=VECTOR('',#1391,10.);
#432=VECTOR('',#1394,10.);
#433=VECTOR('',#1399,1.55);
#434=VECTOR('',#1404,10.);
#435=VECTOR('',#1415,1.05);
#436=VECTOR('',#1418,1.55);
#437=VECTOR('',#1425,1.05);
#438=VECTOR('',#1428,1.55);
#439=VECTOR('',#1435,1.05);
#440=VECTOR('',#1438,1.55);
#441=VECTOR('',#1443,1.05);
#442=VECTOR('',#1446,1.55);
#443=VECTOR('',#1451,1.05);
#444=VECTOR('',#1454,1.55);
#445=VECTOR('',#1459,1.05);
#446=VECTOR('',#1462,10.);
#447=VECTOR('',#1463,10.);
#448=VECTOR('',#1464,10.);
#449=VECTOR('',#1465,10.);
#450=VECTOR('',#1466,10.);
#451=VECTOR('',#1467,10.);
#452=VECTOR('',#1470,10.);
#453=VECTOR('',#1473,10.);
#454=VECTOR('',#1476,10.);
#455=VECTOR('',#1479,10.);
#456=ELLIPSE('',#1107,1.41421356237309,1.);
#457=ELLIPSE('',#1109,1.41421356237309,1.);
#458=ELLIPSE('',#1112,1.4142135623731,1.);
#459=ELLIPSE('',#1114,1.41421356237309,1.);
#460=ELLIPSE('',#1117,1.41421356237309,1.);
#461=ELLIPSE('',#1119,1.4142135623731,1.);
#462=ELLIPSE('',#1122,1.4142135623731,1.);
#463=ELLIPSE('',#1124,1.4142135623731,1.);
#464=VERTEX_POINT('',#1486);
#465=VERTEX_POINT('',#1487);
#466=VERTEX_POINT('',#1489);
#467=VERTEX_POINT('',#1491);
#468=VERTEX_POINT('',#1493);
#469=VERTEX_POINT('',#1497);
#470=VERTEX_POINT('',#1499);
#471=VERTEX_POINT('',#1503);
#472=VERTEX_POINT('',#1504);
#473=VERTEX_POINT('',#1506);
#474=VERTEX_POINT('',#1508);
#475=VERTEX_POINT('',#1510);
#476=VERTEX_POINT('',#1517);
#477=VERTEX_POINT('',#1519);
#478=VERTEX_POINT('',#1521);
#479=VERTEX_POINT('',#1525);
#480=VERTEX_POINT('',#1527);
#481=VERTEX_POINT('',#1531);
#482=VERTEX_POINT('',#1533);
#483=VERTEX_POINT('',#1535);
#484=VERTEX_POINT('',#1542);
#485=VERTEX_POINT('',#1543);
#486=VERTEX_POINT('',#1548);
#487=VERTEX_POINT('',#1550);
#488=VERTEX_POINT('',#1558);
#489=VERTEX_POINT('',#1559);
#490=VERTEX_POINT('',#1561);
#491=VERTEX_POINT('',#1563);
#492=VERTEX_POINT('',#1567);
#493=VERTEX_POINT('',#1568);
#494=VERTEX_POINT('',#1570);
#495=VERTEX_POINT('',#1572);
#496=VERTEX_POINT('',#1576);
#497=VERTEX_POINT('',#1578);
#498=VERTEX_POINT('',#1580);
#499=VERTEX_POINT('',#1582);
#500=VERTEX_POINT('',#1584);
#501=VERTEX_POINT('',#1590);
#502=VERTEX_POINT('',#1592);
#503=VERTEX_POINT('',#1594);
#504=VERTEX_POINT('',#1596);
#505=VERTEX_POINT('',#1598);
#506=VERTEX_POINT('',#1601);
#507=VERTEX_POINT('',#1603);
#508=VERTEX_POINT('',#1605);
#509=VERTEX_POINT('',#1609);
#510=VERTEX_POINT('',#1611);
#511=VERTEX_POINT('',#1615);
#512=VERTEX_POINT('',#1617);
#513=VERTEX_POINT('',#1619);
#514=VERTEX_POINT('',#1623);
#515=VERTEX_POINT('',#1627);
#516=VERTEX_POINT('',#1629);
#517=VERTEX_POINT('',#1633);
#518=VERTEX_POINT('',#1636);
#519=VERTEX_POINT('',#1638);
#520=VERTEX_POINT('',#1640);
#521=VERTEX_POINT('',#1642);
#522=VERTEX_POINT('',#1645);
#523=VERTEX_POINT('',#1647);
#524=VERTEX_POINT('',#1650);
#525=VERTEX_POINT('',#1652);
#526=VERTEX_POINT('',#1654);
#527=VERTEX_POINT('',#1657);
#528=VERTEX_POINT('',#1659);
#529=VERTEX_POINT('',#1661);
#530=VERTEX_POINT('',#1664);
#531=VERTEX_POINT('',#1668);
#532=VERTEX_POINT('',#1671);
#533=VERTEX_POINT('',#1675);
#534=VERTEX_POINT('',#1679);
#535=VERTEX_POINT('',#1681);
#536=VERTEX_POINT('',#1685);
#537=VERTEX_POINT('',#1689);
#538=VERTEX_POINT('',#1691);
#539=VERTEX_POINT('',#1697);
#540=VERTEX_POINT('',#1699);
#541=VERTEX_POINT('',#1703);
#542=VERTEX_POINT('',#1705);
#543=VERTEX_POINT('',#1709);
#544=VERTEX_POINT('',#1711);
#545=VERTEX_POINT('',#1713);
#546=VERTEX_POINT('',#1717);
#547=VERTEX_POINT('',#1719);
#548=VERTEX_POINT('',#1726);
#549=VERTEX_POINT('',#1728);
#550=VERTEX_POINT('',#1733);
#551=VERTEX_POINT('',#1736);
#552=VERTEX_POINT('',#1739);
#553=VERTEX_POINT('',#1743);
#554=VERTEX_POINT('',#1747);
#555=VERTEX_POINT('',#1751);
#556=VERTEX_POINT('',#1755);
#557=VERTEX_POINT('',#1759);
#558=VERTEX_POINT('',#1765);
#559=VERTEX_POINT('',#1771);
#560=VERTEX_POINT('',#1777);
#561=VERTEX_POINT('',#1779);
#562=VERTEX_POINT('',#1781);
#563=VERTEX_POINT('',#1784);
#564=EDGE_CURVE('',#464,#465,#456,.T.);
#565=EDGE_CURVE('',#465,#466,#214,.T.);
#566=EDGE_CURVE('',#466,#467,#190,.T.);
#567=EDGE_CURVE('',#467,#468,#215,.T.);
#568=EDGE_CURVE('',#468,#464,#457,.T.);
#569=EDGE_CURVE('',#469,#467,#216,.T.);
#570=EDGE_CURVE('',#470,#469,#217,.T.);
#571=EDGE_CURVE('',#468,#470,#218,.T.);
#572=EDGE_CURVE('',#471,#472,#458,.T.);
#573=EDGE_CURVE('',#472,#473,#219,.T.);
#574=EDGE_CURVE('',#473,#474,#191,.T.);
#575=EDGE_CURVE('',#474,#475,#220,.T.);
#576=EDGE_CURVE('',#475,#471,#459,.T.);
#577=EDGE_CURVE('',#475,#465,#221,.T.);
#578=EDGE_CURVE('',#466,#474,#222,.T.);
#579=EDGE_CURVE('',#476,#470,#460,.T.);
#580=EDGE_CURVE('',#469,#477,#192,.T.);
#581=EDGE_CURVE('',#477,#478,#223,.T.);
#582=EDGE_CURVE('',#478,#476,#461,.T.);
#583=EDGE_CURVE('',#479,#477,#224,.T.);
#584=EDGE_CURVE('',#480,#479,#225,.T.);
#585=EDGE_CURVE('',#478,#480,#226,.T.);
#586=EDGE_CURVE('',#481,#480,#462,.T.);
#587=EDGE_CURVE('',#479,#482,#193,.T.);
#588=EDGE_CURVE('',#482,#483,#227,.T.);
#589=EDGE_CURVE('',#483,#481,#463,.T.);
#590=EDGE_CURVE('',#483,#472,#228,.T.);
#591=EDGE_CURVE('',#473,#482,#229,.T.);
#592=EDGE_CURVE('',#484,#485,#230,.T.);
#593=EDGE_CURVE('',#485,#471,#231,.T.);
#594=EDGE_CURVE('',#464,#484,#232,.T.);
#595=EDGE_CURVE('',#481,#486,#233,.T.);
#596=EDGE_CURVE('',#486,#487,#234,.T.);
#597=EDGE_CURVE('',#476,#487,#235,.T.);
#598=EDGE_CURVE('',#485,#486,#236,.T.);
#599=EDGE_CURVE('',#487,#484,#237,.T.);
#600=EDGE_CURVE('',#488,#489,#238,.F.);
#601=EDGE_CURVE('',#490,#488,#239,.T.);
#602=EDGE_CURVE('',#490,#491,#240,.T.);
#603=EDGE_CURVE('',#491,#489,#241,.F.);
#604=EDGE_CURVE('',#492,#493,#242,.T.);
#605=EDGE_CURVE('',#493,#494,#243,.T.);
#606=EDGE_CURVE('',#494,#495,#244,.T.);
#607=EDGE_CURVE('',#495,#492,#245,.T.);
#608=EDGE_CURVE('',#494,#496,#246,.T.);
#609=EDGE_CURVE('',#497,#496,#247,.T.);
#610=EDGE_CURVE('',#497,#498,#248,.T.);
#611=EDGE_CURVE('',#498,#499,#249,.T.);
#612=EDGE_CURVE('',#499,#500,#21,.T.);
#613=EDGE_CURVE('',#500,#495,#250,.T.);
#614=EDGE_CURVE('',#493,#501,#251,.T.);
#615=EDGE_CURVE('',#502,#501,#252,.T.);
#616=EDGE_CURVE('',#502,#503,#253,.T.);
#617=EDGE_CURVE('',#503,#504,#254,.T.);
#618=EDGE_CURVE('',#504,#505,#255,.T.);
#619=EDGE_CURVE('',#505,#488,#256,.T.);
#620=EDGE_CURVE('',#489,#506,#257,.T.);
#621=EDGE_CURVE('',#506,#507,#258,.T.);
#622=EDGE_CURVE('',#507,#508,#259,.T.);
#623=EDGE_CURVE('',#508,#494,#260,.T.);
#624=EDGE_CURVE('',#509,#502,#261,.T.);
#625=EDGE_CURVE('',#501,#510,#262,.T.);
#626=EDGE_CURVE('',#510,#509,#263,.T.);
#627=EDGE_CURVE('',#501,#511,#264,.T.);
#628=EDGE_CURVE('',#512,#511,#265,.T.);
#629=EDGE_CURVE('',#513,#512,#266,.T.);
#630=EDGE_CURVE('',#513,#510,#267,.T.);
#631=EDGE_CURVE('',#514,#493,#268,.T.);
#632=EDGE_CURVE('',#511,#514,#269,.T.);
#633=EDGE_CURVE('',#492,#515,#270,.T.);
#634=EDGE_CURVE('',#516,#515,#271,.T.);
#635=EDGE_CURVE('',#514,#516,#272,.T.);
#636=EDGE_CURVE('',#517,#500,#194,.T.);
#637=EDGE_CURVE('',#499,#517,#195,.T.);
#638=EDGE_CURVE('',#498,#518,#273,.T.);
#639=EDGE_CURVE('',#519,#518,#274,.T.);
#640=EDGE_CURVE('',#519,#520,#275,.T.);
#641=EDGE_CURVE('',#520,#521,#276,.T.);
#642=EDGE_CURVE('',#515,#521,#277,.T.);
#643=EDGE_CURVE('',#522,#522,#196,.T.);
#644=EDGE_CURVE('',#523,#523,#197,.T.);
#645=EDGE_CURVE('',#524,#507,#278,.T.);
#646=EDGE_CURVE('',#524,#525,#279,.T.);
#647=EDGE_CURVE('',#525,#526,#280,.T.);
#648=EDGE_CURVE('',#526,#508,#281,.T.);
#649=EDGE_CURVE('',#527,#527,#198,.T.);
#650=EDGE_CURVE('',#528,#528,#199,.T.);
#651=EDGE_CURVE('',#529,#529,#200,.T.);
#652=EDGE_CURVE('',#530,#506,#282,.T.);
#653=EDGE_CURVE('',#530,#524,#283,.T.);
#654=EDGE_CURVE('',#531,#502,#284,.T.);
#655=EDGE_CURVE('',#496,#531,#285,.T.);
#656=EDGE_CURVE('',#532,#526,#286,.T.);
#657=EDGE_CURVE('',#503,#532,#287,.T.);
#658=EDGE_CURVE('',#531,#533,#288,.T.);
#659=EDGE_CURVE('',#533,#497,#289,.T.);
#660=EDGE_CURVE('',#534,#533,#290,.T.);
#661=EDGE_CURVE('',#535,#534,#291,.T.);
#662=EDGE_CURVE('',#518,#535,#292,.T.);
#663=EDGE_CURVE('',#535,#536,#293,.T.);
#664=EDGE_CURVE('',#536,#519,#294,.T.);
#665=EDGE_CURVE('',#509,#537,#295,.T.);
#666=EDGE_CURVE('',#537,#538,#22,.T.);
#667=EDGE_CURVE('',#538,#534,#296,.T.);
#668=EDGE_CURVE('',#516,#539,#297,.T.);
#669=EDGE_CURVE('',#539,#540,#298,.T.);
#670=EDGE_CURVE('',#540,#512,#299,.T.);
#671=EDGE_CURVE('',#540,#541,#300,.T.);
#672=EDGE_CURVE('',#541,#542,#301,.T.);
#673=EDGE_CURVE('',#542,#513,#302,.T.);
#674=EDGE_CURVE('',#543,#541,#303,.T.);
#675=EDGE_CURVE('',#544,#543,#304,.T.);
#676=EDGE_CURVE('',#544,#545,#305,.T.);
#677=EDGE_CURVE('',#542,#545,#306,.T.);
#678=EDGE_CURVE('',#546,#539,#307,.T.);
#679=EDGE_CURVE('',#546,#547,#308,.T.);
#680=EDGE_CURVE('',#491,#547,#309,.T.);
#681=EDGE_CURVE('',#543,#490,#310,.T.);
#682=EDGE_CURVE('',#521,#546,#311,.T.);
#683=EDGE_CURVE('',#548,#548,#201,.T.);
#684=EDGE_CURVE('',#548,#549,#312,.T.);
#685=EDGE_CURVE('',#549,#549,#202,.T.);
#686=EDGE_CURVE('',#545,#536,#313,.T.);
#687=EDGE_CURVE('',#550,#538,#203,.T.);
#688=EDGE_CURVE('',#537,#550,#204,.T.);
#689=EDGE_CURVE('',#551,#551,#205,.T.);
#690=EDGE_CURVE('',#552,#552,#206,.T.);
#691=EDGE_CURVE('',#552,#549,#314,.T.);
#692=EDGE_CURVE('',#550,#553,#315,.T.);
#693=EDGE_CURVE('',#553,#553,#207,.T.);
#694=EDGE_CURVE('',#554,#554,#208,.T.);
#695=EDGE_CURVE('',#554,#553,#316,.T.);
#696=EDGE_CURVE('',#551,#555,#317,.T.);
#697=EDGE_CURVE('',#555,#555,#209,.T.);
#698=EDGE_CURVE('',#556,#556,#210,.T.);
#699=EDGE_CURVE('',#556,#555,#318,.T.);
#700=EDGE_CURVE('',#522,#557,#319,.T.);
#701=EDGE_CURVE('',#557,#557,#211,.T.);
#702=EDGE_CURVE('',#557,#528,#320,.T.);
#703=EDGE_CURVE('',#517,#558,#321,.T.);
#704=EDGE_CURVE('',#558,#558,#212,.T.);
#705=EDGE_CURVE('',#558,#529,#322,.T.);
#706=EDGE_CURVE('',#523,#559,#323,.T.);
#707=EDGE_CURVE('',#559,#559,#213,.T.);
#708=EDGE_CURVE('',#559,#527,#324,.T.);
#709=EDGE_CURVE('',#560,#544,#325,.T.);
#710=EDGE_CURVE('',#561,#560,#326,.T.);
#711=EDGE_CURVE('',#562,#561,#327,.T.);
#712=EDGE_CURVE('',#525,#562,#328,.T.);
#713=EDGE_CURVE('',#563,#530,#329,.T.);
#714=EDGE_CURVE('',#520,#563,#330,.T.);
#715=EDGE_CURVE('',#547,#563,#331,.T.);
#716=EDGE_CURVE('',#562,#532,#332,.T.);
#717=EDGE_CURVE('',#561,#504,#333,.T.);
#718=EDGE_CURVE('',#560,#505,#334,.T.);
#719=ORIENTED_EDGE('',*,*,#564,.T.);
#720=ORIENTED_EDGE('',*,*,#565,.T.);
#721=ORIENTED_EDGE('',*,*,#566,.T.);
#722=ORIENTED_EDGE('',*,*,#567,.T.);
#723=ORIENTED_EDGE('',*,*,#568,.T.);
#724=ORIENTED_EDGE('',*,*,#567,.F.);
#725=ORIENTED_EDGE('',*,*,#569,.F.);
#726=ORIENTED_EDGE('',*,*,#570,.F.);
#727=ORIENTED_EDGE('',*,*,#571,.F.);
#728=ORIENTED_EDGE('',*,*,#572,.T.);
#729=ORIENTED_EDGE('',*,*,#573,.T.);
#730=ORIENTED_EDGE('',*,*,#574,.T.);
#731=ORIENTED_EDGE('',*,*,#575,.T.);
#732=ORIENTED_EDGE('',*,*,#576,.T.);
#733=ORIENTED_EDGE('',*,*,#565,.F.);
#734=ORIENTED_EDGE('',*,*,#577,.F.);
#735=ORIENTED_EDGE('',*,*,#575,.F.);
#736=ORIENTED_EDGE('',*,*,#578,.F.);
#737=ORIENTED_EDGE('',*,*,#579,.T.);
#738=ORIENTED_EDGE('',*,*,#570,.T.);
#739=ORIENTED_EDGE('',*,*,#580,.T.);
#740=ORIENTED_EDGE('',*,*,#581,.T.);
#741=ORIENTED_EDGE('',*,*,#582,.T.);
#742=ORIENTED_EDGE('',*,*,#581,.F.);
#743=ORIENTED_EDGE('',*,*,#583,.F.);
#744=ORIENTED_EDGE('',*,*,#584,.F.);
#745=ORIENTED_EDGE('',*,*,#585,.F.);
#746=ORIENTED_EDGE('',*,*,#586,.T.);
#747=ORIENTED_EDGE('',*,*,#584,.T.);
#748=ORIENTED_EDGE('',*,*,#587,.T.);
#749=ORIENTED_EDGE('',*,*,#588,.T.);
#750=ORIENTED_EDGE('',*,*,#589,.T.);
#751=ORIENTED_EDGE('',*,*,#573,.F.);
#752=ORIENTED_EDGE('',*,*,#590,.F.);
#753=ORIENTED_EDGE('',*,*,#588,.F.);
#754=ORIENTED_EDGE('',*,*,#591,.F.);
#755=ORIENTED_EDGE('',*,*,#592,.T.);
#756=ORIENTED_EDGE('',*,*,#593,.T.);
#757=ORIENTED_EDGE('',*,*,#576,.F.);
#758=ORIENTED_EDGE('',*,*,#577,.T.);
#759=ORIENTED_EDGE('',*,*,#564,.F.);
#760=ORIENTED_EDGE('',*,*,#594,.T.);
#761=ORIENTED_EDGE('',*,*,#585,.T.);
#762=ORIENTED_EDGE('',*,*,#586,.F.);
#763=ORIENTED_EDGE('',*,*,#595,.T.);
#764=ORIENTED_EDGE('',*,*,#596,.T.);
#765=ORIENTED_EDGE('',*,*,#597,.F.);
#766=ORIENTED_EDGE('',*,*,#582,.F.);
#767=ORIENTED_EDGE('',*,*,#598,.T.);
#768=ORIENTED_EDGE('',*,*,#595,.F.);
#769=ORIENTED_EDGE('',*,*,#589,.F.);
#770=ORIENTED_EDGE('',*,*,#590,.T.);
#771=ORIENTED_EDGE('',*,*,#572,.F.);
#772=ORIENTED_EDGE('',*,*,#593,.F.);
#773=ORIENTED_EDGE('',*,*,#599,.T.);
#774=ORIENTED_EDGE('',*,*,#594,.F.);
#775=ORIENTED_EDGE('',*,*,#568,.F.);
#776=ORIENTED_EDGE('',*,*,#571,.T.);
#777=ORIENTED_EDGE('',*,*,#579,.F.);
#778=ORIENTED_EDGE('',*,*,#597,.T.);
#779=ORIENTED_EDGE('',*,*,#600,.F.);
#780=ORIENTED_EDGE('',*,*,#601,.F.);
#781=ORIENTED_EDGE('',*,*,#602,.T.);
#782=ORIENTED_EDGE('',*,*,#603,.T.);
#783=ORIENTED_EDGE('',*,*,#596,.F.);
#784=ORIENTED_EDGE('',*,*,#598,.F.);
#785=ORIENTED_EDGE('',*,*,#592,.F.);
#786=ORIENTED_EDGE('',*,*,#599,.F.);
#787=ORIENTED_EDGE('',*,*,#604,.T.);
#788=ORIENTED_EDGE('',*,*,#605,.T.);
#789=ORIENTED_EDGE('',*,*,#606,.T.);
#790=ORIENTED_EDGE('',*,*,#607,.T.);
#791=ORIENTED_EDGE('',*,*,#606,.F.);
#792=ORIENTED_EDGE('',*,*,#608,.T.);
#793=ORIENTED_EDGE('',*,*,#609,.F.);
#794=ORIENTED_EDGE('',*,*,#610,.T.);
#795=ORIENTED_EDGE('',*,*,#611,.T.);
#796=ORIENTED_EDGE('',*,*,#612,.T.);
#797=ORIENTED_EDGE('',*,*,#613,.T.);
#798=ORIENTED_EDGE('',*,*,#605,.F.);
#799=ORIENTED_EDGE('',*,*,#614,.T.);
#800=ORIENTED_EDGE('',*,*,#615,.F.);
#801=ORIENTED_EDGE('',*,*,#616,.T.);
#802=ORIENTED_EDGE('',*,*,#617,.T.);
#803=ORIENTED_EDGE('',*,*,#618,.T.);
#804=ORIENTED_EDGE('',*,*,#619,.T.);
#805=ORIENTED_EDGE('',*,*,#600,.T.);
#806=ORIENTED_EDGE('',*,*,#620,.T.);
#807=ORIENTED_EDGE('',*,*,#621,.T.);
#808=ORIENTED_EDGE('',*,*,#622,.T.);
#809=ORIENTED_EDGE('',*,*,#623,.T.);
#810=ORIENTED_EDGE('',*,*,#624,.T.);
#811=ORIENTED_EDGE('',*,*,#615,.T.);
#812=ORIENTED_EDGE('',*,*,#625,.T.);
#813=ORIENTED_EDGE('',*,*,#626,.T.);
#814=ORIENTED_EDGE('',*,*,#625,.F.);
#815=ORIENTED_EDGE('',*,*,#627,.T.);
#816=ORIENTED_EDGE('',*,*,#628,.F.);
#817=ORIENTED_EDGE('',*,*,#629,.F.);
#818=ORIENTED_EDGE('',*,*,#630,.T.);
#819=ORIENTED_EDGE('',*,*,#614,.F.);
#820=ORIENTED_EDGE('',*,*,#631,.F.);
#821=ORIENTED_EDGE('',*,*,#632,.F.);
#822=ORIENTED_EDGE('',*,*,#627,.F.);
#823=ORIENTED_EDGE('',*,*,#578,.T.);
#824=ORIENTED_EDGE('',*,*,#574,.F.);
#825=ORIENTED_EDGE('',*,*,#591,.T.);
#826=ORIENTED_EDGE('',*,*,#587,.F.);
#827=ORIENTED_EDGE('',*,*,#583,.T.);
#828=ORIENTED_EDGE('',*,*,#580,.F.);
#829=ORIENTED_EDGE('',*,*,#569,.T.);
#830=ORIENTED_EDGE('',*,*,#566,.F.);
#831=ORIENTED_EDGE('',*,*,#604,.F.);
#832=ORIENTED_EDGE('',*,*,#633,.T.);
#833=ORIENTED_EDGE('',*,*,#634,.F.);
#834=ORIENTED_EDGE('',*,*,#635,.F.);
#835=ORIENTED_EDGE('',*,*,#631,.T.);
#836=ORIENTED_EDGE('',*,*,#607,.F.);
#837=ORIENTED_EDGE('',*,*,#613,.F.);
#838=ORIENTED_EDGE('',*,*,#636,.F.);
#839=ORIENTED_EDGE('',*,*,#637,.F.);
#840=ORIENTED_EDGE('',*,*,#611,.F.);
#841=ORIENTED_EDGE('',*,*,#638,.T.);
#842=ORIENTED_EDGE('',*,*,#639,.F.);
#843=ORIENTED_EDGE('',*,*,#640,.T.);
#844=ORIENTED_EDGE('',*,*,#641,.T.);
#845=ORIENTED_EDGE('',*,*,#642,.F.);
#846=ORIENTED_EDGE('',*,*,#633,.F.);
#847=ORIENTED_EDGE('',*,*,#643,.F.);
#848=ORIENTED_EDGE('',*,*,#644,.F.);
#849=ORIENTED_EDGE('',*,*,#622,.F.);
#850=ORIENTED_EDGE('',*,*,#645,.F.);
#851=ORIENTED_EDGE('',*,*,#646,.T.);
#852=ORIENTED_EDGE('',*,*,#647,.T.);
#853=ORIENTED_EDGE('',*,*,#648,.T.);
#854=ORIENTED_EDGE('',*,*,#649,.T.);
#855=ORIENTED_EDGE('',*,*,#650,.T.);
#856=ORIENTED_EDGE('',*,*,#651,.T.);
#857=ORIENTED_EDGE('',*,*,#621,.F.);
#858=ORIENTED_EDGE('',*,*,#652,.F.);
#859=ORIENTED_EDGE('',*,*,#653,.T.);
#860=ORIENTED_EDGE('',*,*,#645,.T.);
#861=ORIENTED_EDGE('',*,*,#616,.F.);
#862=ORIENTED_EDGE('',*,*,#654,.F.);
#863=ORIENTED_EDGE('',*,*,#655,.F.);
#864=ORIENTED_EDGE('',*,*,#608,.F.);
#865=ORIENTED_EDGE('',*,*,#623,.F.);
#866=ORIENTED_EDGE('',*,*,#648,.F.);
#867=ORIENTED_EDGE('',*,*,#656,.F.);
#868=ORIENTED_EDGE('',*,*,#657,.F.);
#869=ORIENTED_EDGE('',*,*,#609,.T.);
#870=ORIENTED_EDGE('',*,*,#655,.T.);
#871=ORIENTED_EDGE('',*,*,#658,.T.);
#872=ORIENTED_EDGE('',*,*,#659,.T.);
#873=ORIENTED_EDGE('',*,*,#659,.F.);
#874=ORIENTED_EDGE('',*,*,#660,.F.);
#875=ORIENTED_EDGE('',*,*,#661,.F.);
#876=ORIENTED_EDGE('',*,*,#662,.F.);
#877=ORIENTED_EDGE('',*,*,#638,.F.);
#878=ORIENTED_EDGE('',*,*,#610,.F.);
#879=ORIENTED_EDGE('',*,*,#639,.T.);
#880=ORIENTED_EDGE('',*,*,#662,.T.);
#881=ORIENTED_EDGE('',*,*,#663,.T.);
#882=ORIENTED_EDGE('',*,*,#664,.T.);
#883=ORIENTED_EDGE('',*,*,#624,.F.);
#884=ORIENTED_EDGE('',*,*,#665,.T.);
#885=ORIENTED_EDGE('',*,*,#666,.T.);
#886=ORIENTED_EDGE('',*,*,#667,.T.);
#887=ORIENTED_EDGE('',*,*,#660,.T.);
#888=ORIENTED_EDGE('',*,*,#658,.F.);
#889=ORIENTED_EDGE('',*,*,#654,.T.);
#890=ORIENTED_EDGE('',*,*,#628,.T.);
#891=ORIENTED_EDGE('',*,*,#632,.T.);
#892=ORIENTED_EDGE('',*,*,#635,.T.);
#893=ORIENTED_EDGE('',*,*,#668,.T.);
#894=ORIENTED_EDGE('',*,*,#669,.T.);
#895=ORIENTED_EDGE('',*,*,#670,.T.);
#896=ORIENTED_EDGE('',*,*,#670,.F.);
#897=ORIENTED_EDGE('',*,*,#671,.T.);
#898=ORIENTED_EDGE('',*,*,#672,.T.);
#899=ORIENTED_EDGE('',*,*,#673,.T.);
#900=ORIENTED_EDGE('',*,*,#629,.T.);
#901=ORIENTED_EDGE('',*,*,#672,.F.);
#902=ORIENTED_EDGE('',*,*,#674,.F.);
#903=ORIENTED_EDGE('',*,*,#675,.F.);
#904=ORIENTED_EDGE('',*,*,#676,.T.);
#905=ORIENTED_EDGE('',*,*,#677,.F.);
#906=ORIENTED_EDGE('',*,*,#669,.F.);
#907=ORIENTED_EDGE('',*,*,#678,.F.);
#908=ORIENTED_EDGE('',*,*,#679,.T.);
#909=ORIENTED_EDGE('',*,*,#680,.F.);
#910=ORIENTED_EDGE('',*,*,#602,.F.);
#911=ORIENTED_EDGE('',*,*,#681,.F.);
#912=ORIENTED_EDGE('',*,*,#674,.T.);
#913=ORIENTED_EDGE('',*,*,#671,.F.);
#914=ORIENTED_EDGE('',*,*,#668,.F.);
#915=ORIENTED_EDGE('',*,*,#634,.T.);
#916=ORIENTED_EDGE('',*,*,#642,.T.);
#917=ORIENTED_EDGE('',*,*,#682,.T.);
#918=ORIENTED_EDGE('',*,*,#678,.T.);
#919=ORIENTED_EDGE('',*,*,#683,.T.);
#920=ORIENTED_EDGE('',*,*,#684,.T.);
#921=ORIENTED_EDGE('',*,*,#685,.T.);
#922=ORIENTED_EDGE('',*,*,#684,.F.);
#923=ORIENTED_EDGE('',*,*,#626,.F.);
#924=ORIENTED_EDGE('',*,*,#630,.F.);
#925=ORIENTED_EDGE('',*,*,#673,.F.);
#926=ORIENTED_EDGE('',*,*,#677,.T.);
#927=ORIENTED_EDGE('',*,*,#686,.T.);
#928=ORIENTED_EDGE('',*,*,#663,.F.);
#929=ORIENTED_EDGE('',*,*,#661,.T.);
#930=ORIENTED_EDGE('',*,*,#667,.F.);
#931=ORIENTED_EDGE('',*,*,#687,.F.);
#932=ORIENTED_EDGE('',*,*,#688,.F.);
#933=ORIENTED_EDGE('',*,*,#665,.F.);
#934=ORIENTED_EDGE('',*,*,#689,.F.);
#935=ORIENTED_EDGE('',*,*,#683,.F.);
#936=ORIENTED_EDGE('',*,*,#690,.F.);
#937=ORIENTED_EDGE('',*,*,#691,.T.);
#938=ORIENTED_EDGE('',*,*,#685,.F.);
#939=ORIENTED_EDGE('',*,*,#691,.F.);
#940=ORIENTED_EDGE('',*,*,#666,.F.);
#941=ORIENTED_EDGE('',*,*,#688,.T.);
#942=ORIENTED_EDGE('',*,*,#692,.T.);
#943=ORIENTED_EDGE('',*,*,#693,.T.);
#944=ORIENTED_EDGE('',*,*,#692,.F.);
#945=ORIENTED_EDGE('',*,*,#687,.T.);
#946=ORIENTED_EDGE('',*,*,#694,.F.);
#947=ORIENTED_EDGE('',*,*,#695,.T.);
#948=ORIENTED_EDGE('',*,*,#693,.F.);
#949=ORIENTED_EDGE('',*,*,#695,.F.);
#950=ORIENTED_EDGE('',*,*,#689,.T.);
#951=ORIENTED_EDGE('',*,*,#696,.T.);
#952=ORIENTED_EDGE('',*,*,#697,.T.);
#953=ORIENTED_EDGE('',*,*,#696,.F.);
#954=ORIENTED_EDGE('',*,*,#698,.F.);
#955=ORIENTED_EDGE('',*,*,#699,.T.);
#956=ORIENTED_EDGE('',*,*,#697,.F.);
#957=ORIENTED_EDGE('',*,*,#699,.F.);
#958=ORIENTED_EDGE('',*,*,#643,.T.);
#959=ORIENTED_EDGE('',*,*,#700,.T.);
#960=ORIENTED_EDGE('',*,*,#701,.T.);
#961=ORIENTED_EDGE('',*,*,#700,.F.);
#962=ORIENTED_EDGE('',*,*,#701,.F.);
#963=ORIENTED_EDGE('',*,*,#702,.T.);
#964=ORIENTED_EDGE('',*,*,#650,.F.);
#965=ORIENTED_EDGE('',*,*,#702,.F.);
#966=ORIENTED_EDGE('',*,*,#612,.F.);
#967=ORIENTED_EDGE('',*,*,#637,.T.);
#968=ORIENTED_EDGE('',*,*,#703,.T.);
#969=ORIENTED_EDGE('',*,*,#704,.T.);
#970=ORIENTED_EDGE('',*,*,#703,.F.);
#971=ORIENTED_EDGE('',*,*,#636,.T.);
#972=ORIENTED_EDGE('',*,*,#704,.F.);
#973=ORIENTED_EDGE('',*,*,#705,.T.);
#974=ORIENTED_EDGE('',*,*,#651,.F.);
#975=ORIENTED_EDGE('',*,*,#705,.F.);
#976=ORIENTED_EDGE('',*,*,#644,.T.);
#977=ORIENTED_EDGE('',*,*,#706,.T.);
#978=ORIENTED_EDGE('',*,*,#707,.T.);
#979=ORIENTED_EDGE('',*,*,#706,.F.);
#980=ORIENTED_EDGE('',*,*,#707,.F.);
#981=ORIENTED_EDGE('',*,*,#708,.T.);
#982=ORIENTED_EDGE('',*,*,#649,.F.);
#983=ORIENTED_EDGE('',*,*,#708,.F.);
#984=ORIENTED_EDGE('',*,*,#664,.F.);
#985=ORIENTED_EDGE('',*,*,#686,.F.);
#986=ORIENTED_EDGE('',*,*,#676,.F.);
#987=ORIENTED_EDGE('',*,*,#709,.F.);
#988=ORIENTED_EDGE('',*,*,#710,.F.);
#989=ORIENTED_EDGE('',*,*,#711,.F.);
#990=ORIENTED_EDGE('',*,*,#712,.F.);
#991=ORIENTED_EDGE('',*,*,#646,.F.);
#992=ORIENTED_EDGE('',*,*,#653,.F.);
#993=ORIENTED_EDGE('',*,*,#713,.F.);
#994=ORIENTED_EDGE('',*,*,#714,.F.);
#995=ORIENTED_EDGE('',*,*,#640,.F.);
#996=ORIENTED_EDGE('',*,*,#682,.F.);
#997=ORIENTED_EDGE('',*,*,#641,.F.);
#998=ORIENTED_EDGE('',*,*,#714,.T.);
#999=ORIENTED_EDGE('',*,*,#715,.F.);
#1000=ORIENTED_EDGE('',*,*,#679,.F.);
#1001=ORIENTED_EDGE('',*,*,#712,.T.);
#1002=ORIENTED_EDGE('',*,*,#716,.T.);
#1003=ORIENTED_EDGE('',*,*,#656,.T.);
#1004=ORIENTED_EDGE('',*,*,#647,.F.);
#1005=ORIENTED_EDGE('',*,*,#617,.F.);
#1006=ORIENTED_EDGE('',*,*,#657,.T.);
#1007=ORIENTED_EDGE('',*,*,#716,.F.);
#1008=ORIENTED_EDGE('',*,*,#711,.T.);
#1009=ORIENTED_EDGE('',*,*,#717,.T.);
#1010=ORIENTED_EDGE('',*,*,#694,.T.);
#1011=ORIENTED_EDGE('',*,*,#690,.T.);
#1012=ORIENTED_EDGE('',*,*,#698,.T.);
#1013=ORIENTED_EDGE('',*,*,#618,.F.);
#1014=ORIENTED_EDGE('',*,*,#717,.F.);
#1015=ORIENTED_EDGE('',*,*,#710,.T.);
#1016=ORIENTED_EDGE('',*,*,#718,.T.);
#1017=ORIENTED_EDGE('',*,*,#619,.F.);
#1018=ORIENTED_EDGE('',*,*,#718,.F.);
#1019=ORIENTED_EDGE('',*,*,#709,.T.);
#1020=ORIENTED_EDGE('',*,*,#675,.T.);
#1021=ORIENTED_EDGE('',*,*,#681,.T.);
#1022=ORIENTED_EDGE('',*,*,#601,.T.);
#1023=ORIENTED_EDGE('',*,*,#620,.F.);
#1024=ORIENTED_EDGE('',*,*,#603,.F.);
#1025=ORIENTED_EDGE('',*,*,#680,.T.);
#1026=ORIENTED_EDGE('',*,*,#715,.T.);
#1027=ORIENTED_EDGE('',*,*,#713,.T.);
#1028=ORIENTED_EDGE('',*,*,#652,.T.);
#1029=CYLINDRICAL_SURFACE('',#1106,1.);
#1030=CYLINDRICAL_SURFACE('',#1111,1.);
#1031=CYLINDRICAL_SURFACE('',#1116,1.);
#1032=CYLINDRICAL_SURFACE('',#1121,1.);
#1033=CYLINDRICAL_SURFACE('',#1165,1.05);
#1034=CYLINDRICAL_SURFACE('',#1169,1.05);
#1035=CYLINDRICAL_SURFACE('',#1173,1.05);
#1036=CYLINDRICAL_SURFACE('',#1177,1.05);
#1037=CYLINDRICAL_SURFACE('',#1180,1.05);
#1038=CYLINDRICAL_SURFACE('',#1183,1.05);
#1039=ADVANCED_FACE('',(#72),#1029,.F.);
#1040=ADVANCED_FACE('',(#73),#35,.F.);
#1041=ADVANCED_FACE('',(#74),#1030,.F.);
#1042=ADVANCED_FACE('',(#75),#36,.F.);
#1043=ADVANCED_FACE('',(#76),#1031,.F.);
#1044=ADVANCED_FACE('',(#77),#37,.F.);
#1045=ADVANCED_FACE('',(#78),#1032,.F.);
#1046=ADVANCED_FACE('',(#79),#38,.F.);
#1047=ADVANCED_FACE('',(#80),#39,.T.);
#1048=ADVANCED_FACE('',(#81),#40,.T.);
#1049=ADVANCED_FACE('',(#82),#41,.T.);
#1050=ADVANCED_FACE('',(#83),#42,.T.);
#1051=ADVANCED_FACE('',(#84,#23),#43,.T.);
#1052=ADVANCED_FACE('',(#85),#44,.T.);
#1053=ADVANCED_FACE('',(#86),#45,.T.);
#1054=ADVANCED_FACE('',(#87),#46,.T.);
#1055=ADVANCED_FACE('',(#88),#47,.T.);
#1056=ADVANCED_FACE('',(#89),#48,.T.);
#1057=ADVANCED_FACE('',(#90,#24),#49,.T.);
#1058=ADVANCED_FACE('',(#91),#50,.T.);
#1059=ADVANCED_FACE('',(#92,#25,#26),#51,.T.);
#1060=ADVANCED_FACE('',(#93,#27,#28,#29),#52,.T.);
#1061=ADVANCED_FACE('',(#94),#53,.T.);
#1062=ADVANCED_FACE('',(#95),#54,.T.);
#1063=ADVANCED_FACE('',(#96),#55,.T.);
#1064=ADVANCED_FACE('',(#97),#56,.T.);
#1065=ADVANCED_FACE('',(#98),#57,.T.);
#1066=ADVANCED_FACE('',(#99),#58,.T.);
#1067=ADVANCED_FACE('',(#100),#59,.T.);
#1068=ADVANCED_FACE('',(#101),#60,.T.);
#1069=ADVANCED_FACE('',(#102),#61,.F.);
#1070=ADVANCED_FACE('',(#103),#62,.T.);
#1071=ADVANCED_FACE('',(#104),#63,.T.);
#1072=ADVANCED_FACE('',(#105),#15,.F.);
#1073=ADVANCED_FACE('',(#106,#30,#31),#64,.T.);
#1074=ADVANCED_FACE('',(#107),#1033,.F.);
#1075=ADVANCED_FACE('',(#108),#16,.F.);
#1076=ADVANCED_FACE('',(#109),#1034,.F.);
#1077=ADVANCED_FACE('',(#110),#17,.F.);
#1078=ADVANCED_FACE('',(#111),#1035,.F.);
#1079=ADVANCED_FACE('',(#112),#18,.F.);
#1080=ADVANCED_FACE('',(#113),#1036,.F.);
#1081=ADVANCED_FACE('',(#114),#19,.F.);
#1082=ADVANCED_FACE('',(#115),#1037,.F.);
#1083=ADVANCED_FACE('',(#116),#20,.F.);
#1084=ADVANCED_FACE('',(#117),#1038,.F.);
#1085=ADVANCED_FACE('',(#118),#65,.F.);
#1086=ADVANCED_FACE('',(#119),#66,.F.);
#1087=ADVANCED_FACE('',(#120),#67,.T.);
#1088=ADVANCED_FACE('',(#121,#32,#33,#34),#68,.T.);
#1089=ADVANCED_FACE('',(#122),#69,.T.);
#1090=ADVANCED_FACE('',(#123),#70,.T.);
#1091=ADVANCED_FACE('',(#124),#71,.T.);
#1092=CLOSED_SHELL('',(#1039,#1040,#1041,#1042,#1043,#1044,#1045,#1046,
#1047,#1048,#1049,#1050,#1051,#1052,#1053,#1054,#1055,#1056,#1057,#1058,
#1059,#1060,#1061,#1062,#1063,#1064,#1065,#1066,#1067,#1068,#1069,#1070,
#1071,#1072,#1073,#1074,#1075,#1076,#1077,#1078,#1079,#1080,#1081,#1082,
#1083,#1084,#1085,#1086,#1087,#1088,#1089,#1090,#1091));
#1093=DERIVED_UNIT_ELEMENT(#1095,1.);
#1094=DERIVED_UNIT_ELEMENT(#1802,-3.);
#1095=(
MASS_UNIT()
NAMED_UNIT(*)
SI_UNIT(.KILO.,.GRAM.)
);
#1096=DERIVED_UNIT((#1093,#1094));
#1097=MEASURE_REPRESENTATION_ITEM('density measure',
POSITIVE_RATIO_MEASURE(7850.),#1096);
#1098=PROPERTY_DEFINITION_REPRESENTATION(#1103,#1100);
#1099=PROPERTY_DEFINITION_REPRESENTATION(#1104,#1101);
#1100=REPRESENTATION('material name',(#1102),#1799);
#1101=REPRESENTATION('density',(#1097),#1799);
#1102=DESCRIPTIVE_REPRESENTATION_ITEM('\X2\94A2\X0\','\X2\94A2\X0\');
#1103=PROPERTY_DEFINITION('material property','material name',#1809);
#1104=PROPERTY_DEFINITION('material property','density of part',#1809);
#1105=AXIS2_PLACEMENT_3D('',#1484,#1191,#1192);
#1106=AXIS2_PLACEMENT_3D('',#1485,#1193,#1194);
#1107=AXIS2_PLACEMENT_3D('',#1488,#1195,#1196);
#1108=AXIS2_PLACEMENT_3D('',#1492,#1198,#1199);
#1109=AXIS2_PLACEMENT_3D('',#1495,#1201,#1202);
#1110=AXIS2_PLACEMENT_3D('',#1496,#1203,#1204);
#1111=AXIS2_PLACEMENT_3D('',#1502,#1208,#1209);
#1112=AXIS2_PLACEMENT_3D('',#1505,#1210,#1211);
#1113=AXIS2_PLACEMENT_3D('',#1509,#1213,#1214);
#1114=AXIS2_PLACEMENT_3D('',#1512,#1216,#1217);
#1115=AXIS2_PLACEMENT_3D('',#1513,#1218,#1219);
#1116=AXIS2_PLACEMENT_3D('',#1516,#1222,#1223);
#1117=AXIS2_PLACEMENT_3D('',#1518,#1224,#1225);
#1118=AXIS2_PLACEMENT_3D('',#1520,#1226,#1227);
#1119=AXIS2_PLACEMENT_3D('',#1523,#1229,#1230);
#1120=AXIS2_PLACEMENT_3D('',#1524,#1231,#1232);
#1121=AXIS2_PLACEMENT_3D('',#1530,#1236,#1237);
#1122=AXIS2_PLACEMENT_3D('',#1532,#1238,#1239);
#1123=AXIS2_PLACEMENT_3D('',#1534,#1240,#1241);
#1124=AXIS2_PLACEMENT_3D('',#1537,#1243,#1244);
#1125=AXIS2_PLACEMENT_3D('',#1538,#1245,#1246);
#1126=AXIS2_PLACEMENT_3D('',#1541,#1249,#1250);
#1127=AXIS2_PLACEMENT_3D('',#1547,#1254,#1255);
#1128=AXIS2_PLACEMENT_3D('',#1553,#1259,#1260);
#1129=AXIS2_PLACEMENT_3D('',#1555,#1262,#1263);
#1130=AXIS2_PLACEMENT_3D('',#1557,#1265,#1266);
#1131=AXIS2_PLACEMENT_3D('',#1566,#1271,#1272);
#1132=AXIS2_PLACEMENT_3D('',#1575,#1277,#1278);
#1133=AXIS2_PLACEMENT_3D('',#1589,#1284,#1285);
#1134=AXIS2_PLACEMENT_3D('',#1608,#1296,#1297);
#1135=AXIS2_PLACEMENT_3D('',#1614,#1301,#1302);
#1136=AXIS2_PLACEMENT_3D('',#1622,#1307,#1308);
#1137=AXIS2_PLACEMENT_3D('',#1626,#1311,#1312);
#1138=AXIS2_PLACEMENT_3D('',#1632,#1316,#1317);
#1139=AXIS2_PLACEMENT_3D('',#1634,#1318,#1319);
#1140=AXIS2_PLACEMENT_3D('',#1635,#1320,#1321);
#1141=AXIS2_PLACEMENT_3D('',#1646,#1327,#1328);
#1142=AXIS2_PLACEMENT_3D('',#1648,#1329,#1330);
#1143=AXIS2_PLACEMENT_3D('',#1649,#1331,#1332);
#1144=AXIS2_PLACEMENT_3D('',#1658,#1337,#1338);
#1145=AXIS2_PLACEMENT_3D('',#1660,#1339,#1340);
#1146=AXIS2_PLACEMENT_3D('',#1662,#1341,#1342);
#1147=AXIS2_PLACEMENT_3D('',#1663,#1343,#1344);
#1148=AXIS2_PLACEMENT_3D('',#1667,#1347,#1348);
#1149=AXIS2_PLACEMENT_3D('',#1674,#1353,#1354);
#1150=AXIS2_PLACEMENT_3D('',#1678,#1357,#1358);
#1151=AXIS2_PLACEMENT_3D('',#1684,#1362,#1363);
#1152=AXIS2_PLACEMENT_3D('',#1688,#1366,#1367);
#1153=AXIS2_PLACEMENT_3D('',#1696,#1370,#1371);
#1154=AXIS2_PLACEMENT_3D('',#1702,#1375,#1376);
#1155=AXIS2_PLACEMENT_3D('',#1708,#1380,#1381);
#1156=AXIS2_PLACEMENT_3D('',#1716,#1386,#1387);
#1157=AXIS2_PLACEMENT_3D('',#1723,#1392,#1393);
#1158=AXIS2_PLACEMENT_3D('',#1725,#1395,#1396);
#1159=AXIS2_PLACEMENT_3D('',#1727,#1397,#1398);
#1160=AXIS2_PLACEMENT_3D('',#1730,#1400,#1401);
#1161=AXIS2_PLACEMENT_3D('',#1731,#1402,#1403);
#1162=AXIS2_PLACEMENT_3D('',#1734,#1405,#1406);
#1163=AXIS2_PLACEMENT_3D('',#1735,#1407,#1408);
#1164=AXIS2_PLACEMENT_3D('',#1737,#1409,#1410);
#1165=AXIS2_PLACEMENT_3D('',#1738,#1411,#1412);
#1166=AXIS2_PLACEMENT_3D('',#1740,#1413,#1414);
#1167=AXIS2_PLACEMENT_3D('',#1742,#1416,#1417);
#1168=AXIS2_PLACEMENT_3D('',#1745,#1419,#1420);
#1169=AXIS2_PLACEMENT_3D('',#1746,#1421,#1422);
#1170=AXIS2_PLACEMENT_3D('',#1748,#1423,#1424);
#1171=AXIS2_PLACEMENT_3D('',#1750,#1426,#1427);
#1172=AXIS2_PLACEMENT_3D('',#1753,#1429,#1430);
#1173=AXIS2_PLACEMENT_3D('',#1754,#1431,#1432);
#1174=AXIS2_PLACEMENT_3D('',#1756,#1433,#1434);
#1175=AXIS2_PLACEMENT_3D('',#1758,#1436,#1437);
#1176=AXIS2_PLACEMENT_3D('',#1761,#1439,#1440);
#1177=AXIS2_PLACEMENT_3D('',#1762,#1441,#1442);
#1178=AXIS2_PLACEMENT_3D('',#1764,#1444,#1445);
#1179=AXIS2_PLACEMENT_3D('',#1767,#1447,#1448);
#1180=AXIS2_PLACEMENT_3D('',#1768,#1449,#1450);
#1181=AXIS2_PLACEMENT_3D('',#1770,#1452,#1453);
#1182=AXIS2_PLACEMENT_3D('',#1773,#1455,#1456);
#1183=AXIS2_PLACEMENT_3D('',#1774,#1457,#1458);
#1184=AXIS2_PLACEMENT_3D('',#1776,#1460,#1461);
#1185=AXIS2_PLACEMENT_3D('',#1787,#1468,#1469);
#1186=AXIS2_PLACEMENT_3D('',#1789,#1471,#1472);
#1187=AXIS2_PLACEMENT_3D('',#1791,#1474,#1475);
#1188=AXIS2_PLACEMENT_3D('',#1793,#1477,#1478);
#1189=AXIS2_PLACEMENT_3D('',#1795,#1480,#1481);
#1190=AXIS2_PLACEMENT_3D('',#1796,#1482,#1483);
#1191=DIRECTION('axis',(0.,0.,1.));
#1192=DIRECTION('refdir',(1.,0.,0.));
#1193=DIRECTION('center_axis',(0.,0.,1.));
#1194=DIRECTION('ref_axis',(0.707106781186548,-0.707106781186548,0.));
#1195=DIRECTION('center_axis',(-0.707106781186547,0.,0.707106781186548));
#1196=DIRECTION('ref_axis',(0.707106781186548,0.,0.707106781186547));
#1197=DIRECTION('',(0.,0.,-1.));
#1198=DIRECTION('center_axis',(-2.66455194561597E-17,0.,-1.));
#1199=DIRECTION('ref_axis',(0.707106781186548,-0.707106781186548,0.));
#1200=DIRECTION('',(0.,0.,1.));
#1201=DIRECTION('center_axis',(0.,0.707106781186546,0.707106781186549));
#1202=DIRECTION('ref_axis',(0.,-0.707106781186549,0.707106781186546));
#1203=DIRECTION('center_axis',(0.,-1.,0.));
#1204=DIRECTION('ref_axis',(1.,0.,-2.66455194561597E-17));
#1205=DIRECTION('',(1.,0.,-2.66455194561597E-17));
#1206=DIRECTION('',(0.,0.,-1.));
#1207=DIRECTION('',(-1.,0.,0.));
#1208=DIRECTION('center_axis',(0.,0.,1.));
#1209=DIRECTION('ref_axis',(0.707106781186541,0.707106781186554,0.));
#1210=DIRECTION('center_axis',(0.,-0.707106781186549,0.707106781186546));
#1211=DIRECTION('ref_axis',(4.90653893338679E-17,0.707106781186546,0.707106781186549));
#1212=DIRECTION('',(0.,0.,-1.));
#1213=DIRECTION('center_axis',(-2.66455194561597E-17,0.,-1.));
#1214=DIRECTION('ref_axis',(0.707106781186541,0.707106781186554,0.));
#1215=DIRECTION('',(0.,0.,1.));
#1216=DIRECTION('center_axis',(-0.707106781186547,0.,0.707106781186548));
#1217=DIRECTION('ref_axis',(0.707106781186548,-4.9065389333868E-17,0.707106781186547));
#1218=DIRECTION('center_axis',(1.,0.,0.));
#1219=DIRECTION('ref_axis',(0.,1.,0.));
#1220=DIRECTION('',(0.,-1.,0.));
#1221=DIRECTION('',(0.,1.,0.));
#1222=DIRECTION('center_axis',(0.,0.,1.));
#1223=DIRECTION('ref_axis',(-0.707106781186555,-0.70710678118654,0.));
#1224=DIRECTION('center_axis',(0.,0.707106781186546,0.707106781186549));
#1225=DIRECTION('ref_axis',(-4.90653893338681E-17,-0.707106781186549,0.707106781186546));
#1226=DIRECTION('center_axis',(-2.66455194561597E-17,0.,-1.));
#1227=DIRECTION('ref_axis',(-0.707106781186555,-0.70710678118654,0.));
#1228=DIRECTION('',(0.,0.,1.));
#1229=DIRECTION('center_axis',(0.707106781186548,0.,0.707106781186547));
#1230=DIRECTION('ref_axis',(-0.707106781186547,4.9065389333868E-17,0.707106781186548));
#1231=DIRECTION('center_axis',(-1.,0.,0.));
#1232=DIRECTION('ref_axis',(0.,-1.,0.));
#1233=DIRECTION('',(0.,-1.,0.));
#1234=DIRECTION('',(0.,0.,-1.));
#1235=DIRECTION('',(0.,1.,0.));
#1236=DIRECTION('center_axis',(0.,0.,1.));
#1237=DIRECTION('ref_axis',(-0.707106781186543,0.707106781186552,0.));
#1238=DIRECTION('center_axis',(0.707106781186548,0.,0.707106781186547));
#1239=DIRECTION('ref_axis',(-0.707106781186547,0.,0.707106781186548));
#1240=DIRECTION('center_axis',(-2.66455194561597E-17,0.,-1.));
#1241=DIRECTION('ref_axis',(-0.707106781186543,0.707106781186552,0.));
#1242=DIRECTION('',(0.,0.,1.));
#1243=DIRECTION('center_axis',(0.,-0.707106781186549,0.707106781186546));
#1244=DIRECTION('ref_axis',(9.81307786677357E-17,0.707106781186546,0.707106781186549));
#1245=DIRECTION('center_axis',(0.,1.,0.));
#1246=DIRECTION('ref_axis',(-1.,0.,2.66455194561597E-17));
#1247=DIRECTION('',(1.,0.,0.));
#1248=DIRECTION('',(-1.,0.,2.66455194561597E-17));
#1249=DIRECTION('center_axis',(-0.707106781186547,0.,0.707106781186548));
#1250=DIRECTION('ref_axis',(0.707106781186548,0.,0.707106781186547));
#1251=DIRECTION('',(0.,1.,0.));
#1252=DIRECTION('',(-0.577350269189627,-0.577350269189624,-0.577350269189626));
#1253=DIRECTION('',(0.577350269189625,-0.577350269189628,0.577350269189625));
#1254=DIRECTION('center_axis',(0.707106781186548,0.,0.707106781186547));
#1255=DIRECTION('ref_axis',(0.707106781186547,0.,-0.707106781186548));
#1256=DIRECTION('',(-0.577350269189627,0.577350269189624,0.577350269189626));
#1257=DIRECTION('',(0.,-1.,0.));
#1258=DIRECTION('',(-0.577350269189624,-0.577350269189628,0.577350269189625));
#1259=DIRECTION('center_axis',(0.,-0.707106781186549,0.707106781186546));
#1260=DIRECTION('ref_axis',(1.,0.,0.));
#1261=DIRECTION('',(-1.,0.,0.));
#1262=DIRECTION('center_axis',(0.,0.707106781186546,0.707106781186549));
#1263=DIRECTION('ref_axis',(1.,0.,0.));
#1264=DIRECTION('',(1.,0.,0.));
#1265=DIRECTION('center_axis',(0.,0.,1.));
#1266=DIRECTION('ref_axis',(-1.,0.,0.));
#1267=DIRECTION('',(1.,5.46525260461158E-15,0.));
#1268=DIRECTION('',(0.,-1.,0.));
#1269=DIRECTION('',(-1.,0.,0.));
#1270=DIRECTION('',(0.,1.,0.));
#1271=DIRECTION('center_axis',(-0.707106781186547,-0.502512885598159,-0.497474421259839));
#1272=DIRECTION('ref_axis',(-0.575401162060514,0.,0.817871324047622));
#1273=DIRECTION('',(0.67821487199399,-0.282929628728333,-0.67821487199399));
#1274=DIRECTION('',(0.,-0.703535073479371,0.710660538080156));
#1275=DIRECTION('',(-0.67821487199399,0.68103146300209,0.276081027612199));
#1276=DIRECTION('',(0.,0.703535073479371,-0.710660538080156));
#1277=DIRECTION('center_axis',(-0.707106781186547,-0.707070879787264,0.00712537415625055));
#1278=DIRECTION('ref_axis',(0.0100762891988941,0.,0.999949232909341));
#1279=DIRECTION('',(0.,0.0100768007687523,0.999949227754223));
#1280=DIRECTION('',(0.575401162060502,-0.581228875227999,-0.57540116206054));
#1281=DIRECTION('',(-0.707088829803341,0.707124732114032,0.));
#1282=DIRECTION('',(0.,-0.0100768007687523,-0.999949227754223));
#1283=DIRECTION('',(0.,-0.0100768007687523,-0.999949227754223));
#1284=DIRECTION('center_axis',(3.88393935673723E-15,-0.710660538080156,
-0.703535073479371));
#1285=DIRECTION('ref_axis',(-1.,0.,-5.52060515978116E-15));
#1286=DIRECTION('',(1.,5.49163096176523E-15,-2.66455194561597E-17));
#1287=DIRECTION('',(0.,0.703535073479371,-0.710660538080156));
#1288=DIRECTION('',(-1.,-5.49163096176523E-15,2.66455194561597E-17));
#1289=DIRECTION('',(0.,0.703535073479371,-0.710660538080156));
#1290=DIRECTION('',(-1.,-5.49255145496105E-15,2.75753354873749E-17));
#1291=DIRECTION('',(0.,0.703535073479371,-0.710660538080156));
#1292=DIRECTION('',(0.,-0.703535073479371,0.710660538080156));
#1293=DIRECTION('',(-1.,-5.49255145496105E-15,2.75753354873749E-17));
#1294=DIRECTION('',(-7.55346544450351E-17,-0.703535073479371,0.710660538080156));
#1295=DIRECTION('',(-1.,-5.49163096176523E-15,2.66455194561597E-17));
#1296=DIRECTION('center_axis',(0.707106781186547,-0.502512885598159,-0.49747442125984));
#1297=DIRECTION('ref_axis',(-0.575401162060515,0.,-0.817871324047621));
#1298=DIRECTION('',(-0.67821487199399,-0.681031463002092,-0.276081027612195));
#1299=DIRECTION('',(0.67821487199399,0.282929628728332,0.67821487199399));
#1300=DIRECTION('',(0.,-0.703535073479371,0.710660538080156));
#1301=DIRECTION('center_axis',(0.707106781186547,0.,-0.707106781186548));
#1302=DIRECTION('ref_axis',(-0.707106781186548,0.,-0.707106781186547));
#1303=DIRECTION('',(0.,1.,0.));
#1304=DIRECTION('',(-0.577350269189627,-0.577350269189624,-0.577350269189626));
#1305=DIRECTION('',(-0.577350269189627,0.577350269189624,-0.577350269189626));
#1306=DIRECTION('',(0.,-1.,0.));
#1307=DIRECTION('center_axis',(-2.66455194561597E-17,0.,-1.));
#1308=DIRECTION('ref_axis',(1.,0.,-2.66455194561597E-17));
#1309=DIRECTION('',(0.,-1.,0.));
#1310=DIRECTION('',(-1.,0.,2.66455194561597E-17));
#1311=DIRECTION('center_axis',(-0.707106781186548,0.,-0.707106781186548));
#1312=DIRECTION('ref_axis',(-0.707106781186548,0.,0.707106781186548));
#1313=DIRECTION('',(0.,1.,0.));
#1314=DIRECTION('',(-0.577350269189626,-0.577350269189625,0.577350269189626));
#1315=DIRECTION('',(-0.577350269189627,0.577350269189624,0.577350269189627));
#1316=DIRECTION('center_axis',(-1.,0.,0.));
#1317=DIRECTION('ref_axis',(0.,0.,-1.));
#1318=DIRECTION('center_axis',(-1.,0.,0.));
#1319=DIRECTION('ref_axis',(0.,0.,1.));
#1320=DIRECTION('center_axis',(-1.,0.,0.));
#1321=DIRECTION('ref_axis',(0.,0.,1.));
#1322=DIRECTION('',(0.,1.,0.));
#1323=DIRECTION('',(0.,-0.707106781186548,0.707106781186548));
#1324=DIRECTION('',(0.,0.,-1.));
#1325=DIRECTION('',(0.,1.,0.));
#1326=DIRECTION('',(0.,0.,1.));
#1327=DIRECTION('center_axis',(-1.,0.,0.));
#1328=DIRECTION('ref_axis',(0.,0.,1.));
#1329=DIRECTION('center_axis',(-1.,0.,0.));
#1330=DIRECTION('ref_axis',(0.,0.,1.));
#1331=DIRECTION('center_axis',(1.,0.,1.06287953808567E-16));
#1332=DIRECTION('ref_axis',(-1.06287953808567E-16,0.,1.));
#1333=DIRECTION('',(0.,-1.,0.));
#1334=DIRECTION('',(-1.06287953808567E-16,0.,1.));
#1335=DIRECTION('',(0.,-1.,0.));
#1336=DIRECTION('',(1.06282557330453E-16,-0.0100768007687523,-0.999949227754223));
#1337=DIRECTION('center_axis',(-1.,0.,-1.06287953808567E-16));
#1338=DIRECTION('ref_axis',(0.,0.,1.));
#1339=DIRECTION('center_axis',(-1.,0.,-1.06287953808567E-16));
#1340=DIRECTION('ref_axis',(0.,0.,1.));
#1341=DIRECTION('center_axis',(-1.,0.,-1.06287953808567E-16));
#1342=DIRECTION('ref_axis',(0.,0.,1.));
#1343=DIRECTION('center_axis',(2.75753354873749E-17,0.,1.));
#1344=DIRECTION('ref_axis',(-1.,0.,2.75753354873749E-17));
#1345=DIRECTION('',(0.,-1.,0.));
#1346=DIRECTION('',(-1.,0.,2.75753354873749E-17));
#1347=DIRECTION('center_axis',(5.49162064091926E-15,-0.999949227754223,
0.0100768007687523));
#1348=DIRECTION('ref_axis',(0.,-0.0100768007687523,-0.999949227754223));
#1349=DIRECTION('',(0.,-0.0100768007687523,-0.999949227754223));
#1350=DIRECTION('',(1.,5.49189947698929E-15,0.));
#1351=DIRECTION('',(-1.,-5.49189947698929E-15,0.));
#1352=DIRECTION('',(0.,0.0100768007687523,0.999949227754223));
#1353=DIRECTION('center_axis',(3.8637439020851E-15,-0.703535073479393,0.710660538080134));
#1354=DIRECTION('ref_axis',(1.,0.,-5.43683474042768E-15));
#1355=DIRECTION('',(0.575401162060503,0.581228875228001,0.575401162060536));
#1356=DIRECTION('',(-1.,-5.49189947698929E-15,0.));
#1357=DIRECTION('center_axis',(0.,0.,1.));
#1358=DIRECTION('ref_axis',(-1.,0.,0.));
#1359=DIRECTION('',(-0.70708882980334,-0.707124732114034,0.));
#1360=DIRECTION('',(0.,-1.,0.));
#1361=DIRECTION('',(1.,0.,0.));
#1362=DIRECTION('center_axis',(0.,0.707106781186548,0.707106781186548));
#1363=DIRECTION('ref_axis',(1.,0.,0.));
#1364=DIRECTION('',(0.,0.707106781186548,-0.707106781186548));
#1365=DIRECTION('',(-1.,0.,0.));
#1366=DIRECTION('center_axis',(0.707106781186548,-0.707070879787262,0.00712537415625054));
#1367=DIRECTION('ref_axis',(0.0100762891988941,0.,-0.999949232909341));
#1368=DIRECTION('',(0.,0.0100768007687523,0.999949227754223));
#1369=DIRECTION('',(0.,0.0100768007687523,0.999949227754223));
#1370=DIRECTION('center_axis',(-1.88412274956886E-17,0.707106781186549,
-0.707106781186546));
#1371=DIRECTION('ref_axis',(-1.,0.,2.66455194561597E-17));
#1372=DIRECTION('',(0.577350269189626,0.577350269189624,0.577350269189627));
#1373=DIRECTION('',(1.,0.,-2.66455194561597E-17));
#1374=DIRECTION('',(0.577350269189627,-0.577350269189624,-0.577350269189627));
#1375=DIRECTION('center_axis',(0.707106781186546,0.707106781186549,0.));
#1376=DIRECTION('ref_axis',(0.,0.,-1.));
#1377=DIRECTION('',(0.,0.,1.));
#1378=DIRECTION('',(0.707106781186549,-0.707106781186546,0.));
#1379=DIRECTION('',(0.,0.,-1.));
#1380=DIRECTION('center_axis',(0.,0.,-1.));
#1381=DIRECTION('ref_axis',(0.,1.,0.));
#1382=DIRECTION('',(1.,0.,0.));
#1383=DIRECTION('',(0.,1.,0.));
#1384=DIRECTION('',(1.,0.,0.));
#1385=DIRECTION('',(0.,-1.,0.));
#1386=DIRECTION('center_axis',(0.,1.,0.));
#1387=DIRECTION('ref_axis',(1.,0.,0.));
#1388=DIRECTION('',(0.,0.,-1.));
#1389=DIRECTION('',(1.,0.,0.));
#1390=DIRECTION('',(0.,0.,1.));
#1391=DIRECTION('',(0.,0.,-1.));
#1392=DIRECTION('center_axis',(-0.707106781186546,0.707106781186549,0.));
#1393=DIRECTION('ref_axis',(0.,0.,1.));
#1394=DIRECTION('',(0.707106781186549,0.707106781186546,0.));
#1395=DIRECTION('center_axis',(1.,0.,0.));
#1396=DIRECTION('ref_axis',(0.,0.,1.));
#1397=DIRECTION('center_axis',(1.,0.,0.));
#1398=DIRECTION('ref_axis',(0.,0.,1.));
#1399=DIRECTION('',(-0.707106781186546,-8.65956056235495E-17,0.707106781186549));
#1400=DIRECTION('center_axis',(-1.,0.,0.));
#1401=DIRECTION('ref_axis',(0.,0.,1.));
#1402=DIRECTION('center_axis',(1.,0.,0.));
#1403=DIRECTION('ref_axis',(0.,0.,1.));
#1404=DIRECTION('',(0.,0.,1.));
#1405=DIRECTION('center_axis',(1.,0.,0.));
#1406=DIRECTION('ref_axis',(0.,0.,1.));
#1407=DIRECTION('center_axis',(1.,0.,0.));
#1408=DIRECTION('ref_axis',(0.,0.,1.));
#1409=DIRECTION('center_axis',(1.,0.,0.));
#1410=DIRECTION('ref_axis',(0.,0.,1.));
#1411=DIRECTION('center_axis',(1.,0.,0.));
#1412=DIRECTION('ref_axis',(0.,0.,1.));
#1413=DIRECTION('center_axis',(1.,0.,0.));
#1414=DIRECTION('ref_axis',(0.,0.,1.));
#1415=DIRECTION('',(1.,0.,0.));
#1416=DIRECTION('center_axis',(1.,0.,0.));
#1417=DIRECTION('ref_axis',(0.,0.,1.));
#1418=DIRECTION('',(-0.707106781186549,-8.65956056235491E-17,0.707106781186546));
#1419=DIRECTION('center_axis',(-1.,0.,0.));
#1420=DIRECTION('ref_axis',(0.,0.,1.));
#1421=DIRECTION('center_axis',(1.,0.,0.));
#1422=DIRECTION('ref_axis',(0.,0.,1.));
#1423=DIRECTION('center_axis',(1.,0.,0.));
#1424=DIRECTION('ref_axis',(0.,0.,1.));
#1425=DIRECTION('',(1.,0.,0.));
#1426=DIRECTION('center_axis',(1.,0.,0.));
#1427=DIRECTION('ref_axis',(0.,0.,1.));
#1428=DIRECTION('',(-0.707106781186546,-8.65956056235495E-17,0.707106781186549));
#1429=DIRECTION('center_axis',(-1.,0.,0.));
#1430=DIRECTION('ref_axis',(0.,0.,1.));
#1431=DIRECTION('center_axis',(1.,0.,0.));
#1432=DIRECTION('ref_axis',(0.,0.,1.));
#1433=DIRECTION('center_axis',(1.,0.,0.));
#1434=DIRECTION('ref_axis',(0.,0.,1.));
#1435=DIRECTION('',(1.,0.,0.));
#1436=DIRECTION('center_axis',(-1.,0.,0.));
#1437=DIRECTION('ref_axis',(0.,0.,1.));
#1438=DIRECTION('',(0.707106781186548,8.65956056235494E-17,0.707106781186548));
#1439=DIRECTION('center_axis',(1.,0.,0.));
#1440=DIRECTION('ref_axis',(0.,0.,1.));
#1441=DIRECTION('center_axis',(1.,0.,0.));
#1442=DIRECTION('ref_axis',(0.,0.,1.));
#1443=DIRECTION('',(1.,0.,0.));
#1444=DIRECTION('center_axis',(-1.,0.,0.));
#1445=DIRECTION('ref_axis',(0.,0.,1.));
#1446=DIRECTION('',(0.707106781186548,8.65956056235494E-17,0.707106781186548));
#1447=DIRECTION('center_axis',(1.,0.,0.));
#1448=DIRECTION('ref_axis',(0.,0.,1.));
#1449=DIRECTION('center_axis',(1.,0.,0.));
#1450=DIRECTION('ref_axis',(0.,0.,1.));
#1451=DIRECTION('',(1.,0.,0.));
#1452=DIRECTION('center_axis',(-1.,0.,0.));
#1453=DIRECTION('ref_axis',(0.,0.,1.));
#1454=DIRECTION('',(0.707106781186548,8.65956056235493E-17,0.707106781186548));
#1455=DIRECTION('center_axis',(1.,0.,0.));
#1456=DIRECTION('ref_axis',(0.,0.,1.));
#1457=DIRECTION('center_axis',(1.,0.,0.));
#1458=DIRECTION('ref_axis',(0.,0.,1.));
#1459=DIRECTION('',(1.,0.,0.));
#1460=DIRECTION('center_axis',(0.,-1.,0.));
#1461=DIRECTION('ref_axis',(0.,0.,-1.));
#1462=DIRECTION('',(0.,0.,-1.));
#1463=DIRECTION('',(-1.,0.,2.75753354873749E-17));
#1464=DIRECTION('',(0.,0.,-1.));
#1465=DIRECTION('',(1.,0.,0.));
#1466=DIRECTION('',(0.,0.,1.));
#1467=DIRECTION('',(1.,0.,0.));
#1468=DIRECTION('center_axis',(0.,0.,-1.));
#1469=DIRECTION('ref_axis',(0.,1.,0.));
#1470=DIRECTION('',(0.,-1.,0.));
#1471=DIRECTION('center_axis',(0.,0.,-1.));
#1472=DIRECTION('ref_axis',(1.,0.,0.));
#1473=DIRECTION('',(0.,-1.,0.));
#1474=DIRECTION('center_axis',(-1.,0.,0.));
#1475=DIRECTION('ref_axis',(0.,0.,-1.));
#1476=DIRECTION('',(0.,-1.,0.));
#1477=DIRECTION('center_axis',(2.75753354873749E-17,0.,1.));
#1478=DIRECTION('ref_axis',(-1.,0.,2.75753354873749E-17));
#1479=DIRECTION('',(0.,-1.,0.));
#1480=DIRECTION('center_axis',(-1.,0.,0.));
#1481=DIRECTION('ref_axis',(0.,0.,-1.));
#1482=DIRECTION('center_axis',(1.,0.,0.));
#1483=DIRECTION('ref_axis',(0.,0.,1.));
#1484=CARTESIAN_POINT('',(0.,0.,0.));
#1485=CARTESIAN_POINT('Origin',(20.6228767731394,61.7808249991283,-4.77424439854347));
#1486=CARTESIAN_POINT('',(21.329983554326,61.0737182179418,-3.29839452849976));
#1487=CARTESIAN_POINT('',(21.6228767731394,61.7808249991283,-3.00550130968631));
#1488=CARTESIAN_POINT('Origin',(20.6228767731394,61.7808249991283,-4.00550130968631));
#1489=CARTESIAN_POINT('',(21.6228767731394,61.7808249991283,-4.77424439854347));
#1490=CARTESIAN_POINT('',(21.6228767731394,61.7808249991283,-4.77424439854347));
#1491=CARTESIAN_POINT('',(20.6228767731394,60.7808249991283,-4.77424439854347));
#1492=CARTESIAN_POINT('Origin',(20.6228767731394,61.7808249991283,-4.77424439854347));
#1493=CARTESIAN_POINT('',(20.6228767731394,60.7808249991283,-3.00550130968631));
#1494=CARTESIAN_POINT('',(20.6228767731394,60.7808249991283,-4.77424439854347));
#1495=CARTESIAN_POINT('Origin',(20.6228767731394,61.7808249991283,-4.0055013096863));
#1496=CARTESIAN_POINT('Origin',(-4.38508547107919,60.7808249991283,-4.77424439854347));
#1497=CARTESIAN_POINT('',(-2.18508547107919,60.7808249991283,-4.77424439854347));
#1498=CARTESIAN_POINT('',(-8.03445245600422,60.7808249991283,-4.77424439854347));
#1499=CARTESIAN_POINT('',(-2.18508547107919,60.7808249991283,-3.00550130968631));
#1500=CARTESIAN_POINT('',(-2.18508547107919,60.7808249991283,-4.77424439854347));
#1501=CARTESIAN_POINT('',(11.6504209224315,60.7808249991283,-3.00550130968631));
#1502=CARTESIAN_POINT('Origin',(20.6228767731394,84.5887872433469,-4.77424439854347));
#1503=CARTESIAN_POINT('',(21.329983554326,85.2958940245335,-3.29839452849977));
#1504=CARTESIAN_POINT('',(20.6228767731394,85.5887872433469,-3.00550130968631));
#1505=CARTESIAN_POINT('Origin',(20.6228767731394,84.5887872433469,-4.00550130968631));
#1506=CARTESIAN_POINT('',(20.6228767731394,85.5887872433469,-4.77424439854347));
#1507=CARTESIAN_POINT('',(20.6228767731394,85.5887872433469,-4.77424439854347));
#1508=CARTESIAN_POINT('',(21.6228767731394,84.5887872433469,-4.77424439854347));
#1509=CARTESIAN_POINT('Origin',(20.6228767731394,84.5887872433469,-4.77424439854347));
#1510=CARTESIAN_POINT('',(21.6228767731394,84.5887872433469,-3.00550130968631));
#1511=CARTESIAN_POINT('',(21.6228767731394,84.5887872433469,-4.77424439854347));
#1512=CARTESIAN_POINT('Origin',(20.6228767731394,84.5887872433469,-4.00550130968631));
#1513=CARTESIAN_POINT('Origin',(21.6228767731394,59.5808249991283,-4.77424439854347));
#1514=CARTESIAN_POINT('',(21.6228767731394,75.3737266263553,-3.00550130968631));
#1515=CARTESIAN_POINT('',(21.6228767731394,75.3737266263553,-4.77424439854347));
#1516=CARTESIAN_POINT('Origin',(-2.18508547107919,61.7808249991283,-4.77424439854347));
#1517=CARTESIAN_POINT('',(-2.89219225226574,61.0737182179418,-3.29839452849976));
#1518=CARTESIAN_POINT('Origin',(-2.18508547107919,61.7808249991283,-4.0055013096863));
#1519=CARTESIAN_POINT('',(-3.18508547107919,61.7808249991283,-4.77424439854347));
#1520=CARTESIAN_POINT('Origin',(-2.18508547107919,61.7808249991283,-4.77424439854347));
#1521=CARTESIAN_POINT('',(-3.18508547107919,61.7808249991283,-3.00550130968631));
#1522=CARTESIAN_POINT('',(-3.18508547107919,61.7808249991283,-4.77424439854347));
#1523=CARTESIAN_POINT('Origin',(-2.18508547107919,61.7808249991283,-4.00550130968631));
#1524=CARTESIAN_POINT('Origin',(-3.18508547107919,86.7887872433469,-4.77424439854347));
#1525=CARTESIAN_POINT('',(-3.18508547107919,84.5887872433469,-4.77424439854347));
#1526=CARTESIAN_POINT('',(-3.18508547107919,88.9777077484646,-4.77424439854347));
#1527=CARTESIAN_POINT('',(-3.18508547107919,84.5887872433469,-3.00550130968631));
#1528=CARTESIAN_POINT('',(-3.18508547107919,84.5887872433469,-4.77424439854347));
#1529=CARTESIAN_POINT('',(-3.18508547107919,88.9777077484646,-3.00550130968631));
#1530=CARTESIAN_POINT('Origin',(-2.18508547107918,84.5887872433469,-4.77424439854347));
#1531=CARTESIAN_POINT('',(-2.89219225226574,85.2958940245335,-3.29839452849976));
#1532=CARTESIAN_POINT('Origin',(-2.18508547107918,84.5887872433469,-4.00550130968632));
#1533=CARTESIAN_POINT('',(-2.18508547107918,85.5887872433469,-4.77424439854347));
#1534=CARTESIAN_POINT('Origin',(-2.18508547107918,84.5887872433469,-4.77424439854347));
#1535=CARTESIAN_POINT('',(-2.18508547107918,85.5887872433469,-3.00550130968631));
#1536=CARTESIAN_POINT('',(-2.18508547107918,85.5887872433469,-4.77424439854347));
#1537=CARTESIAN_POINT('Origin',(-2.18508547107918,84.5887872433469,-4.00550130968631));
#1538=CARTESIAN_POINT('Origin',(22.8228767731394,85.5887872433469,-4.77424439854347));
#1539=CARTESIAN_POINT('',(25.2544020445409,85.5887872433469,-3.00550130968631));
#1540=CARTESIAN_POINT('',(5.56952866610508,85.5887872433469,-4.77424439854347));
#1541=CARTESIAN_POINT('Origin',(22.6228767731394,75.3737266263553,-2.00550130968631));
#1542=CARTESIAN_POINT('',(23.6228767731394,58.7808249991283,-1.00550130968631));
#1543=CARTESIAN_POINT('',(23.6228767731394,87.5887872433469,-1.00550130968631));
#1544=CARTESIAN_POINT('',(23.6228767731394,75.3737266263553,-1.00550130968631));
#1545=CARTESIAN_POINT('',(23.6228767731394,87.5887872433469,-1.00550130968631));
#1546=CARTESIAN_POINT('',(18.1953171934836,64.2083845787841,-6.43306088934213));
#1547=CARTESIAN_POINT('Origin',(-4.18508547107919,88.9777077484646,-2.00550130968631));
#1548=CARTESIAN_POINT('',(-5.18508547107919,87.5887872433469,-1.00550130968631));
#1549=CARTESIAN_POINT('',(-3.18508547107919,85.5887872433469,-3.00550130968631));
#1550=CARTESIAN_POINT('',(-5.18508547107919,58.7808249991283,-1.00550130968631));
#1551=CARTESIAN_POINT('',(-5.18508547107919,88.9777077484646,-1.00550130968631));
#1552=CARTESIAN_POINT('',(3.32031271939532,67.2862231896029,-9.51089950016083));
#1553=CARTESIAN_POINT('Origin',(25.2544020445409,86.5887872433469,-2.00550130968631));
#1554=CARTESIAN_POINT('',(25.2544020445409,87.5887872433469,-1.00550130968631));
#1555=CARTESIAN_POINT('Origin',(11.6504209224315,59.7808249991283,-2.00550130968631));
#1556=CARTESIAN_POINT('',(11.6504209224315,58.7808249991283,-1.00550130968631));
#1557=CARTESIAN_POINT('Origin',(27.6859273159423,91.1666282535824,-1.00550130968631));
#1558=CARTESIAN_POINT('',(27.6859273159423,52.739925671805,-1.00550130968631));
#1559=CARTESIAN_POINT('',(-10.0076342305644,52.7399256718047,-1.00550130968631));
#1560=CARTESIAN_POINT('',(13.2093546541235,52.7399256718049,-1.00550130968631));
#1561=CARTESIAN_POINT('',(27.6859273159423,91.1666282535824,-1.00550130968631));
#1562=CARTESIAN_POINT('',(27.6859273159423,91.1666282535824,-1.00550130968631));
#1563=CARTESIAN_POINT('',(-10.0076342305644,91.1666282535824,-1.00550130968631));
#1564=CARTESIAN_POINT('',(18.4176553707402,91.1666282535824,-1.00550130968631));
#1565=CARTESIAN_POINT('',(-10.0076342305644,91.1666282535824,-1.00550130968631));
#1566=CARTESIAN_POINT('Origin',(-12.6838194409293,52.555936058733,0.601745009725286));
#1567=CARTESIAN_POINT('',(-13.6838194409293,57.3052175729843,-2.77424439854347));
#1568=CARTESIAN_POINT('',(-11.6838194409293,56.4708813164038,-4.77424439854347));
#1569=CARTESIAN_POINT('',(-16.5634131397975,58.5064922865775,0.105349300324784));
#1570=CARTESIAN_POINT('',(-11.6838194409293,41.6220333279351,10.2249940177699));
#1571=CARTESIAN_POINT('',(-11.6838194409293,51.8452755206529,-0.101790063754083));
#1572=CARTESIAN_POINT('',(-13.6838194409293,43.6303392236753,11.0391343116873));
#1573=CARTESIAN_POINT('',(-15.3172813928199,45.2705848578999,11.704067908495));
#1574=CARTESIAN_POINT('',(-13.6838194409293,53.2665965968132,1.30528008320466));
#1575=CARTESIAN_POINT('Origin',(-12.6838194409293,42.7605499209069,23.9653458521359));
#1576=CARTESIAN_POINT('',(-11.6838194409293,41.8336820069736,31.2274865763221));
#1577=CARTESIAN_POINT('',(-11.6838194409293,41.7606006931527,23.9754226529047));
#1578=CARTESIAN_POINT('',(-13.6837178964376,43.853835608511,33.2273850318306));
#1579=CARTESIAN_POINT('',(-5.96340071479756,36.0553263809328,25.5070678501901));
#1580=CARTESIAN_POINT('',(-13.6838194409293,43.8539371581586,33.2273850318306));
#1581=CARTESIAN_POINT('',(-14.0726109251699,44.2427483832183,33.2273850318306));
#1582=CARTESIAN_POINT('',(-13.6838194409293,43.7434897536456,22.267379035411));
#1583=CARTESIAN_POINT('',(-13.6838194409293,43.7604991486611,23.9552690513672));
#1584=CARTESIAN_POINT('',(-13.6838194409293,43.7034225893321,18.2914018445377));
#1585=CARTESIAN_POINT('Ctrl Pts',(-13.6838194409293,43.7434897536456,22.267379035411));
#1586=CARTESIAN_POINT('Ctrl Pts',(-12.1338194409292,42.1735348684697,20.2950094811659));
#1587=CARTESIAN_POINT('Ctrl Pts',(-13.6838194409293,43.7034225893321,18.2914018445377));
#1588=CARTESIAN_POINT('',(-13.6838194409293,43.7604991486611,23.9552690513672));
#1589=CARTESIAN_POINT('Origin',(-1.26721800769548,49.0464573221695,2.7253748096132));
#1590=CARTESIAN_POINT('',(29.9825862920055,56.4708813164041,-4.77424439854347));
#1591=CARTESIAN_POINT('',(-1.26721800769552,56.4708813164039,-4.77424439854347));
#1592=CARTESIAN_POINT('',(29.9825862920055,41.6220333279354,10.2249940177699));
#1593=CARTESIAN_POINT('',(29.9825862920055,61.3452005212292,-9.69793113351195));
#1594=CARTESIAN_POINT('',(29.3925545973893,41.6220333279354,10.2249940177699));
#1595=CARTESIAN_POINT('',(-1.26721800769544,41.6220333279352,10.2249940177699));
#1596=CARTESIAN_POINT('',(29.3925545973893,42.1750450617037,9.66638133291699));
#1597=CARTESIAN_POINT('',(29.3925545973893,52.5127792311068,-0.776054310020444));
#1598=CARTESIAN_POINT('',(27.6859273159423,42.1750450617037,9.66638133291699));
#1599=CARTESIAN_POINT('',(14.0626682948471,42.1750450617037,9.66638133291699));
#1600=CARTESIAN_POINT('',(27.6859273159423,57.7352273841138,-6.05139587352882));
#1601=CARTESIAN_POINT('',(-10.0076342305644,42.1750450617035,9.66638133291699));
#1602=CARTESIAN_POINT('',(-10.0076342305644,61.153024506718,-9.50380874356057));
#1603=CARTESIAN_POINT('',(-10.86889662352,42.1750450617035,9.66638133291699));
#1604=CARTESIAN_POINT('',(-5.63742611912977,42.1750450617035,9.66638133291699));
#1605=CARTESIAN_POINT('',(-10.86889662352,41.6220333279351,10.2249940177699));
#1606=CARTESIAN_POINT('',(-10.86889662352,57.7352273841137,-6.05139587352893));
#1607=CARTESIAN_POINT('',(-1.26721800769544,41.6220333279352,10.2249940177699));
#1608=CARTESIAN_POINT('Origin',(30.9825862920055,62.0558610593093,-8.99439606003258));
#1609=CARTESIAN_POINT('',(31.9825862920055,43.6303392236755,11.0391343116873));
#1610=CARTESIAN_POINT('',(33.0886733874413,44.7410198411585,11.4893893481756));
#1611=CARTESIAN_POINT('',(31.9825862920055,57.3052175729845,-2.77424439854347));
#1612=CARTESIAN_POINT('',(33.5666419604018,57.966035111277,-1.19018873014712));
#1613=CARTESIAN_POINT('',(31.9825862920055,62.7665215973895,-8.29086098655321));
#1614=CARTESIAN_POINT('Origin',(30.9825862920055,91.1666282535824,-3.77424439854347));
#1615=CARTESIAN_POINT('',(29.9825862920055,90.1666282535824,-4.77424439854347));
#1616=CARTESIAN_POINT('',(29.9825862920055,91.1666282535824,-4.77424439854347));
#1617=CARTESIAN_POINT('',(30.4825862920055,90.6666282535824,-4.27424439854348));
#1618=CARTESIAN_POINT('',(25.4409522420553,85.6249942036322,-9.31587844849366));
#1619=CARTESIAN_POINT('',(31.9825862920055,89.1666282535824,-2.77424439854347));
#1620=CARTESIAN_POINT('',(32.2326541849377,88.9165603606501,-2.52417650561122));
#1621=CARTESIAN_POINT('',(31.9825862920055,91.1666282535824,-2.77424439854347));
#1622=CARTESIAN_POINT('Origin',(-11.6838194409293,91.1666282535824,-4.77424439854347));
#1623=CARTESIAN_POINT('',(-11.6838194409293,90.1666282535824,-4.77424439854347));
#1624=CARTESIAN_POINT('',(-11.6838194409293,91.1666282535824,-4.77424439854347));
#1625=CARTESIAN_POINT('',(-1.26721800769558,90.1666282535824,-4.77424439854347));
#1626=CARTESIAN_POINT('Origin',(-12.6838194409293,91.1666282535824,-3.77424439854347));
#1627=CARTESIAN_POINT('',(-13.6838194409293,89.1666282535824,-2.77424439854347));
#1628=CARTESIAN_POINT('',(-13.6838194409293,91.1666282535824,-2.77424439854347));
#1629=CARTESIAN_POINT('',(-12.1838194409293,90.6666282535824,-4.27424439854347));
#1630=CARTESIAN_POINT('',(-17.1006897863927,85.749757908119,0.642625946919964));
#1631=CARTESIAN_POINT('',(-10.6143858687236,89.0971946813768,-5.84367797074909));
#1632=CARTESIAN_POINT('Origin',(-13.6838194409293,91.1666282535824,33.2273850318306));
#1633=CARTESIAN_POINT('',(-13.6838194409293,44.2234307853659,18.22435203959));
#1634=CARTESIAN_POINT('Origin',(-13.6838194409293,44.2234307853659,20.27435203959));
#1635=CARTESIAN_POINT('Origin',(-13.6838194409293,44.2234307853659,20.27435203959));
#1636=CARTESIAN_POINT('',(-13.6838194409293,56.0366926083191,33.2273850318306));
#1637=CARTESIAN_POINT('',(-13.6838194409293,91.1666282535824,33.2273850318306));
#1638=CARTESIAN_POINT('',(-13.6838194409293,58.0366926083191,31.2273850318306));
#1639=CARTESIAN_POINT('',(-13.6838194409293,65.3191765196349,23.9449011205148));
#1640=CARTESIAN_POINT('',(-13.6838194409293,58.0366926083191,8.1407403772839));
#1641=CARTESIAN_POINT('',(-13.6838194409293,58.0366926083191,33.2273850318306));
#1642=CARTESIAN_POINT('',(-13.6838194409293,89.1666282535824,8.1407403772839));
#1643=CARTESIAN_POINT('',(-13.6838194409293,74.6016604309507,8.1407403772839));
#1644=CARTESIAN_POINT('',(-13.6838194409293,89.1666282535824,23.7269776742371));
#1645=CARTESIAN_POINT('',(-13.6838194409293,51.2936129850267,25.1534590284883));
#1646=CARTESIAN_POINT('Origin',(-13.6838194409293,51.2936129850267,27.2034590284883));
#1647=CARTESIAN_POINT('',(-13.6838194409293,51.1525377742642,11.1541698399291));
#1648=CARTESIAN_POINT('Origin',(-13.6838194409293,51.1525377742642,13.2041698399291));
#1649=CARTESIAN_POINT('Origin',(-10.86889662352,91.1666282535824,9.66638133291699));
#1650=CARTESIAN_POINT('',(-10.86889662352,58.0366926083191,9.66638133291699));
#1651=CARTESIAN_POINT('',(-10.86889662352,91.1666282535824,9.66638133291699));
#1652=CARTESIAN_POINT('',(-10.86889662352,58.0366926083191,30.5572346204825));
#1653=CARTESIAN_POINT('',(-10.86889662352,58.0366926083191,21.4468831823738));
#1654=CARTESIAN_POINT('',(-10.86889662352,41.8269276686168,30.5572346204825));
#1655=CARTESIAN_POINT('',(-10.86889662352,91.1666282535824,30.5572346204825));
#1656=CARTESIAN_POINT('',(-10.86889662352,41.6418969502214,12.1961170181504));
#1657=CARTESIAN_POINT('',(-10.86889662352,51.1525377742642,12.1541698399291));
#1658=CARTESIAN_POINT('Origin',(-10.86889662352,51.1525377742642,13.2041698399291));
#1659=CARTESIAN_POINT('',(-10.86889662352,51.2936129850267,26.1534590284883));
#1660=CARTESIAN_POINT('Origin',(-10.86889662352,51.2936129850267,27.2034590284883));
#1661=CARTESIAN_POINT('',(-10.86889662352,44.2234307853659,19.22435203959));
#1662=CARTESIAN_POINT('Origin',(-10.86889662352,44.2234307853659,20.27435203959));
#1663=CARTESIAN_POINT('Origin',(-10.0076342305644,91.1666282535824,9.66638133291699));
#1664=CARTESIAN_POINT('',(-10.0076342305644,58.0366926083191,9.66638133291699));
#1665=CARTESIAN_POINT('',(-10.0076342305644,91.1666282535824,9.66638133291699));
#1666=CARTESIAN_POINT('',(-10.8457268357468,58.0366926083191,9.66638133291699));
#1667=CARTESIAN_POINT('Origin',(9.1493834255381,41.6623584624576,14.2265703166436));
#1668=CARTESIAN_POINT('',(29.9825862920055,41.8336820069738,31.2274865763221));
#1669=CARTESIAN_POINT('',(29.9825862920055,41.5691429900551,4.9765373168063));
#1670=CARTESIAN_POINT('',(19.5659848587719,41.8336820069738,31.2274865763221));
#1671=CARTESIAN_POINT('',(29.3925545973893,41.8269276686171,30.5572346204825));
#1672=CARTESIAN_POINT('',(-0.859756598990831,41.8269276686169,30.5572346204825));
#1673=CARTESIAN_POINT('',(29.3925545973893,41.7471480893476,22.640483013322));
#1674=CARTESIAN_POINT('Origin',(19.5659848587719,42.8437588077425,32.2274358040764));
#1675=CARTESIAN_POINT('',(31.9824847475138,43.8538356085112,33.2273850318306));
#1676=CARTESIAN_POINT('',(24.5338109137907,36.3297209563759,25.7787111981071));
#1677=CARTESIAN_POINT('',(19.5659848587719,43.8538356085112,33.2273850318306));
#1678=CARTESIAN_POINT('Origin',(29.9825862920055,91.1666282535824,33.2273850318306));
#1679=CARTESIAN_POINT('',(31.9825862920055,43.8539371581588,33.2273850318306));
#1680=CARTESIAN_POINT('',(42.7395858960928,54.6114829470049,33.2273850318306));
#1681=CARTESIAN_POINT('',(31.9825862920055,56.0366926083191,33.2273850318306));
#1682=CARTESIAN_POINT('',(31.9825862920055,91.1666282535824,33.2273850318306));
#1683=CARTESIAN_POINT('',(9.1493834255381,56.0366926083191,33.2273850318306));
#1684=CARTESIAN_POINT('Origin',(9.1493834255381,57.0366926083191,32.2273850318306));
#1685=CARTESIAN_POINT('',(31.9825862920055,58.0366926083191,31.2273850318306));
#1686=CARTESIAN_POINT('',(31.9825862920055,74.8195838772284,14.4444937629212));
#1687=CARTESIAN_POINT('',(9.1493834255381,58.0366926083191,31.2273850318306));
#1688=CARTESIAN_POINT('Origin',(30.9825862920055,42.5690922178093,4.96646051603754));
#1689=CARTESIAN_POINT('',(31.9825862920055,43.7034225893323,18.2914018445377));
#1690=CARTESIAN_POINT('',(31.9825862920055,43.5690414455635,4.95638371526879));
#1691=CARTESIAN_POINT('',(31.9825862920055,43.7434897536458,22.267379035411));
#1692=CARTESIAN_POINT('Ctrl Pts',(31.9825862920055,43.7034225893323,18.2914018445377));
#1693=CARTESIAN_POINT('Ctrl Pts',(30.4325862920051,42.1735348684697,20.2950094811659));
#1694=CARTESIAN_POINT('Ctrl Pts',(31.9825862920055,43.7434897536458,22.267379035411));
#1695=CARTESIAN_POINT('',(31.9825862920055,43.5690414455635,4.95638371526879));
#1696=CARTESIAN_POINT('Origin',(-1.26721800769558,90.6666282535824,-4.27424439854347));
#1697=CARTESIAN_POINT('',(-11.6838194409293,91.1666282535824,-3.77424439854347));
#1698=CARTESIAN_POINT('',(-5.86418218992687,96.9862655045848,2.04539285245891));
#1699=CARTESIAN_POINT('',(29.9825862920055,91.1666282535824,-3.77424439854347));
#1700=CARTESIAN_POINT('',(-1.26721800769558,91.1666282535824,-3.77424439854347));
#1701=CARTESIAN_POINT('',(23.8575510157897,97.2916635297981,2.3507908776723));
#1702=CARTESIAN_POINT('Origin',(30.9825862920055,90.1666282535824,4.72616295905004));
#1703=CARTESIAN_POINT('',(29.9825862920055,91.1666282535824,8.1407403772839));
#1704=CARTESIAN_POINT('',(29.9825862920055,91.1666282535824,4.72616295905004));
#1705=CARTESIAN_POINT('',(31.9825862920055,89.1666282535824,8.1407403772839));
#1706=CARTESIAN_POINT('',(28.3484687700876,92.8007457755003,8.1407403772839));
#1707=CARTESIAN_POINT('',(31.9825862920055,89.1666282535824,4.72616295905004));
#1708=CARTESIAN_POINT('Origin',(-11.6838194409293,58.0366926083191,8.1407403772839));
#1709=CARTESIAN_POINT('',(27.6859273159423,91.1666282535824,8.1407403772839));
#1710=CARTESIAN_POINT('',(-1.26721800769558,91.1666282535824,8.1407403772839));
#1711=CARTESIAN_POINT('',(27.6859273159423,58.0366926083191,8.1407403772839));
#1712=CARTESIAN_POINT('',(27.6859273159423,74.6016604309507,8.1407403772839));
#1713=CARTESIAN_POINT('',(31.9825862920055,58.0366926083191,8.1407403772839));
#1714=CARTESIAN_POINT('',(29.9825862920055,58.0366926083191,8.1407403772839));
#1715=CARTESIAN_POINT('',(31.9825862920055,74.6016604309507,8.1407403772839));
#1716=CARTESIAN_POINT('Origin',(9.1493834255381,91.1666282535824,14.2265703166436));
#1717=CARTESIAN_POINT('',(-11.6838194409293,91.1666282535824,8.1407403772839));
#1718=CARTESIAN_POINT('',(-11.6838194409293,91.1666282535824,23.7269776742371));
#1719=CARTESIAN_POINT('',(-10.0076342305644,91.1666282535824,8.1407403772839));
#1720=CARTESIAN_POINT('',(-1.26721800769558,91.1666282535824,8.1407403772839));
#1721=CARTESIAN_POINT('',(-10.0076342305644,91.1666282535824,-4.00550130968631));
#1722=CARTESIAN_POINT('',(27.6859273159423,91.1666282535824,9.66638133291699));
#1723=CARTESIAN_POINT('Origin',(-12.6838194409293,90.1666282535824,23.7269776742371));
#1724=CARTESIAN_POINT('',(-20.4663033522451,82.3841443422666,8.1407403772839));
#1725=CARTESIAN_POINT('Origin',(31.4825862920055,51.2936129850267,27.2034590284883));
#1726=CARTESIAN_POINT('',(31.9825862920055,51.2936129850267,25.1534590284883));
#1727=CARTESIAN_POINT('Origin',(31.9825862920055,51.2936129850267,27.2034590284883));
#1728=CARTESIAN_POINT('',(30.9825862920055,51.2936129850267,26.1534590284883));
#1729=CARTESIAN_POINT('',(31.4825862920055,51.2936129850267,25.6534590284883));
#1730=CARTESIAN_POINT('Origin',(30.9825862920055,51.2936129850267,27.2034590284883));
#1731=CARTESIAN_POINT('Origin',(31.9825862920055,91.1666282535824,-4.77424439854347));
#1732=CARTESIAN_POINT('',(31.9825862920055,58.0366926083191,14.2265703166436));
#1733=CARTESIAN_POINT('',(31.9825862920055,44.2234307853659,18.22435203959));
#1734=CARTESIAN_POINT('Origin',(31.9825862920055,44.2234307853659,20.27435203959));
#1735=CARTESIAN_POINT('Origin',(31.9825862920055,44.2234307853659,20.27435203959));
#1736=CARTESIAN_POINT('',(31.9825862920055,51.1525377742642,11.1541698399291));
#1737=CARTESIAN_POINT('Origin',(31.9825862920055,51.1525377742642,13.2041698399291));
#1738=CARTESIAN_POINT('Origin',(-11.6838194409292,51.2936129850267,27.2034590284883));
#1739=CARTESIAN_POINT('',(29.3925545973893,51.2936129850267,26.1534590284883));
#1740=CARTESIAN_POINT('Origin',(29.3925545973893,51.2936129850267,27.2034590284883));
#1741=CARTESIAN_POINT('',(-11.6838194409292,51.2936129850267,26.1534590284883));
#1742=CARTESIAN_POINT('Origin',(31.4825862920055,44.2234307853659,20.27435203959));
#1743=CARTESIAN_POINT('',(30.9825862920055,44.2234307853659,19.22435203959));
#1744=CARTESIAN_POINT('',(31.4825862920055,44.2234307853659,18.72435203959));
#1745=CARTESIAN_POINT('Origin',(30.9825862920055,44.2234307853659,20.27435203959));
#1746=CARTESIAN_POINT('Origin',(-11.6838194409292,44.2234307853659,20.27435203959));
#1747=CARTESIAN_POINT('',(29.3925545973893,44.2234307853659,19.22435203959));
#1748=CARTESIAN_POINT('Origin',(29.3925545973893,44.2234307853659,20.27435203959));
#1749=CARTESIAN_POINT('',(-11.6838194409292,44.2234307853659,19.22435203959));
#1750=CARTESIAN_POINT('Origin',(31.4825862920055,51.1525377742642,13.2041698399291));
#1751=CARTESIAN_POINT('',(30.9825862920055,51.1525377742642,12.1541698399291));
#1752=CARTESIAN_POINT('',(31.4825862920055,51.1525377742642,11.6541698399291));
#1753=CARTESIAN_POINT('Origin',(30.9825862920055,51.1525377742642,13.2041698399291));
#1754=CARTESIAN_POINT('Origin',(-11.6838194409292,51.1525377742642,13.2041698399291));
#1755=CARTESIAN_POINT('',(29.3925545973893,51.1525377742642,12.1541698399291));
#1756=CARTESIAN_POINT('Origin',(29.3925545973893,51.1525377742642,13.2041698399291));
#1757=CARTESIAN_POINT('',(-11.6838194409292,51.1525377742642,12.1541698399291));
#1758=CARTESIAN_POINT('Origin',(-13.1838194409293,51.2936129850267,27.2034590284883));
#1759=CARTESIAN_POINT('',(-12.6838194409293,51.2936129850267,26.1534590284883));
#1760=CARTESIAN_POINT('',(-13.1838194409293,51.2936129850267,25.6534590284883));
#1761=CARTESIAN_POINT('Origin',(-12.6838194409293,51.2936129850267,27.2034590284883));
#1762=CARTESIAN_POINT('Origin',(-11.6838194409292,51.2936129850267,27.2034590284883));
#1763=CARTESIAN_POINT('',(-11.6838194409292,51.2936129850267,26.1534590284883));
#1764=CARTESIAN_POINT('Origin',(-13.1838194409293,44.2234307853659,20.27435203959));
#1765=CARTESIAN_POINT('',(-12.6838194409293,44.2234307853659,19.22435203959));
#1766=CARTESIAN_POINT('',(-13.1838194409293,44.2234307853659,18.72435203959));
#1767=CARTESIAN_POINT('Origin',(-12.6838194409293,44.2234307853659,20.27435203959));
#1768=CARTESIAN_POINT('Origin',(-11.6838194409292,44.2234307853659,20.27435203959));
#1769=CARTESIAN_POINT('',(-11.6838194409292,44.2234307853659,19.22435203959));
#1770=CARTESIAN_POINT('Origin',(-13.1838194409293,51.1525377742642,13.2041698399291));
#1771=CARTESIAN_POINT('',(-12.6838194409293,51.1525377742642,12.1541698399291));
#1772=CARTESIAN_POINT('',(-13.1838194409293,51.1525377742642,11.6541698399291));
#1773=CARTESIAN_POINT('Origin',(-12.6838194409293,51.1525377742642,13.2041698399291));
#1774=CARTESIAN_POINT('Origin',(-11.6838194409292,51.1525377742642,13.2041698399291));
#1775=CARTESIAN_POINT('',(-11.6838194409292,51.1525377742642,12.1541698399291));
#1776=CARTESIAN_POINT('Origin',(-11.6838194409293,58.0366926083191,33.2273850318306));
#1777=CARTESIAN_POINT('',(27.6859273159423,58.0366926083191,9.66638133291699));
#1778=CARTESIAN_POINT('',(27.6859273159423,58.0366926083191,21.4468831823738));
#1779=CARTESIAN_POINT('',(29.3925545973893,58.0366926083191,9.66638133291699));
#1780=CARTESIAN_POINT('',(8.85436757823002,58.0366926083191,9.66638133291699));
#1781=CARTESIAN_POINT('',(29.3925545973893,58.0366926083191,30.5572346204825));
#1782=CARTESIAN_POINT('',(29.3925545973893,58.0366926083191,31.8923098261565));
#1783=CARTESIAN_POINT('',(-11.2763580322246,58.0366926083191,30.5572346204825));
#1784=CARTESIAN_POINT('',(-10.0076342305644,58.0366926083191,8.1407403772839));
#1785=CARTESIAN_POINT('',(-10.0076342305644,58.0366926083191,14.6109418610721));
#1786=CARTESIAN_POINT('',(-11.6838194409293,58.0366926083191,8.1407403772839));
#1787=CARTESIAN_POINT('Origin',(-11.6838194409293,58.0366926083191,8.1407403772839));
#1788=CARTESIAN_POINT('',(-10.0076342305644,74.6016604309507,8.1407403772839));
#1789=CARTESIAN_POINT('Origin',(-10.86889662352,91.1666282535824,30.5572346204825));
#1790=CARTESIAN_POINT('',(29.3925545973893,91.1666282535824,30.5572346204825));
#1791=CARTESIAN_POINT('Origin',(29.3925545973893,91.1666282535824,30.5572346204825));
#1792=CARTESIAN_POINT('',(29.3925545973893,91.1666282535824,9.66638133291699));
#1793=CARTESIAN_POINT('Origin',(29.3925545973893,91.1666282535824,9.66638133291699));
#1794=CARTESIAN_POINT('',(27.6859273159423,91.1666282535824,9.66638133291699));
#1795=CARTESIAN_POINT('Origin',(27.6859273159423,91.1666282535824,9.66638133291699));
#1796=CARTESIAN_POINT('Origin',(-10.0076342305644,91.1666282535824,-4.00550130968631));
#1797=UNCERTAINTY_MEASURE_WITH_UNIT(LENGTH_MEASURE(0.01),#1801,
'DISTANCE_ACCURACY_VALUE',
'Maximum model space distance between geometric entities at asserted c
onnectivities');
#1798=UNCERTAINTY_MEASURE_WITH_UNIT(LENGTH_MEASURE(0.01),#1801,
'DISTANCE_ACCURACY_VALUE',
'Maximum model space distance between geometric entities at asserted c
onnectivities');
#1799=(
GEOMETRIC_REPRESENTATION_CONTEXT(3)
GLOBAL_UNCERTAINTY_ASSIGNED_CONTEXT((#1797))
GLOBAL_UNIT_ASSIGNED_CONTEXT((#1801,#1803,#1804))
REPRESENTATION_CONTEXT('','3D')
);
#1800=(
GEOMETRIC_REPRESENTATION_CONTEXT(3)
GLOBAL_UNCERTAINTY_ASSIGNED_CONTEXT((#1798))
GLOBAL_UNIT_ASSIGNED_CONTEXT((#1801,#1803,#1804))
REPRESENTATION_CONTEXT('','3D')
);
#1801=(
LENGTH_UNIT()
NAMED_UNIT(*)
SI_UNIT(.MILLI.,.METRE.)
);
#1802=(
LENGTH_UNIT()
NAMED_UNIT(*)
SI_UNIT($,.METRE.)
);
#1803=(
NAMED_UNIT(*)
PLANE_ANGLE_UNIT()
SI_UNIT($,.RADIAN.)
);
#1804=(
NAMED_UNIT(*)
SI_UNIT($,.STERADIAN.)
SOLID_ANGLE_UNIT()
);
#1805=SHAPE_DEFINITION_REPRESENTATION(#1806,#1807);
#1806=PRODUCT_DEFINITION_SHAPE('',$,#1809);
#1807=SHAPE_REPRESENTATION('',(#1105),#1799);
#1808=PRODUCT_DEFINITION_CONTEXT('part definition',#1813,'design');
#1809=PRODUCT_DEFINITION('\X2\955C593456FA5B9A\X0\','\X2\955C593456FA5B9A\X0\',
#1810,#1808);
#1810=PRODUCT_DEFINITION_FORMATION('',$,#1815);
#1811=PRODUCT_RELATED_PRODUCT_CATEGORY('\X2\955C593456FA5B9A\X0\',
'\X2\955C593456FA5B9A\X0\',(#1815));
#1812=APPLICATION_PROTOCOL_DEFINITION('international standard',
'ap242_managed_model_based_3d_engineering',2011,#1813);
#1813=APPLICATION_CONTEXT('Managed model based 3d engineering');
#1814=PRODUCT_CONTEXT('part definition',#1813,'mechanical');
#1815=PRODUCT('\X2\955C593456FA5B9A\X0\','\X2\955C593456FA5B9A\X0\',$,(#1814));
#1816=PRESENTATION_STYLE_ASSIGNMENT((#1817));
#1817=SURFACE_STYLE_USAGE(.BOTH.,#1818);
#1818=SURFACE_SIDE_STYLE('',(#1819));
#1819=SURFACE_STYLE_FILL_AREA(#1820);
#1820=FILL_AREA_STYLE('\X2\94A2\X0\ - \X2\7F0E5149\X0\',(#1821));
#1821=FILL_AREA_STYLE_COLOUR('\X2\94A2\X0\ - \X2\7F0E5149\X0\',#1822);
#1822=COLOUR_RGB('\X2\94A2\X0\ - \X2\7F0E5149\X0\',0.627450980392157,0.627450980392157,
0.627450980392157);
ENDSEC;
END-ISO-10303-21;
